<?xml version="1.0" encoding="utf-8" standalone="no"?>
<!DOCTYPE svg PUBLIC "-//W3C//DTD SVG 1.1//EN"
  "http://www.w3.org/Graphics/SVG/1.1/DTD/svg11.dtd">
<!-- Created with matplotlib (https://matplotlib.org/) -->
<svg height="180pt" version="1.1" viewBox="0 0 252 180" width="252pt" xmlns="http://www.w3.org/2000/svg" xmlns:xlink="http://www.w3.org/1999/xlink">
 <metadata>
  <rdf:RDF xmlns:cc="http://creativecommons.org/ns#" xmlns:dc="http://purl.org/dc/elements/1.1/" xmlns:rdf="http://www.w3.org/1999/02/22-rdf-syntax-ns#">
   <cc:Work>
    <dc:type rdf:resource="http://purl.org/dc/dcmitype/StillImage"/>
    <dc:date>2021-09-05T23:04:10.522547</dc:date>
    <dc:format>image/svg+xml</dc:format>
    <dc:creator>
     <cc:Agent>
      <dc:title>Matplotlib v3.3.4, https://matplotlib.org/</dc:title>
     </cc:Agent>
    </dc:creator>
   </cc:Work>
  </rdf:RDF>
 </metadata>
 <defs>
  <style type="text/css">*{stroke-linecap:butt;stroke-linejoin:round;}</style>
 </defs>
 <g id="figure_1">
  <g id="patch_1">
   <path d="M 0 180 
L 252 180 
L 252 0 
L 0 0 
z
" style="fill:#ffffff;"/>
  </g>
  <g id="axes_1">
   <g id="patch_2">
    <path d="M 31.5 160.2 
L 226.8 160.2 
L 226.8 21.6 
L 31.5 21.6 
z
" style="fill:#ffffff;"/>
   </g>
   <g id="PolyCollection_1">
    <path clip-path="url(#pb69901ca16)" d="M 40.377273 27.9 
L 40.377273 27.9 
L 41.9625 38.881712 
L 43.547727 43.561096 
L 45.132955 46.036466 
L 46.718182 48.498155 
L 48.303409 50.057942 
L 49.888636 51.628653 
L 51.473864 53.146469 
L 53.059091 55.021062 
L 54.644318 56.560615 
L 56.229545 58.83075 
L 57.814773 60.230509 
L 59.4 62.456752 
L 60.985227 64.090795 
L 62.570455 65.648223 
L 64.155682 67.674156 
L 65.740909 70.149892 
L 67.326136 71.844124 
L 68.911364 73.97376 
L 70.496591 76.454626 
L 72.081818 78.707369 
L 73.667045 80.737373 
L 75.252273 82.738368 
L 76.8375 85.076801 
L 78.422727 86.708629 
L 80.007955 88.05232 
L 81.593182 90.119982 
L 83.178409 92.254936 
L 84.763636 93.949435 
L 86.348864 95.459658 
L 87.934091 97.702629 
L 89.519318 99.618625 
L 91.104545 101.54317 
L 92.689773 103.798699 
L 94.275 105.456871 
L 95.860227 107.832114 
L 97.445455 109.58455 
L 99.030682 111.695901 
L 100.615909 113.739066 
L 102.201136 116.000692 
L 103.786364 118.149407 
L 105.371591 119.715184 
L 106.956818 121.279219 
L 108.542045 123.055571 
L 110.127273 124.985227 
L 111.7125 127.297308 
L 113.297727 129.067768 
L 114.882955 131.098999 
L 116.468182 133.001124 
L 118.053409 134.912256 
L 119.638636 137.597583 
L 121.223864 139.746065 
L 122.809091 141.502958 
L 124.394318 143.442101 
L 125.979545 144.91272 
L 127.564773 146.376554 
L 129.15 147.335662 
L 130.735227 148.529062 
L 132.320455 149.549724 
L 133.905682 149.795916 
L 135.490909 150.255873 
L 137.076136 149.968017 
L 138.661364 150.695368 
L 140.246591 151.403602 
L 141.831818 151.560107 
L 143.417045 151.450836 
L 145.002273 151.960805 
L 146.5875 151.725503 
L 148.172727 151.870773 
L 149.757955 151.910257 
L 151.343182 151.844159 
L 152.928409 152.118402 
L 154.513636 152.284596 
L 156.098864 152.393917 
L 156.098864 152.393917 
L 156.098864 152.393917 
L 154.513636 152.284596 
L 152.928409 152.118402 
L 151.343182 151.844159 
L 149.757955 151.910257 
L 148.172727 151.870773 
L 146.5875 151.725503 
L 145.002273 151.960805 
L 143.417045 151.450836 
L 141.831818 151.560107 
L 140.246591 151.403602 
L 138.661364 150.695368 
L 137.076136 149.968017 
L 135.490909 150.255873 
L 133.905682 149.795916 
L 132.320455 149.549724 
L 130.735227 148.529062 
L 129.15 147.335662 
L 127.564773 146.376554 
L 125.979545 144.91272 
L 124.394318 143.442101 
L 122.809091 141.502958 
L 121.223864 139.746065 
L 119.638636 137.597583 
L 118.053409 134.912256 
L 116.468182 133.001124 
L 114.882955 131.098999 
L 113.297727 129.067768 
L 111.7125 127.297308 
L 110.127273 124.985227 
L 108.542045 123.055571 
L 106.956818 121.279219 
L 105.371591 119.715184 
L 103.786364 118.149407 
L 102.201136 116.000692 
L 100.615909 113.739066 
L 99.030682 111.695901 
L 97.445455 109.58455 
L 95.860227 107.832114 
L 94.275 105.456871 
L 92.689773 103.798699 
L 91.104545 101.54317 
L 89.519318 99.618625 
L 87.934091 97.702629 
L 86.348864 95.459658 
L 84.763636 93.949435 
L 83.178409 92.254936 
L 81.593182 90.119982 
L 80.007955 88.05232 
L 78.422727 86.708629 
L 76.8375 85.076801 
L 75.252273 82.738368 
L 73.667045 80.737373 
L 72.081818 78.707369 
L 70.496591 76.454626 
L 68.911364 73.97376 
L 67.326136 71.844124 
L 65.740909 70.149892 
L 64.155682 67.674156 
L 62.570455 65.648223 
L 60.985227 64.090795 
L 59.4 62.456752 
L 57.814773 60.230509 
L 56.229545 58.83075 
L 54.644318 56.560615 
L 53.059091 55.021062 
L 51.473864 53.146469 
L 49.888636 51.628653 
L 48.303409 50.057942 
L 46.718182 48.498155 
L 45.132955 46.036466 
L 43.547727 43.561096 
L 41.9625 38.881712 
L 40.377273 27.9 
z
" style="fill:#0000ff;fill-opacity:0.5;"/>
   </g>
   <g id="PolyCollection_2">
    <path clip-path="url(#pb69901ca16)" d="M 40.377273 27.9 
L 40.377273 27.9 
L 41.9625 39.019938 
L 43.547727 42.018275 
L 45.132955 44.852517 
L 46.718182 47.195712 
L 48.303409 48.429003 
L 49.888636 49.970711 
L 51.473864 51.921 
L 53.059091 53.638138 
L 54.644318 54.963968 
L 56.229545 56.952926 
L 57.814773 59.564129 
L 59.4 61.321215 
L 60.985227 63.135971 
L 62.570455 65.049198 
L 64.155682 66.704878 
L 65.740909 68.699759 
L 67.326136 70.686183 
L 68.911364 72.347008 
L 70.496591 73.774122 
L 72.081818 75.886957 
L 73.667045 77.530512 
L 75.252273 78.906806 
L 76.8375 80.501046 
L 78.422727 82.65628 
L 80.007955 84.659499 
L 81.593182 86.720717 
L 83.178409 88.328911 
L 84.763636 89.933941 
L 86.348864 91.74861 
L 87.934091 93.126297 
L 89.519318 94.873605 
L 91.104545 96.549853 
L 92.689773 98.28851 
L 94.275 100.052424 
L 95.860227 101.811191 
L 97.445455 103.318969 
L 99.030682 105.487241 
L 100.615909 107.296375 
L 102.201136 109.281254 
L 103.786364 111.292832 
L 105.371591 112.810036 
L 106.956818 114.997986 
L 108.542045 116.928675 
L 110.127273 118.621034 
L 111.7125 120.00588 
L 113.297727 122.46537 
L 114.882955 124.160978 
L 116.468182 126.042692 
L 118.053409 127.391229 
L 119.638636 128.978317 
L 121.223864 130.342261 
L 122.809091 132.389265 
L 124.394318 133.792666 
L 125.979545 135.682575 
L 127.564773 136.864816 
L 129.15 138.784079 
L 130.735227 140.587384 
L 132.320455 142.114979 
L 133.905682 144.171807 
L 135.490909 145.586826 
L 137.076136 146.806662 
L 138.661364 147.650341 
L 140.246591 148.214814 
L 141.831818 148.804559 
L 143.417045 150.305522 
L 145.002273 150.987863 
L 146.5875 151.32476 
L 148.172727 151.12831 
L 149.757955 151.767209 
L 151.343182 152.172621 
L 152.928409 152.538117 
L 154.513636 152.248259 
L 156.098864 152.285858 
L 157.684091 152.463513 
L 159.269318 152.629637 
L 160.854545 153.382989 
L 162.439773 153.633428 
L 164.025 152.664441 
L 165.610227 152.339975 
L 167.195455 151.962764 
L 168.780682 152.029823 
L 170.365909 152.02902 
L 171.951136 152.055141 
L 173.536364 151.648017 
L 175.121591 151.752438 
L 176.706818 151.91066 
L 178.292045 151.768854 
L 179.877273 152.363923 
L 181.4625 152.051511 
L 183.047727 152.509029 
L 184.632955 152.400067 
L 184.632955 152.400067 
L 184.632955 152.400067 
L 183.047727 152.509029 
L 181.4625 152.051511 
L 179.877273 152.363923 
L 178.292045 151.768854 
L 176.706818 151.91066 
L 175.121591 151.752438 
L 173.536364 151.648017 
L 171.951136 152.055141 
L 170.365909 152.02902 
L 168.780682 152.029823 
L 167.195455 151.962764 
L 165.610227 152.339975 
L 164.025 152.664441 
L 162.439773 153.633428 
L 160.854545 153.382989 
L 159.269318 152.629637 
L 157.684091 152.463513 
L 156.098864 152.285858 
L 154.513636 152.248259 
L 152.928409 152.538117 
L 151.343182 152.172621 
L 149.757955 151.767209 
L 148.172727 151.12831 
L 146.5875 151.32476 
L 145.002273 150.987863 
L 143.417045 150.305522 
L 141.831818 148.804559 
L 140.246591 148.214814 
L 138.661364 147.650341 
L 137.076136 146.806662 
L 135.490909 145.586826 
L 133.905682 144.171807 
L 132.320455 142.114979 
L 130.735227 140.587384 
L 129.15 138.784079 
L 127.564773 136.864816 
L 125.979545 135.682575 
L 124.394318 133.792666 
L 122.809091 132.389265 
L 121.223864 130.342261 
L 119.638636 128.978317 
L 118.053409 127.391229 
L 116.468182 126.042692 
L 114.882955 124.160978 
L 113.297727 122.46537 
L 111.7125 120.00588 
L 110.127273 118.621034 
L 108.542045 116.928675 
L 106.956818 114.997986 
L 105.371591 112.810036 
L 103.786364 111.292832 
L 102.201136 109.281254 
L 100.615909 107.296375 
L 99.030682 105.487241 
L 97.445455 103.318969 
L 95.860227 101.811191 
L 94.275 100.052424 
L 92.689773 98.28851 
L 91.104545 96.549853 
L 89.519318 94.873605 
L 87.934091 93.126297 
L 86.348864 91.74861 
L 84.763636 89.933941 
L 83.178409 88.328911 
L 81.593182 86.720717 
L 80.007955 84.659499 
L 78.422727 82.65628 
L 76.8375 80.501046 
L 75.252273 78.906806 
L 73.667045 77.530512 
L 72.081818 75.886957 
L 70.496591 73.774122 
L 68.911364 72.347008 
L 67.326136 70.686183 
L 65.740909 68.699759 
L 64.155682 66.704878 
L 62.570455 65.049198 
L 60.985227 63.135971 
L 59.4 61.321215 
L 57.814773 59.564129 
L 56.229545 56.952926 
L 54.644318 54.963968 
L 53.059091 53.638138 
L 51.473864 51.921 
L 49.888636 49.970711 
L 48.303409 48.429003 
L 46.718182 47.195712 
L 45.132955 44.852517 
L 43.547727 42.018275 
L 41.9625 39.019938 
L 40.377273 27.9 
z
" style="fill:#008000;fill-opacity:0.5;"/>
   </g>
   <g id="PolyCollection_3">
    <path clip-path="url(#pb69901ca16)" d="M 40.377273 27.9 
L 40.377273 27.9 
L 41.9625 39.346244 
L 43.547727 42.948202 
L 45.132955 46.114488 
L 46.718182 46.869191 
L 48.303409 48.896409 
L 49.888636 50.105373 
L 51.473864 51.090028 
L 53.059091 52.602322 
L 54.644318 53.865614 
L 56.229545 55.500839 
L 57.814773 56.957429 
L 59.4 58.505916 
L 60.985227 60.020487 
L 62.570455 61.460164 
L 64.155682 62.934103 
L 65.740909 63.884032 
L 67.326136 65.2621 
L 68.911364 66.283086 
L 70.496591 67.565823 
L 72.081818 68.947295 
L 73.667045 70.056775 
L 75.252273 71.488155 
L 76.8375 72.891594 
L 78.422727 73.535514 
L 80.007955 75.407547 
L 81.593182 77.129571 
L 83.178409 78.463037 
L 84.763636 79.885197 
L 86.348864 81.020314 
L 87.934091 82.395077 
L 89.519318 84.022953 
L 91.104545 85.688761 
L 92.689773 87.302848 
L 94.275 88.791471 
L 95.860227 90.963831 
L 97.445455 92.96637 
L 99.030682 94.685704 
L 100.615909 96.290246 
L 102.201136 97.82917 
L 103.786364 99.418868 
L 105.371591 101.144768 
L 106.956818 102.831314 
L 108.542045 104.005196 
L 110.127273 105.841856 
L 111.7125 107.573375 
L 113.297727 108.471213 
L 114.882955 109.763051 
L 116.468182 110.580414 
L 118.053409 112.128995 
L 119.638636 113.614552 
L 121.223864 115.748058 
L 122.809091 116.906654 
L 124.394318 118.898922 
L 125.979545 120.271679 
L 127.564773 121.95667 
L 129.15 123.290121 
L 130.735227 124.82317 
L 132.320455 126.398504 
L 133.905682 128.323046 
L 135.490909 129.471886 
L 137.076136 130.430134 
L 138.661364 131.830551 
L 140.246591 133.314064 
L 141.831818 134.458641 
L 143.417045 135.431547 
L 145.002273 136.83142 
L 146.5875 138.155563 
L 148.172727 139.519474 
L 149.757955 140.884601 
L 151.343182 142.639575 
L 152.928409 143.507665 
L 154.513636 144.955883 
L 156.098864 146.495664 
L 157.684091 148.096225 
L 159.269318 149.339501 
L 160.854545 150.216657 
L 162.439773 150.435111 
L 164.025 150.69668 
L 165.610227 150.761695 
L 167.195455 151.477526 
L 168.780682 151.379895 
L 170.365909 151.473934 
L 171.951136 151.384532 
L 173.536364 151.510604 
L 175.121591 151.47549 
L 176.706818 151.015938 
L 178.292045 151.274937 
L 179.877273 151.806253 
L 181.4625 150.943467 
L 183.047727 151.440896 
L 184.632955 151.33337 
L 186.218182 151.276332 
L 187.803409 151.665686 
L 189.388636 151.765415 
L 190.973864 151.512011 
L 192.559091 151.673891 
L 194.144318 151.966341 
L 195.729545 152.230313 
L 197.314773 152.826399 
L 198.9 153.857886 
L 200.485227 153.816583 
L 202.070455 153.9 
L 203.655682 152.993712 
L 205.240909 152.654528 
L 206.826136 153.424731 
L 208.411364 153.258347 
L 209.996591 153.13542 
L 211.581818 152.936986 
L 213.167045 152.658459 
L 214.752273 152.478163 
L 216.3375 152.426544 
L 217.922727 153.285899 
L 217.922727 153.285899 
L 217.922727 153.285899 
L 216.3375 152.426544 
L 214.752273 152.478163 
L 213.167045 152.658459 
L 211.581818 152.936986 
L 209.996591 153.13542 
L 208.411364 153.258347 
L 206.826136 153.424731 
L 205.240909 152.654528 
L 203.655682 152.993712 
L 202.070455 153.9 
L 200.485227 153.816583 
L 198.9 153.857886 
L 197.314773 152.826399 
L 195.729545 152.230313 
L 194.144318 151.966341 
L 192.559091 151.673891 
L 190.973864 151.512011 
L 189.388636 151.765415 
L 187.803409 151.665686 
L 186.218182 151.276332 
L 184.632955 151.33337 
L 183.047727 151.440896 
L 181.4625 150.943467 
L 179.877273 151.806253 
L 178.292045 151.274937 
L 176.706818 151.015938 
L 175.121591 151.47549 
L 173.536364 151.510604 
L 171.951136 151.384532 
L 170.365909 151.473934 
L 168.780682 151.379895 
L 167.195455 151.477526 
L 165.610227 150.761695 
L 164.025 150.69668 
L 162.439773 150.435111 
L 160.854545 150.216657 
L 159.269318 149.339501 
L 157.684091 148.096225 
L 156.098864 146.495664 
L 154.513636 144.955883 
L 152.928409 143.507665 
L 151.343182 142.639575 
L 149.757955 140.884601 
L 148.172727 139.519474 
L 146.5875 138.155563 
L 145.002273 136.83142 
L 143.417045 135.431547 
L 141.831818 134.458641 
L 140.246591 133.314064 
L 138.661364 131.830551 
L 137.076136 130.430134 
L 135.490909 129.471886 
L 133.905682 128.323046 
L 132.320455 126.398504 
L 130.735227 124.82317 
L 129.15 123.290121 
L 127.564773 121.95667 
L 125.979545 120.271679 
L 124.394318 118.898922 
L 122.809091 116.906654 
L 121.223864 115.748058 
L 119.638636 113.614552 
L 118.053409 112.128995 
L 116.468182 110.580414 
L 114.882955 109.763051 
L 113.297727 108.471213 
L 111.7125 107.573375 
L 110.127273 105.841856 
L 108.542045 104.005196 
L 106.956818 102.831314 
L 105.371591 101.144768 
L 103.786364 99.418868 
L 102.201136 97.82917 
L 100.615909 96.290246 
L 99.030682 94.685704 
L 97.445455 92.96637 
L 95.860227 90.963831 
L 94.275 88.791471 
L 92.689773 87.302848 
L 91.104545 85.688761 
L 89.519318 84.022953 
L 87.934091 82.395077 
L 86.348864 81.020314 
L 84.763636 79.885197 
L 83.178409 78.463037 
L 81.593182 77.129571 
L 80.007955 75.407547 
L 78.422727 73.535514 
L 76.8375 72.891594 
L 75.252273 71.488155 
L 73.667045 70.056775 
L 72.081818 68.947295 
L 70.496591 67.565823 
L 68.911364 66.283086 
L 67.326136 65.2621 
L 65.740909 63.884032 
L 64.155682 62.934103 
L 62.570455 61.460164 
L 60.985227 60.020487 
L 59.4 58.505916 
L 57.814773 56.957429 
L 56.229545 55.500839 
L 54.644318 53.865614 
L 53.059091 52.602322 
L 51.473864 51.090028 
L 49.888636 50.105373 
L 48.303409 48.896409 
L 46.718182 46.869191 
L 45.132955 46.114488 
L 43.547727 42.948202 
L 41.9625 39.346244 
L 40.377273 27.9 
z
" style="fill:#ff0000;fill-opacity:0.5;"/>
   </g>
   <g id="matplotlib.axis_1">
    <g id="xtick_1">
     <g id="line2d_1">
      <defs>
       <path d="M 0 0 
L 0 3.5 
" id="mc07cfdb3bc" style="stroke:#000000;stroke-width:0.8;"/>
      </defs>
      <g>
       <use style="stroke:#000000;stroke-width:0.8;" x="40.377273" xlink:href="#mc07cfdb3bc" y="160.2"/>
      </g>
     </g>
     <g id="text_1">
      <text style="font-family:Latin Modern Math;font-size:10px;font-stretch:normal;font-style:normal;font-weight:normal;text-anchor:middle;" transform="rotate(-0, 40.377273, 174.140625)" x="40.377273" y="174.140625">0</text>
     </g>
    </g>
    <g id="xtick_2">
     <g id="line2d_2">
      <g>
       <use style="stroke:#000000;stroke-width:0.8;" x="80.007955" xlink:href="#mc07cfdb3bc" y="160.2"/>
      </g>
     </g>
     <g id="text_2">
      <text style="font-family:Latin Modern Math;font-size:10px;font-stretch:normal;font-style:normal;font-weight:normal;text-anchor:middle;" transform="rotate(-0, 80.007955, 174.140625)" x="80.007955" y="174.140625">25</text>
     </g>
    </g>
    <g id="xtick_3">
     <g id="line2d_3">
      <g>
       <use style="stroke:#000000;stroke-width:0.8;" x="119.638636" xlink:href="#mc07cfdb3bc" y="160.2"/>
      </g>
     </g>
     <g id="text_3">
      <text style="font-family:Latin Modern Math;font-size:10px;font-stretch:normal;font-style:normal;font-weight:normal;text-anchor:middle;" transform="rotate(-0, 119.638636, 174.140625)" x="119.638636" y="174.140625">50</text>
     </g>
    </g>
    <g id="xtick_4">
     <g id="line2d_4">
      <g>
       <use style="stroke:#000000;stroke-width:0.8;" x="159.269318" xlink:href="#mc07cfdb3bc" y="160.2"/>
      </g>
     </g>
     <g id="text_4">
      <text style="font-family:Latin Modern Math;font-size:10px;font-stretch:normal;font-style:normal;font-weight:normal;text-anchor:middle;" transform="rotate(-0, 159.269318, 174.140625)" x="159.269318" y="174.140625">75</text>
     </g>
    </g>
    <g id="xtick_5">
     <g id="line2d_5">
      <g>
       <use style="stroke:#000000;stroke-width:0.8;" x="198.9" xlink:href="#mc07cfdb3bc" y="160.2"/>
      </g>
     </g>
     <g id="text_5">
      <text style="font-family:Latin Modern Math;font-size:10px;font-stretch:normal;font-style:normal;font-weight:normal;text-anchor:middle;" transform="rotate(-0, 198.9, 174.140625)" x="198.9" y="174.140625">100</text>
     </g>
    </g>
    <g id="text_6">
     <text style="font-family:Latin Modern Math;font-size:10px;font-stretch:normal;font-style:normal;font-weight:normal;text-anchor:middle;" transform="rotate(-0, 129.15, 187.021875)" x="129.15" y="187.021875">episodes</text>
    </g>
   </g>
   <g id="matplotlib.axis_2">
    <g id="ytick_1">
     <g id="line2d_6">
      <defs>
       <path d="M 0 0 
L -3.5 0 
" id="mf00ced4b4d" style="stroke:#000000;stroke-width:0.8;"/>
      </defs>
      <g>
       <use style="stroke:#000000;stroke-width:0.8;" x="31.5" xlink:href="#mf00ced4b4d" y="151.728513"/>
      </g>
     </g>
     <g id="text_7">
      <text style="font-family:Latin Modern Math;font-size:10px;font-stretch:normal;font-style:normal;font-weight:normal;text-anchor:end;" transform="rotate(-0, 24.5, 155.198825)" x="24.5" y="155.198825">0.7</text>
     </g>
    </g>
    <g id="ytick_2">
     <g id="line2d_7">
      <g>
       <use style="stroke:#000000;stroke-width:0.8;" x="31.5" xlink:href="#mf00ced4b4d" y="110.452342"/>
      </g>
     </g>
     <g id="text_8">
      <text style="font-family:Latin Modern Math;font-size:10px;font-stretch:normal;font-style:normal;font-weight:normal;text-anchor:end;" transform="rotate(-0, 24.5, 113.922654)" x="24.5" y="113.922654">0.8</text>
     </g>
    </g>
    <g id="ytick_3">
     <g id="line2d_8">
      <g>
       <use style="stroke:#000000;stroke-width:0.8;" x="31.5" xlink:href="#mf00ced4b4d" y="69.176171"/>
      </g>
     </g>
     <g id="text_9">
      <text style="font-family:Latin Modern Math;font-size:10px;font-stretch:normal;font-style:normal;font-weight:normal;text-anchor:end;" transform="rotate(-0, 24.5, 72.646483)" x="24.5" y="72.646483">0.9</text>
     </g>
    </g>
    <g id="ytick_4">
     <g id="line2d_9">
      <g>
       <use style="stroke:#000000;stroke-width:0.8;" x="31.5" xlink:href="#mf00ced4b4d" y="27.9"/>
      </g>
     </g>
     <g id="text_10">
      <text style="font-family:Latin Modern Math;font-size:10px;font-stretch:normal;font-style:normal;font-weight:normal;text-anchor:end;" transform="rotate(-0, 24.5, 31.370312)" x="24.5" y="31.370312">1.0</text>
     </g>
    </g>
    <g id="text_11">
     <text style="font-family:Latin Modern Math;font-size:10px;font-stretch:normal;font-style:normal;font-weight:normal;text-anchor:middle;" transform="rotate(-90, 5.779687, 90.9)" x="5.779687" y="90.9">means</text>
    </g>
   </g>
   <g id="line2d_10">
    <path clip-path="url(#pb69901ca16)" d="M 40.377273 27.9 
L 41.9625 38.881712 
L 43.547727 43.561096 
L 45.132955 46.036466 
L 46.718182 48.498155 
L 48.303409 50.057942 
L 49.888636 51.628653 
L 51.473864 53.146469 
L 53.059091 55.021062 
L 54.644318 56.560615 
L 56.229545 58.83075 
L 57.814773 60.230509 
L 59.4 62.456752 
L 60.985227 64.090795 
L 62.570455 65.648223 
L 64.155682 67.674156 
L 65.740909 70.149892 
L 67.326136 71.844124 
L 68.911364 73.97376 
L 70.496591 76.454626 
L 72.081818 78.707369 
L 73.667045 80.737373 
L 75.252273 82.738368 
L 76.8375 85.076801 
L 78.422727 86.708629 
L 80.007955 88.05232 
L 81.593182 90.119982 
L 83.178409 92.254936 
L 84.763636 93.949435 
L 86.348864 95.459658 
L 87.934091 97.702629 
L 89.519318 99.618625 
L 91.104545 101.54317 
L 92.689773 103.798699 
L 94.275 105.456871 
L 95.860227 107.832114 
L 97.445455 109.58455 
L 99.030682 111.695901 
L 100.615909 113.739066 
L 102.201136 116.000692 
L 103.786364 118.149407 
L 105.371591 119.715184 
L 106.956818 121.279219 
L 108.542045 123.055571 
L 110.127273 124.985227 
L 111.7125 127.297308 
L 113.297727 129.067768 
L 114.882955 131.098999 
L 116.468182 133.001124 
L 118.053409 134.912256 
L 119.638636 137.597583 
L 121.223864 139.746065 
L 122.809091 141.502958 
L 124.394318 143.442101 
L 125.979545 144.91272 
L 127.564773 146.376554 
L 129.15 147.335662 
L 130.735227 148.529062 
L 132.320455 149.549724 
L 133.905682 149.795916 
L 135.490909 150.255873 
L 137.076136 149.968017 
L 138.661364 150.695368 
L 140.246591 151.403602 
L 141.831818 151.560107 
L 143.417045 151.450836 
L 145.002273 151.960805 
L 146.5875 151.725503 
L 148.172727 151.870773 
L 149.757955 151.910257 
L 151.343182 151.844159 
L 152.928409 152.118402 
L 154.513636 152.284596 
L 156.098864 152.393917 
" style="fill:none;stroke:#0000ff;stroke-linecap:square;stroke-width:1.5;"/>
   </g>
   <g id="line2d_11">
    <path clip-path="url(#pb69901ca16)" d="M 40.377273 27.9 
L 41.9625 39.019938 
L 43.547727 42.018275 
L 45.132955 44.852517 
L 46.718182 47.195712 
L 48.303409 48.429003 
L 49.888636 49.970711 
L 51.473864 51.921 
L 53.059091 53.638138 
L 54.644318 54.963968 
L 56.229545 56.952926 
L 57.814773 59.564129 
L 59.4 61.321215 
L 60.985227 63.135971 
L 62.570455 65.049198 
L 64.155682 66.704878 
L 65.740909 68.699759 
L 67.326136 70.686183 
L 68.911364 72.347008 
L 70.496591 73.774122 
L 72.081818 75.886957 
L 73.667045 77.530512 
L 75.252273 78.906806 
L 76.8375 80.501046 
L 78.422727 82.65628 
L 80.007955 84.659499 
L 81.593182 86.720717 
L 83.178409 88.328911 
L 84.763636 89.933941 
L 86.348864 91.74861 
L 87.934091 93.126297 
L 89.519318 94.873605 
L 91.104545 96.549853 
L 92.689773 98.28851 
L 94.275 100.052424 
L 95.860227 101.811191 
L 97.445455 103.318969 
L 99.030682 105.487241 
L 100.615909 107.296375 
L 102.201136 109.281254 
L 103.786364 111.292832 
L 105.371591 112.810036 
L 106.956818 114.997986 
L 108.542045 116.928675 
L 110.127273 118.621034 
L 111.7125 120.00588 
L 113.297727 122.46537 
L 114.882955 124.160978 
L 116.468182 126.042692 
L 118.053409 127.391229 
L 119.638636 128.978317 
L 121.223864 130.342261 
L 122.809091 132.389265 
L 124.394318 133.792666 
L 125.979545 135.682575 
L 127.564773 136.864816 
L 129.15 138.784079 
L 130.735227 140.587384 
L 132.320455 142.114979 
L 133.905682 144.171807 
L 135.490909 145.586826 
L 137.076136 146.806662 
L 138.661364 147.650341 
L 140.246591 148.214814 
L 141.831818 148.804559 
L 143.417045 150.305522 
L 145.002273 150.987863 
L 146.5875 151.32476 
L 148.172727 151.12831 
L 149.757955 151.767209 
L 151.343182 152.172621 
L 152.928409 152.538117 
L 154.513636 152.248259 
L 156.098864 152.285858 
L 157.684091 152.463513 
L 159.269318 152.629637 
L 160.854545 153.382989 
L 162.439773 153.633428 
L 164.025 152.664441 
L 165.610227 152.339975 
L 167.195455 151.962764 
L 168.780682 152.029823 
L 170.365909 152.02902 
L 171.951136 152.055141 
L 173.536364 151.648017 
L 175.121591 151.752438 
L 176.706818 151.91066 
L 178.292045 151.768854 
L 179.877273 152.363923 
L 181.4625 152.051511 
L 183.047727 152.509029 
L 184.632955 152.400067 
" style="fill:none;stroke:#008000;stroke-linecap:square;stroke-width:1.5;"/>
   </g>
   <g id="line2d_12">
    <path clip-path="url(#pb69901ca16)" d="M 40.377273 27.9 
L 41.9625 39.346244 
L 43.547727 42.948202 
L 45.132955 46.114488 
L 46.718182 46.869191 
L 48.303409 48.896409 
L 49.888636 50.105373 
L 51.473864 51.090028 
L 53.059091 52.602322 
L 54.644318 53.865614 
L 56.229545 55.500839 
L 57.814773 56.957429 
L 59.4 58.505916 
L 60.985227 60.020487 
L 62.570455 61.460164 
L 64.155682 62.934103 
L 65.740909 63.884032 
L 67.326136 65.2621 
L 68.911364 66.283086 
L 70.496591 67.565823 
L 72.081818 68.947295 
L 73.667045 70.056775 
L 75.252273 71.488155 
L 76.8375 72.891594 
L 78.422727 73.535514 
L 80.007955 75.407547 
L 81.593182 77.129571 
L 83.178409 78.463037 
L 84.763636 79.885197 
L 86.348864 81.020314 
L 87.934091 82.395077 
L 89.519318 84.022953 
L 91.104545 85.688761 
L 92.689773 87.302848 
L 94.275 88.791471 
L 95.860227 90.963831 
L 97.445455 92.96637 
L 99.030682 94.685704 
L 100.615909 96.290246 
L 102.201136 97.82917 
L 103.786364 99.418868 
L 105.371591 101.144768 
L 106.956818 102.831314 
L 108.542045 104.005196 
L 110.127273 105.841856 
L 111.7125 107.573375 
L 113.297727 108.471213 
L 114.882955 109.763051 
L 116.468182 110.580414 
L 118.053409 112.128995 
L 119.638636 113.614552 
L 121.223864 115.748058 
L 122.809091 116.906654 
L 124.394318 118.898922 
L 125.979545 120.271679 
L 127.564773 121.95667 
L 129.15 123.290121 
L 130.735227 124.82317 
L 132.320455 126.398504 
L 133.905682 128.323046 
L 135.490909 129.471886 
L 137.076136 130.430134 
L 138.661364 131.830551 
L 140.246591 133.314064 
L 141.831818 134.458641 
L 143.417045 135.431547 
L 145.002273 136.83142 
L 146.5875 138.155563 
L 148.172727 139.519474 
L 149.757955 140.884601 
L 151.343182 142.639575 
L 152.928409 143.507665 
L 154.513636 144.955883 
L 156.098864 146.495664 
L 157.684091 148.096225 
L 159.269318 149.339501 
L 160.854545 150.216657 
L 162.439773 150.435111 
L 164.025 150.69668 
L 165.610227 150.761695 
L 167.195455 151.477526 
L 168.780682 151.379895 
L 170.365909 151.473934 
L 171.951136 151.384532 
L 173.536364 151.510604 
L 175.121591 151.47549 
L 176.706818 151.015938 
L 178.292045 151.274937 
L 179.877273 151.806253 
L 181.4625 150.943467 
L 183.047727 151.440896 
L 184.632955 151.33337 
L 186.218182 151.276332 
L 187.803409 151.665686 
L 189.388636 151.765415 
L 190.973864 151.512011 
L 192.559091 151.673891 
L 194.144318 151.966341 
L 195.729545 152.230313 
L 197.314773 152.826399 
L 198.9 153.857886 
L 200.485227 153.816583 
L 202.070455 153.9 
L 203.655682 152.993712 
L 205.240909 152.654528 
L 206.826136 153.424731 
L 208.411364 153.258347 
L 209.996591 153.13542 
L 211.581818 152.936986 
L 213.167045 152.658459 
L 214.752273 152.478163 
L 216.3375 152.426544 
L 217.922727 153.285899 
" style="fill:none;stroke:#ff0000;stroke-linecap:square;stroke-width:1.5;"/>
   </g>
   <g id="patch_3">
    <path d="M 31.5 160.2 
L 31.5 21.6 
" style="fill:none;stroke:#000000;stroke-linecap:square;stroke-linejoin:miter;stroke-width:0.8;"/>
   </g>
   <g id="patch_4">
    <path d="M 226.8 160.2 
L 226.8 21.6 
" style="fill:none;stroke:#000000;stroke-linecap:square;stroke-linejoin:miter;stroke-width:0.8;"/>
   </g>
   <g id="patch_5">
    <path d="M 31.5 160.2 
L 226.8 160.2 
" style="fill:none;stroke:#000000;stroke-linecap:square;stroke-linejoin:miter;stroke-width:0.8;"/>
   </g>
   <g id="patch_6">
    <path d="M 31.5 21.6 
L 226.8 21.6 
" style="fill:none;stroke:#000000;stroke-linecap:square;stroke-linejoin:miter;stroke-width:0.8;"/>
   </g>
   <g id="legend_1">
    <g id="patch_7">
     <path d="M 117.4 71.421875 
L 219.8 71.421875 
Q 221.8 71.421875 221.8 69.421875 
L 221.8 28.6 
Q 221.8 26.6 219.8 26.6 
L 117.4 26.6 
Q 115.4 26.6 115.4 28.6 
L 115.4 69.421875 
Q 115.4 71.421875 117.4 71.421875 
z
" style="fill:#ffffff;opacity:0.8;stroke:#cccccc;stroke-linejoin:miter;"/>
    </g>
    <g id="patch_8">
     <path d="M 119.4 37.6 
L 139.4 37.6 
L 139.4 30.6 
L 119.4 30.6 
z
" style="fill:#0000ff;stroke:#0000ff;stroke-linejoin:miter;"/>
    </g>
    <g id="text_12">
     <text style="font-family:Latin Modern Math;font-size:10px;font-stretch:normal;font-style:normal;font-weight:normal;text-anchor:start;" transform="rotate(-0, 147.4, 37.6)" x="147.4" y="37.6">means_vars_10_0</text>
    </g>
    <g id="patch_9">
     <path d="M 119.4 51.540625 
L 139.4 51.540625 
L 139.4 44.540625 
L 119.4 44.540625 
z
" style="fill:#008000;stroke:#008000;stroke-linejoin:miter;"/>
    </g>
    <g id="text_13">
     <text style="font-family:Latin Modern Math;font-size:10px;font-stretch:normal;font-style:normal;font-weight:normal;text-anchor:start;" transform="rotate(-0, 147.4, 51.540625)" x="147.4" y="51.540625">means_vars_9_1</text>
    </g>
    <g id="patch_10">
     <path d="M 119.4 65.48125 
L 139.4 65.48125 
L 139.4 58.48125 
L 119.4 58.48125 
z
" style="fill:#ff0000;stroke:#ff0000;stroke-linejoin:miter;"/>
    </g>
    <g id="text_14">
     <text style="font-family:Latin Modern Math;font-size:10px;font-stretch:normal;font-style:normal;font-weight:normal;text-anchor:start;" transform="rotate(-0, 147.4, 65.48125)" x="147.4" y="65.48125">means_vars_7_3</text>
    </g>
   </g>
  </g>
 </g>
 <defs>
  <clipPath id="pb69901ca16">
   <rect height="138.6" width="195.3" x="31.5" y="21.6"/>
  </clipPath>
 </defs>
</svg>
