<?xml version="1.0" encoding="utf-8" standalone="no"?>
<!DOCTYPE svg PUBLIC "-//W3C//DTD SVG 1.1//EN"
  "http://www.w3.org/Graphics/SVG/1.1/DTD/svg11.dtd">
<svg height="180pt" version="1.1" viewBox="0 0 252 180" width="252pt" xmlns="http://www.w3.org/2000/svg" xmlns:xlink="http://www.w3.org/1999/xlink">
 <metadata>
  <rdf:RDF xmlns:cc="http://creativecommons.org/ns#" xmlns:dc="http://purl.org/dc/elements/1.1/" xmlns:rdf="http://www.w3.org/1999/02/22-rdf-syntax-ns#">
   <cc:Work>
    <dc:type rdf:resource="http://purl.org/dc/dcmitype/StillImage"/>
    <dc:date>2022-02-23T22:18:45.640746</dc:date>
    <dc:format>image/svg+xml</dc:format>
    <dc:creator>
     <cc:Agent>
      <dc:title>Matplotlib v3.4.3, https://matplotlib.org/</dc:title>
     </cc:Agent>
    </dc:creator>
   </cc:Work>
  </rdf:RDF>
 </metadata>
 <defs>
  <style type="text/css">*{stroke-linecap:butt;stroke-linejoin:round;}</style>
 </defs>
 <g id="figure_1">
  <g id="patch_1">
   <path d="M 0 180 
L 252 180 
L 252 0 
L 0 0 
z
" style="fill:#ffffff;"/>
  </g>
  <g id="axes_1">
   <g id="patch_2">
    <path d="M 31.5 160.2 
L 226.8 160.2 
L 226.8 21.6 
L 31.5 21.6 
z
" style="fill:#ffffff;"/>
   </g>
   <g id="matplotlib.axis_1">
    <g id="xtick_1">
     <g id="line2d_1">
      <defs>
       <path d="M 0 0 
L 0 3.5 
" id="m891f2dfd40" style="stroke:#000000;stroke-width:0.8;"/>
      </defs>
      <g>
       <use style="stroke:#000000;stroke-width:0.8;" x="40.377273" xlink:href="#m891f2dfd40" y="160.2"/>
      </g>
     </g>
     <g id="text_1">
      <text style="font-family:DejaVu Sans;font-size:10px;font-stretch:normal;font-style:normal;font-weight:normal;text-anchor:middle;" transform="rotate(-0, 40.377273, 174.798438)" x="40.377273" y="174.798438">0</text>
     </g>
    </g>
    <g id="xtick_2">
     <g id="line2d_2">
      <g>
       <use style="stroke:#000000;stroke-width:0.8;" x="76.611039" xlink:href="#m891f2dfd40" y="160.2"/>
      </g>
     </g>
     <g id="text_2">
      <text style="font-family:DejaVu Sans;font-size:10px;font-stretch:normal;font-style:normal;font-weight:normal;text-anchor:middle;" transform="rotate(-0, 76.611039, 174.798438)" x="76.611039" y="174.798438">2000</text>
     </g>
    </g>
    <g id="xtick_3">
     <g id="line2d_3">
      <g>
       <use style="stroke:#000000;stroke-width:0.8;" x="112.844805" xlink:href="#m891f2dfd40" y="160.2"/>
      </g>
     </g>
     <g id="text_3">
      <text style="font-family:DejaVu Sans;font-size:10px;font-stretch:normal;font-style:normal;font-weight:normal;text-anchor:middle;" transform="rotate(-0, 112.844805, 174.798438)" x="112.844805" y="174.798438">4000</text>
     </g>
    </g>
    <g id="xtick_4">
     <g id="line2d_4">
      <g>
       <use style="stroke:#000000;stroke-width:0.8;" x="149.078571" xlink:href="#m891f2dfd40" y="160.2"/>
      </g>
     </g>
     <g id="text_4">
      <text style="font-family:DejaVu Sans;font-size:10px;font-stretch:normal;font-style:normal;font-weight:normal;text-anchor:middle;" transform="rotate(-0, 149.078571, 174.798438)" x="149.078571" y="174.798438">6000</text>
     </g>
    </g>
    <g id="xtick_5">
     <g id="line2d_5">
      <g>
       <use style="stroke:#000000;stroke-width:0.8;" x="185.312338" xlink:href="#m891f2dfd40" y="160.2"/>
      </g>
     </g>
     <g id="text_5">
      <text style="font-family:DejaVu Sans;font-size:10px;font-stretch:normal;font-style:normal;font-weight:normal;text-anchor:middle;" transform="rotate(-0, 185.312338, 174.798438)" x="185.312338" y="174.798438">8000</text>
     </g>
    </g>
    <g id="xtick_6">
     <g id="line2d_6">
      <g>
       <use style="stroke:#000000;stroke-width:0.8;" x="221.546104" xlink:href="#m891f2dfd40" y="160.2"/>
      </g>
     </g>
     <g id="text_6">
      <text style="font-family:DejaVu Sans;font-size:10px;font-stretch:normal;font-style:normal;font-weight:normal;text-anchor:middle;" transform="rotate(-0, 221.546104, 174.798438)" x="221.546104" y="174.798438">10000</text>
     </g>
    </g>
    <g id="text_7">
     <text style="font-family:DejaVu Sans;font-size:10px;font-stretch:normal;font-style:normal;font-weight:normal;text-anchor:middle;" transform="rotate(-0, 129.15, 188.476562)" x="129.15" y="188.476562">episodes</text>
    </g>
   </g>
   <g id="matplotlib.axis_2">
    <g id="ytick_1">
     <g id="line2d_7">
      <defs>
       <path d="M 0 0 
L -3.5 0 
" id="mb030814187" style="stroke:#000000;stroke-width:0.8;"/>
      </defs>
      <g>
       <use style="stroke:#000000;stroke-width:0.8;" x="31.5" xlink:href="#mb030814187" y="130.757143"/>
      </g>
     </g>
     <g id="text_8">
      <text style="font-family:DejaVu Sans;font-size:10px;font-stretch:normal;font-style:normal;font-weight:normal;text-anchor:end;" transform="rotate(-0, 24.5, 134.556362)" x="24.5" y="134.556362">0.4</text>
     </g>
    </g>
    <g id="ytick_2">
     <g id="line2d_8">
      <g>
       <use style="stroke:#000000;stroke-width:0.8;" x="31.5" xlink:href="#mb030814187" y="96.471429"/>
      </g>
     </g>
     <g id="text_9">
      <text style="font-family:DejaVu Sans;font-size:10px;font-stretch:normal;font-style:normal;font-weight:normal;text-anchor:end;" transform="rotate(-0, 24.5, 100.270647)" x="24.5" y="100.270647">0.6</text>
     </g>
    </g>
    <g id="ytick_3">
     <g id="line2d_9">
      <g>
       <use style="stroke:#000000;stroke-width:0.8;" x="31.5" xlink:href="#mb030814187" y="62.185714"/>
      </g>
     </g>
     <g id="text_10">
      <text style="font-family:DejaVu Sans;font-size:10px;font-stretch:normal;font-style:normal;font-weight:normal;text-anchor:end;" transform="rotate(-0, 24.5, 65.984933)" x="24.5" y="65.984933">0.8</text>
     </g>
    </g>
    <g id="ytick_4">
     <g id="line2d_10">
      <g>
       <use style="stroke:#000000;stroke-width:0.8;" x="31.5" xlink:href="#mb030814187" y="27.9"/>
      </g>
     </g>
     <g id="text_11">
      <text style="font-family:DejaVu Sans;font-size:10px;font-stretch:normal;font-style:normal;font-weight:normal;text-anchor:end;" transform="rotate(-0, 24.5, 31.699219)" x="24.5" y="31.699219">1.0</text>
     </g>
    </g>
    <g id="text_12">
     <text style="font-family:DejaVu Sans;font-size:10px;font-stretch:normal;font-style:normal;font-weight:normal;text-anchor:middle;" transform="rotate(-90, 2.239062, 90.9)" x="2.239062" y="90.9">sucess_rate</text>
    </g>
   </g>
   <g id="line2d_11">
    <path clip-path="url(#pbfc5bda660)" d="M 40.377273 108.471429 
L 40.39539 108.471429 
L 40.576558 112.757143 
L 40.703377 109.328571 
L 40.73961 110.185714 
L 40.793961 110.185714 
L 40.848312 109.328571 
L 40.884545 110.185714 
L 40.920779 111.042857 
L 40.993247 110.185714 
L 41.065714 108.471429 
L 41.101948 110.185714 
L 41.174416 110.185714 
L 41.283117 111.042857 
L 41.319351 110.185714 
L 41.373701 111.042857 
L 41.591104 116.185714 
L 41.772273 111.042857 
L 41.79039 111.9 
L 41.826623 111.9 
L 41.935325 110.185714 
L 41.953442 111.042857 
L 41.971558 111.042857 
L 42.062143 112.757143 
L 42.08026 111.9 
L 42.152727 110.185714 
L 42.207078 111.042857 
L 42.37013 113.614286 
L 42.424481 113.614286 
L 42.587532 116.185714 
L 42.605649 116.185714 
L 42.804935 111.9 
L 42.877403 111.9 
L 42.986104 114.471429 
L 43.004221 113.614286 
L 43.149156 111.9 
L 43.23974 111.9 
L 43.420909 115.328571 
L 43.439026 115.328571 
L 43.565844 118.757143 
L 43.583961 117.9 
L 43.76513 114.471429 
L 43.855714 117.042857 
L 43.910065 116.185714 
L 43.946299 114.471429 
L 44.000649 116.185714 
L 44.055 117.042857 
L 44.091234 116.185714 
L 44.218052 113.614286 
L 44.236169 114.471429 
L 44.326753 117.042857 
L 44.362987 115.328571 
L 44.417338 113.614286 
L 44.471688 115.328571 
L 44.489805 115.328571 
L 44.544156 113.614286 
L 44.616623 114.471429 
L 44.652857 114.471429 
L 44.689091 115.328571 
L 44.725325 113.614286 
L 44.761558 114.471429 
L 44.834026 113.614286 
L 44.87026 114.471429 
L 44.906494 114.471429 
L 45.015195 115.328571 
L 45.069545 114.471429 
L 45.105779 115.328571 
L 45.16013 116.185714 
L 45.196364 115.328571 
L 45.214481 114.471429 
L 45.250714 116.185714 
L 45.268831 116.185714 
L 45.431883 118.757143 
L 45.45 118.757143 
L 45.558701 121.328571 
L 45.594935 120.471429 
L 45.631169 120.471429 
L 45.649286 119.614286 
L 45.73987 120.471429 
L 45.812338 121.328571 
L 45.830455 120.471429 
L 46.011623 117.042857 
L 46.138442 117.9 
L 46.229026 117.042857 
L 46.247143 117.9 
L 46.301494 117.9 
L 46.500779 123.042857 
L 46.55513 121.328571 
L 46.609481 122.185714 
L 46.826883 127.328571 
L 46.845 127.328571 
L 46.971818 128.185714 
L 46.989935 128.185714 
L 47.152987 125.614286 
L 47.189221 125.614286 
L 47.334156 127.328571 
L 47.352273 127.328571 
L 47.515325 129.9 
L 47.533442 129.9 
L 47.587792 131.614286 
L 47.642143 129.9 
L 47.678377 129.9 
L 47.841429 133.328571 
L 47.895779 132.471429 
L 47.932013 133.328571 
L 48.076948 135.042857 
L 48.149416 135.042857 
L 48.348701 139.328571 
L 48.384935 139.328571 
L 48.547987 141.9 
L 48.566104 141.9 
L 48.729156 144.471429 
L 48.747273 144.471429 
L 48.874091 143.614286 
L 48.946558 143.614286 
L 49.073377 146.185714 
L 49.091494 145.328571 
L 49.10961 144.471429 
L 49.145844 146.185714 
L 49.163961 146.185714 
L 49.34513 149.614286 
L 49.399481 149.614286 
L 49.562532 153.042857 
L 49.707468 151.328571 
L 49.725584 151.328571 
L 49.779935 153.042857 
L 49.852403 152.185714 
L 49.92487 153.042857 
L 50.015455 149.614286 
L 50.051688 149.614286 
L 50.106039 147.9 
L 50.16039 149.614286 
L 50.21474 149.614286 
L 50.305325 152.185714 
L 50.341558 151.328571 
L 50.486494 148.757143 
L 50.540844 149.614286 
L 50.577078 147.9 
L 50.595195 148.757143 
L 50.667662 148.757143 
L 50.685779 147.9 
L 50.722013 149.614286 
L 50.758247 149.614286 
L 50.939416 153.042857 
L 50.957532 153.042857 
L 50.993766 153.9 
L 51.048117 152.185714 
L 51.084351 152.185714 
L 51.138701 153.042857 
L 51.211169 151.328571 
L 51.374221 153.9 
L 51.464805 150.471429 
L 51.537273 151.328571 
L 51.573506 151.328571 
L 51.700325 153.042857 
L 51.84526 151.328571 
L 51.881494 151.328571 
L 51.972078 153.042857 
L 52.008312 152.185714 
L 52.026429 152.185714 
L 52.207597 148.757143 
L 52.243831 148.757143 
L 52.298182 146.185714 
L 52.388766 147.042857 
L 52.443117 147.042857 
L 52.551818 147.9 
L 52.696753 144.471429 
L 52.71487 145.328571 
L 52.823571 145.328571 
L 52.932273 146.185714 
L 52.986623 147.042857 
L 53.113442 142.757143 
L 53.149675 142.757143 
L 53.204026 143.614286 
L 53.24026 141.9 
L 53.312727 141.9 
L 53.367078 142.757143 
L 53.403312 141.042857 
L 53.421429 141.042857 
L 53.566364 138.471429 
L 53.747532 143.614286 
L 53.765649 142.757143 
L 53.801883 142.757143 
L 53.928701 140.185714 
L 53.946818 141.042857 
L 53.983052 141.042857 
L 54.019286 139.328571 
L 54.091753 141.042857 
L 54.10987 141.042857 
L 54.182338 139.328571 
L 54.236688 140.185714 
L 54.34539 141.042857 
L 54.599026 134.185714 
L 54.63526 134.185714 
L 54.834545 138.471429 
L 54.92513 138.471429 
L 54.997597 137.614286 
L 55.033831 138.471429 
L 55.088182 140.185714 
L 55.160649 139.328571 
L 55.196883 139.328571 
L 55.359935 136.757143 
L 55.396169 136.757143 
L 55.595455 130.757143 
L 55.613571 131.614286 
L 55.649805 131.614286 
L 55.667922 132.471429 
L 55.704156 130.757143 
L 55.74039 130.757143 
L 55.812857 130.757143 
L 55.939675 133.328571 
L 55.957792 132.471429 
L 56.012143 132.471429 
L 56.175195 129.042857 
L 56.283896 132.471429 
L 56.32013 130.757143 
L 56.338247 130.757143 
L 56.356364 131.614286 
L 56.392597 129.9 
L 56.428831 129.9 
L 56.465065 129.9 
L 56.555649 129.042857 
L 56.573766 129.9 
L 56.591883 129.9 
L 56.718701 129.042857 
L 56.89987 132.471429 
L 57.008571 129.9 
L 57.044805 130.757143 
L 57.18974 133.328571 
L 57.370909 129.9 
L 57.533961 132.471429 
L 57.570195 132.471429 
L 57.697013 134.185714 
L 57.733247 133.328571 
L 57.769481 135.042857 
L 57.787597 134.185714 
L 57.805714 135.042857 
L 57.841948 133.328571 
L 57.896299 134.185714 
L 57.968766 133.328571 
L 58.005 134.185714 
L 58.041234 134.185714 
L 58.186169 135.9 
L 58.367338 135.9 
L 58.548506 132.471429 
L 58.620974 132.471429 
L 58.802143 129.042857 
L 58.82026 129.042857 
L 58.838377 129.9 
L 58.910844 128.185714 
L 59.055779 126.471429 
L 59.073896 126.471429 
L 59.092013 125.614286 
L 59.146364 127.328571 
L 59.164481 127.328571 
L 59.182597 128.185714 
L 59.236948 126.471429 
L 59.255065 126.471429 
L 59.291299 126.471429 
L 59.418117 127.328571 
L 59.472468 127.328571 
L 59.617403 125.614286 
L 59.671753 126.471429 
L 59.726104 125.614286 
L 59.744221 125.614286 
L 59.798571 126.471429 
L 59.834805 124.757143 
L 59.97974 122.185714 
L 60.034091 123.9 
L 60.106558 123.042857 
L 60.21526 120.471429 
L 60.251494 121.328571 
L 60.305844 121.328571 
L 60.414545 123.042857 
L 60.432662 122.185714 
L 60.468896 121.328571 
L 60.523247 123.042857 
L 60.668182 125.614286 
L 60.813117 123.9 
L 60.867468 125.614286 
L 60.921818 123.9 
L 60.958052 123.9 
L 61.121104 121.328571 
L 61.139221 122.185714 
L 61.193571 120.471429 
L 61.392857 115.328571 
L 61.555909 117.9 
L 61.61026 117.042857 
L 61.646494 118.757143 
L 61.682727 118.757143 
L 61.827662 117.042857 
L 61.90013 117.042857 
L 62.117532 111.9 
L 62.153766 111.9 
L 62.298701 114.471429 
L 62.461753 111.042857 
L 62.787857 121.328571 
L 62.805974 121.328571 
L 62.860325 123.042857 
L 62.932792 122.185714 
L 62.950909 122.185714 
L 62.987143 123.042857 
L 63.041494 121.328571 
L 63.095844 121.328571 
L 63.113961 122.185714 
L 63.186429 120.471429 
L 63.204545 120.471429 
L 63.29513 117.042857 
L 63.349481 117.9 
L 63.530649 122.185714 
L 63.603117 123.042857 
L 63.657468 120.471429 
L 63.820519 123.042857 
L 63.838636 123.042857 
L 64.037922 118.757143 
L 64.11039 119.614286 
L 64.128506 118.757143 
L 64.309675 114.471429 
L 64.364026 115.328571 
L 64.40026 113.614286 
L 64.418377 114.471429 
L 64.45461 114.471429 
L 64.563312 113.614286 
L 64.635779 112.757143 
L 64.69013 114.471429 
L 64.835065 112.757143 
L 64.907532 112.757143 
L 65.016234 116.185714 
L 65.052468 114.471429 
L 65.233636 111.042857 
L 65.26987 111.042857 
L 65.378571 112.757143 
L 65.396688 111.9 
L 65.595974 107.614286 
L 65.777143 113.614286 
L 65.813377 112.757143 
L 65.922078 111.042857 
L 65.940195 111.9 
L 66.048896 112.757143 
L 66.193831 111.042857 
L 66.266299 111.9 
L 66.302532 111.042857 
L 66.320649 111.042857 
L 66.538052 105.9 
L 66.556169 105.9 
L 66.610519 105.042857 
L 66.682987 106.757143 
L 66.809805 105.9 
L 66.846039 105.9 
L 66.918506 107.614286 
L 66.95474 105.9 
L 66.972857 105.9 
L 67.063442 103.328571 
L 67.099675 104.185714 
L 67.117792 105.042857 
L 67.154026 103.328571 
L 67.208377 104.185714 
L 67.226494 104.185714 
L 67.353312 105.042857 
L 67.371429 105.042857 
L 67.462013 103.328571 
L 67.48013 104.185714 
L 67.661299 107.614286 
L 67.697532 107.614286 
L 67.733766 106.757143 
L 67.77 108.471429 
L 67.788117 109.328571 
L 67.878701 108.471429 
L 68.023636 106.757143 
L 68.041753 106.757143 
L 68.150455 110.185714 
L 68.204805 109.328571 
L 68.241039 109.328571 
L 68.259156 110.185714 
L 68.313506 108.471429 
L 68.331623 108.471429 
L 68.367857 108.471429 
L 68.530909 111.9 
L 68.63961 108.471429 
L 68.675844 110.185714 
L 68.784545 111.9 
L 68.802662 111.042857 
L 68.929481 108.471429 
L 68.947597 109.328571 
L 69.020065 109.328571 
L 69.146883 110.185714 
L 69.291818 108.471429 
L 69.382403 108.471429 
L 69.418636 107.614286 
L 69.45487 109.328571 
L 69.472987 109.328571 
L 69.545455 110.185714 
L 69.581688 109.328571 
L 69.599805 109.328571 
L 69.654156 108.471429 
L 69.69039 110.185714 
L 69.708506 109.328571 
L 69.726623 109.328571 
L 69.853442 108.471429 
L 69.907792 108.471429 
L 70.052727 105.9 
L 70.161429 107.614286 
L 70.179545 106.757143 
L 70.27013 106.757143 
L 70.396948 105.9 
L 70.578117 109.328571 
L 70.632468 109.328571 
L 70.759286 110.185714 
L 70.777403 110.185714 
L 70.940455 107.614286 
L 71.049156 108.471429 
L 71.266558 102.471429 
L 71.339026 105.042857 
L 71.393377 103.328571 
L 71.411494 102.471429 
L 71.483961 104.185714 
L 71.647013 109.328571 
L 71.683247 108.471429 
L 71.828182 106.757143 
L 71.900649 106.757143 
L 72.063701 104.185714 
L 72.208636 105.9 
L 72.262987 105.9 
L 72.317338 103.328571 
L 72.371688 105.9 
L 72.389805 105.9 
L 72.53474 104.185714 
L 72.552857 105.042857 
L 72.625325 103.328571 
L 72.643442 104.185714 
L 72.661558 104.185714 
L 72.734026 105.042857 
L 72.77026 104.185714 
L 72.842727 104.185714 
L 72.969545 105.042857 
L 72.987662 105.042857 
L 73.168831 101.614286 
L 73.277532 102.471429 
L 73.404351 101.614286 
L 73.458701 101.614286 
L 73.567403 100.757143 
L 73.676104 101.614286 
L 73.857273 98.185714 
L 73.984091 98.185714 
L 74.020325 99.042857 
L 74.092792 98.185714 
L 74.21961 97.328571 
L 74.255844 98.185714 
L 74.292078 96.471429 
L 74.310195 96.471429 
L 74.346429 95.614286 
L 74.400779 97.328571 
L 74.437013 97.328571 
L 74.545714 98.185714 
L 74.690649 95.614286 
L 74.781234 98.185714 
L 74.835584 97.328571 
L 74.871818 97.328571 
L 74.998636 98.185714 
L 75.016753 98.185714 
L 75.03487 99.042857 
L 75.107338 97.328571 
L 75.306623 91.328571 
L 75.32474 92.185714 
L 75.342857 92.185714 
L 75.397208 90.471429 
L 75.451558 92.185714 
L 75.487792 92.185714 
L 75.668961 88.757143 
L 75.705195 88.757143 
L 75.832013 87.9 
L 75.922597 87.9 
L 75.940714 88.757143 
L 75.995065 87.042857 
L 76.031299 87.9 
L 76.049416 87.9 
L 76.176234 86.185714 
L 76.339286 88.757143 
L 76.357403 87.9 
L 76.411753 89.614286 
L 76.447987 88.757143 
L 76.466104 88.757143 
L 76.629156 86.185714 
L 76.647273 86.185714 
L 76.683506 84.471429 
L 76.737857 86.185714 
L 76.900909 88.757143 
L 77.027727 88.757143 
L 77.045844 89.614286 
L 77.118312 87.9 
L 77.136429 88.757143 
L 77.154545 88.757143 
L 77.190779 89.614286 
L 77.263247 88.757143 
L 77.317597 88.757143 
L 77.498766 93.9 
L 77.516883 93.042857 
L 77.535 93.042857 
L 77.661818 91.328571 
L 77.679935 92.185714 
L 77.770519 91.328571 
L 77.788636 91.328571 
L 77.861104 89.614286 
L 77.915455 90.471429 
L 77.951688 90.471429 
L 78.078506 89.614286 
L 78.169091 89.614286 
L 78.259675 91.328571 
L 78.295909 90.471429 
L 78.332143 90.471429 
L 78.458961 91.328571 
L 78.694481 85.328571 
L 78.712597 85.328571 
L 78.839416 87.9 
L 78.857532 87.042857 
L 78.893766 87.042857 
L 79.074935 83.614286 
L 79.183636 83.614286 
L 79.310455 85.328571 
L 79.473506 82.757143 
L 79.582208 83.614286 
L 79.727143 81.9 
L 79.79961 81.9 
L 79.962662 79.328571 
L 80.089481 80.185714 
L 80.143831 80.185714 
L 80.161948 79.328571 
L 80.252532 80.185714 
L 80.325 82.757143 
L 80.361234 81.042857 
L 80.524286 78.471429 
L 80.542403 78.471429 
L 80.669221 77.614286 
L 80.723571 77.614286 
L 80.777922 78.471429 
L 80.832273 77.614286 
L 80.90474 77.614286 
L 81.122143 72.471429 
L 81.212727 71.614286 
L 81.248961 73.328571 
L 81.375779 73.328571 
L 81.520714 71.614286 
L 81.538831 71.614286 
L 81.593182 72.471429 
L 81.629416 70.757143 
L 81.828701 66.471429 
L 81.937403 67.328571 
L 82.118571 63.9 
L 82.154805 63.9 
L 82.29974 65.614286 
L 82.317857 65.614286 
L 82.372208 66.471429 
L 82.426558 65.614286 
L 82.499026 65.614286 
L 82.625844 67.328571 
L 82.680195 66.471429 
L 82.734545 67.328571 
L 82.807013 67.328571 
L 82.915714 65.614286 
L 82.933831 66.471429 
L 83.096883 66.471429 
L 83.241818 64.757143 
L 83.296169 64.757143 
L 83.459221 70.757143 
L 83.495455 69.9 
L 83.658506 67.328571 
L 83.676623 67.328571 
L 83.803442 66.471429 
L 83.875909 68.185714 
L 83.912143 66.471429 
L 84.057078 64.757143 
L 84.075195 64.757143 
L 84.129545 63.9 
L 84.183896 64.757143 
L 84.202013 64.757143 
L 84.292597 63.9 
L 84.310714 64.757143 
L 84.365065 64.757143 
L 84.383182 63.9 
L 84.419416 65.614286 
L 84.437532 65.614286 
L 84.564351 66.471429 
L 84.582468 66.471429 
L 84.600584 65.614286 
L 84.691169 66.471429 
L 84.709286 67.328571 
L 84.763636 65.614286 
L 84.79987 66.471429 
L 84.817987 66.471429 
L 84.854221 67.328571 
L 84.908571 66.471429 
L 84.999156 65.614286 
L 85.017273 66.471429 
L 85.08974 66.471429 
L 85.107857 67.328571 
L 85.180325 65.614286 
L 85.198442 66.471429 
L 85.216558 66.471429 
L 85.289026 67.328571 
L 85.32526 66.471429 
L 85.343377 66.471429 
L 85.488312 68.185714 
L 85.542662 68.185714 
L 85.669481 67.328571 
L 85.687597 68.185714 
L 85.778182 67.328571 
L 85.868766 65.614286 
L 85.905 66.471429 
L 85.941234 66.471429 
L 86.104286 63.9 
L 86.122403 63.9 
L 86.267338 61.328571 
L 86.394156 62.185714 
L 86.48474 62.185714 
L 86.539091 63.042857 
L 86.593442 62.185714 
L 86.72026 62.185714 
L 86.792727 63.042857 
L 86.828961 62.185714 
L 86.847078 62.185714 
L 86.919545 63.9 
L 86.955779 62.185714 
L 87.082597 58.757143 
L 87.118831 59.614286 
L 87.191299 59.614286 
L 87.263766 58.757143 
L 87.3 59.614286 
L 87.318117 59.614286 
L 87.481169 57.042857 
L 87.58987 57.042857 
L 87.716688 56.185714 
L 87.752922 56.185714 
L 87.934091 52.757143 
L 87.970325 53.614286 
L 88.024675 51.9 
L 88.11526 50.185714 
L 88.133377 51.042857 
L 88.278312 52.757143 
L 88.314545 52.757143 
L 88.477597 50.185714 
L 88.495714 50.185714 
L 88.622532 52.757143 
L 88.640649 51.9 
L 88.695 51.9 
L 88.803701 52.757143 
L 88.930519 51.042857 
L 88.966753 52.757143 
L 89.057338 51.9 
L 89.202273 50.185714 
L 89.256623 50.185714 
L 89.292857 51.042857 
L 89.365325 50.185714 
L 89.401558 50.185714 
L 89.56461 52.757143 
L 89.582727 52.757143 
L 89.727662 54.471429 
L 89.890714 54.471429 
L 90.017532 53.614286 
L 90.108117 53.614286 
L 90.126234 52.757143 
L 90.162468 54.471429 
L 90.198701 54.471429 
L 90.253052 54.471429 
L 90.343636 55.328571 
L 90.361753 54.471429 
L 90.470455 54.471429 
L 90.61539 52.757143 
L 90.66974 52.757143 
L 90.814675 51.042857 
L 90.887143 51.042857 
L 91.013961 50.185714 
L 91.068312 50.185714 
L 91.213247 51.9 
L 91.557468 51.9 
L 91.593701 51.042857 
L 91.648052 52.757143 
L 91.738636 52.757143 
L 91.919805 49.328571 
L 91.956039 49.328571 
L 92.046623 51.042857 
L 92.082857 50.185714 
L 92.119091 50.185714 
L 92.264026 48.471429 
L 92.408961 50.185714 
L 92.463312 50.185714 
L 92.553896 51.9 
L 92.572013 51.042857 
L 92.644481 50.185714 
L 92.680714 51.042857 
L 92.716948 51.042857 
L 92.843766 51.9 
L 92.88 51.9 
L 92.934351 51.042857 
L 92.988701 51.9 
L 93.061169 51.9 
L 93.260455 47.614286 
L 93.332922 47.614286 
L 93.495974 50.185714 
L 93.532208 50.185714 
L 93.659026 49.328571 
L 93.713377 49.328571 
L 93.74961 50.185714 
L 93.785844 48.471429 
L 93.803961 48.471429 
L 93.98513 48.471429 
L 94.130065 50.185714 
L 94.148182 50.185714 
L 94.275 51.042857 
L 94.419935 51.042857 
L 94.56487 52.757143 
L 94.619221 52.757143 
L 94.691688 53.614286 
L 94.709805 52.757143 
L 94.85474 51.042857 
L 95.035909 51.042857 
L 95.180844 52.757143 
L 95.217078 52.757143 
L 95.343896 51.9 
L 95.38013 51.9 
L 95.525065 53.614286 
L 95.579416 53.614286 
L 95.724351 51.9 
L 95.778701 51.9 
L 95.851169 52.757143 
L 95.887403 51.9 
L 96.050455 49.328571 
L 96.086688 49.328571 
L 96.231623 47.614286 
L 96.267857 47.614286 
L 96.412792 45.9 
L 96.449026 45.9 
L 96.557727 46.757143 
L 96.684545 45.9 
L 96.793247 45.9 
L 96.956299 49.328571 
L 96.992532 48.471429 
L 97.028766 50.185714 
L 97.065 51.042857 
L 97.119351 49.328571 
L 97.209935 49.328571 
L 97.336753 51.042857 
L 97.391104 50.185714 
L 97.445455 51.042857 
L 97.463571 51.042857 
L 97.536039 51.9 
L 97.572273 51.042857 
L 97.608506 51.042857 
L 97.735325 50.185714 
L 97.771558 50.185714 
L 97.825909 49.328571 
L 97.88026 50.185714 
L 97.93461 50.185714 
L 98.043312 51.9 
L 98.061429 51.042857 
L 98.133896 51.042857 
L 98.242597 51.9 
L 98.296948 51.042857 
L 98.351299 51.9 
L 98.532468 51.9 
L 98.659286 54.471429 
L 98.677403 53.614286 
L 98.731753 53.614286 
L 98.858571 52.757143 
L 98.876688 52.757143 
L 98.931039 51.9 
L 98.98539 52.757143 
L 99.003506 52.757143 
L 99.148442 51.042857 
L 99.220909 51.042857 
L 99.347727 51.9 
L 99.402078 51.9 
L 99.528896 51.042857 
L 99.601364 51.042857 
L 99.619481 50.185714 
L 99.710065 51.042857 
L 100.14487 51.042857 
L 100.271688 52.757143 
L 100.289805 51.9 
L 100.38039 52.757143 
L 100.416623 54.471429 
L 100.470974 52.757143 
L 100.597792 51.9 
L 100.615909 51.9 
L 100.742727 50.185714 
L 100.869545 51.042857 
L 100.923896 51.042857 
L 101.068831 49.328571 
L 101.123182 49.328571 
L 101.213766 48.471429 
L 101.231883 49.328571 
L 101.449286 49.328571 
L 101.594221 47.614286 
L 101.702922 47.614286 
L 101.757273 48.471429 
L 101.793506 47.614286 
L 101.938442 45.9 
L 102.155844 45.9 
L 102.282662 45.042857 
L 102.536299 45.042857 
L 102.554416 45.9 
L 102.645 45.042857 
L 102.844286 45.042857 
L 102.971104 44.185714 
L 103.242857 44.185714 
L 103.369675 43.328571 
L 103.51461 43.328571 
L 103.641429 44.185714 
L 103.695779 44.185714 
L 103.858831 41.614286 
L 103.913182 41.614286 
L 104.058117 39.9 
L 104.130584 39.9 
L 104.148701 39.042857 
L 104.221169 39.9 
L 104.257403 40.757143 
L 104.32987 39.9 
L 104.366104 39.9 
L 104.492922 39.042857 
L 104.637857 39.042857 
L 104.764675 39.9 
L 104.837143 39.9 
L 104.982078 38.185714 
L 105.108896 38.185714 
L 105.181364 39.9 
L 105.235714 39.042857 
L 105.326299 39.042857 
L 105.453117 38.185714 
L 105.471234 38.185714 
L 105.616169 39.9 
L 105.652403 39.9 
L 105.779221 40.757143 
L 105.833571 40.757143 
L 105.978506 39.042857 
L 106.159675 39.042857 
L 106.286494 38.185714 
L 106.340844 38.185714 
L 106.467662 39.042857 
L 107.137987 39.042857 
L 107.264805 38.185714 
L 107.373506 38.185714 
L 107.500325 39.042857 
L 107.609026 39.042857 
L 107.69961 38.185714 
L 107.717727 39.042857 
L 107.772078 39.042857 
L 107.862662 37.328571 
L 107.898896 38.185714 
L 108.025714 38.185714 
L 108.152532 37.328571 
L 108.188766 37.328571 
L 108.261234 39.042857 
L 108.315584 38.185714 
L 108.333701 38.185714 
L 108.351818 39.042857 
L 108.442403 38.185714 
L 108.732273 38.185714 
L 108.877208 36.471429 
L 109.09461 36.471429 
L 109.239545 34.757143 
L 109.275779 34.757143 
L 109.384481 33.9 
L 109.511299 34.757143 
L 109.601883 34.757143 
L 109.746818 36.471429 
L 109.764935 36.471429 
L 109.891753 37.328571 
L 109.964221 37.328571 
L 110.091039 36.471429 
L 110.217857 37.328571 
L 110.453377 37.328571 
L 110.598312 39.042857 
L 110.72513 39.042857 
L 110.851948 39.9 
L 110.996883 39.9 
L 111.051234 39.042857 
L 111.087468 39.9 
L 111.214286 40.757143 
L 111.232403 40.757143 
L 111.322987 41.614286 
L 111.341104 40.757143 
L 111.486039 40.757143 
L 111.612857 39.9 
L 111.812143 39.9 
L 111.975195 37.328571 
L 112.228831 37.328571 
L 112.373766 39.042857 
L 112.464351 39.042857 
L 112.627403 41.614286 
L 112.736104 41.614286 
L 112.862922 42.471429 
L 113.007857 42.471429 
L 113.098442 41.614286 
L 113.116558 42.471429 
L 113.22526 42.471429 
L 113.352078 41.614286 
L 113.388312 41.614286 
L 113.51513 40.757143 
L 113.714416 40.757143 
L 113.841234 39.9 
L 114.076753 39.9 
L 114.221688 38.185714 
L 114.348506 39.042857 
L 114.38474 38.185714 
L 114.457208 39.042857 
L 114.656494 39.042857 
L 114.67461 39.9 
L 114.728961 38.185714 
L 114.747078 38.185714 
L 114.855779 38.185714 
L 114.928247 37.328571 
L 114.964481 38.185714 
L 115.72539 38.185714 
L 115.852208 39.042857 
L 115.997143 37.328571 
L 116.01526 37.328571 
L 116.087727 38.185714 
L 116.123961 37.328571 
L 116.268896 35.614286 
L 116.812403 35.614286 
L 116.88487 36.471429 
L 116.921104 35.614286 
L 116.993571 35.614286 
L 117.138506 37.328571 
L 117.210974 37.328571 
L 117.337792 38.185714 
L 117.845065 38.185714 
L 117.899416 37.328571 
L 117.953766 38.185714 
L 117.971883 38.185714 
L 118.008117 39.042857 
L 118.080584 38.185714 
L 118.261753 38.185714 
L 118.27987 39.042857 
L 118.370455 38.185714 
L 118.551623 38.185714 
L 118.642208 37.328571 
L 118.660325 38.185714 
L 118.968312 38.185714 
L 119.09513 39.042857 
L 119.348766 39.042857 
L 119.366883 38.185714 
L 119.457468 39.042857 
L 119.638636 39.042857 
L 119.692987 38.185714 
L 119.747338 39.042857 
L 119.874156 39.042857 
L 119.982857 39.9 
L 120.109675 39.042857 
L 120.20026 39.042857 
L 120.345195 40.757143 
L 120.435779 40.757143 
L 120.562597 39.9 
L 120.616948 39.9 
L 120.761883 38.185714 
L 120.834351 38.185714 
L 120.961169 37.328571 
L 121.522792 37.328571 
L 121.667727 35.614286 
L 121.88513 35.614286 
L 121.921364 34.757143 
L 121.993831 35.614286 
L 122.265584 35.614286 
L 122.356169 34.757143 
L 122.374286 35.614286 
L 122.428636 35.614286 
L 122.573571 37.328571 
L 122.591688 37.328571 
L 122.70039 36.471429 
L 122.827208 37.328571 
L 122.99026 37.328571 
L 123.117078 36.471429 
L 123.135195 36.471429 
L 123.262013 37.328571 
L 123.316364 37.328571 
L 123.388831 36.471429 
L 123.425065 37.328571 
L 123.497532 37.328571 
L 123.624351 36.471429 
L 123.823636 36.471429 
L 123.986688 33.9 
L 125.54474 33.9 
L 125.599091 33.042857 
L 125.653442 33.9 
L 125.671558 33.9 
L 125.798377 34.757143 
L 125.979545 34.757143 
L 126.106364 33.9 
L 126.124481 33.9 
L 126.178831 33.042857 
L 126.233182 33.9 
L 126.323766 33.9 
L 126.450584 33.042857 
L 126.758571 33.042857 
L 126.849156 32.185714 
L 126.867273 33.042857 
L 127.012208 33.042857 
L 127.139026 32.185714 
L 127.356429 32.185714 
L 127.483247 33.042857 
L 127.881818 33.042857 
L 128.026753 34.757143 
L 128.153571 34.757143 
L 128.28039 35.614286 
L 128.787662 35.614286 
L 128.932597 37.328571 
L 129.222468 37.328571 
L 129.367403 35.614286 
L 129.385519 35.614286 
L 129.512338 36.471429 
L 129.67539 36.471429 
L 129.711623 35.614286 
L 129.784091 36.471429 
L 129.802208 36.471429 
L 129.929026 35.614286 
L 130.001494 35.614286 
L 130.128312 36.471429 
L 130.400065 36.471429 
L 130.472532 37.328571 
L 130.508766 36.471429 
L 130.617468 36.471429 
L 130.744286 37.328571 
L 130.979805 37.328571 
L 131.016039 36.471429 
L 131.088506 37.328571 
L 131.505195 37.328571 
L 131.65013 35.614286 
L 131.776948 35.614286 
L 131.903766 34.757143 
L 131.94 34.757143 
L 132.066818 35.614286 
L 132.411039 35.614286 
L 132.537857 33.9 
L 132.664675 34.757143 
L 133.008896 34.757143 
L 133.135714 33.9 
L 133.335 33.9 
L 133.461818 33.042857 
L 133.479935 33.042857 
L 133.606753 33.9 
L 133.62487 33.9 
L 133.751688 33.042857 
L 133.91474 33.042857 
L 134.023442 33.9 
L 134.15026 33.042857 
L 134.240844 33.042857 
L 134.367662 32.185714 
L 134.639416 32.185714 
L 134.675649 31.328571 
L 134.748117 32.185714 
L 135.128571 32.185714 
L 135.25539 33.042857 
L 135.563377 33.042857 
L 135.59961 32.185714 
L 135.672078 33.042857 
L 136.161234 33.042857 
L 136.179351 32.185714 
L 136.269935 33.042857 
L 137.103312 33.042857 
L 137.23013 32.185714 
L 137.538117 32.185714 
L 137.610584 31.328571 
L 137.646818 32.185714 
L 138.299026 32.185714 
L 138.425844 31.328571 
L 138.751948 31.328571 
L 138.878766 30.471429 
L 139.222987 30.471429 
L 139.349805 29.614286 
L 139.49474 29.614286 
L 139.621558 30.471429 
L 139.657792 30.471429 
L 139.78461 31.328571 
L 139.802727 31.328571 
L 139.838961 30.471429 
L 139.911429 31.328571 
L 139.929545 31.328571 
L 140.056364 32.185714 
L 140.110714 32.185714 
L 140.237532 33.042857 
L 140.364351 33.042857 
L 140.491169 33.9 
L 141.233961 33.9 
L 141.324545 33.042857 
L 141.342662 33.9 
L 141.505714 33.9 
L 141.632532 34.757143 
L 142.049221 34.757143 
L 142.176039 35.614286 
L 143.118117 35.614286 
L 143.244935 34.757143 
L 143.281169 34.757143 
L 143.407987 33.9 
L 143.462338 33.9 
L 143.607273 32.185714 
L 143.67974 32.185714 
L 143.734091 33.042857 
L 143.788442 32.185714 
L 143.987727 32.185714 
L 144.114545 31.328571 
L 144.947922 31.328571 
L 145.07474 30.471429 
L 145.092857 30.471429 
L 145.129091 31.328571 
L 145.201558 30.471429 
L 145.219675 30.471429 
L 145.36461 32.185714 
L 145.672597 32.185714 
L 145.726948 31.328571 
L 145.781299 32.185714 
L 145.817532 32.185714 
L 145.944351 33.042857 
L 146.397273 33.042857 
L 146.524091 33.9 
L 147.303117 33.9 
L 147.429935 33.042857 
L 147.466169 33.042857 
L 147.592987 33.9 
L 148.571299 33.9 
L 148.698117 34.757143 
L 148.716234 34.757143 
L 148.861169 33.042857 
L 148.933636 33.042857 
L 149.060455 32.185714 
L 149.132922 32.185714 
L 149.25974 33.042857 
L 149.350325 33.042857 
L 149.49526 31.328571 
L 149.54961 31.328571 
L 149.676429 32.185714 
L 149.857597 32.185714 
L 149.984416 33.042857 
L 150.020649 33.042857 
L 150.147468 32.185714 
L 150.546039 32.185714 
L 150.690974 33.9 
L 151.035195 33.9 
L 151.089545 34.757143 
L 151.143896 33.9 
L 151.270714 33.9 
L 151.397532 34.757143 
L 152.194675 34.757143 
L 152.321494 33.9 
L 152.756299 33.9 
L 152.883117 33.042857 
L 153.172987 33.042857 
L 153.299805 32.185714 
L 153.408506 32.185714 
L 153.535325 33.042857 
L 153.571558 33.042857 
L 153.716494 34.757143 
L 154.169416 34.757143 
L 154.314351 33.042857 
L 154.423052 33.042857 
L 154.54987 33.9 
L 154.658571 33.9 
L 154.78539 33.042857 
L 154.894091 33.042857 
L 155.020909 32.185714 
L 157.031883 32.185714 
L 157.176818 30.471429 
L 157.194935 30.471429 
L 157.33987 28.757143 
L 158.046429 28.757143 
L 158.173247 27.9 
L 162.358247 27.9 
L 162.485065 28.757143 
L 165.872922 28.757143 
L 165.981623 29.614286 
L 166.108442 28.757143 
L 166.28961 28.757143 
L 166.416429 29.614286 
L 166.778766 29.614286 
L 166.905584 30.471429 
L 169.496299 30.471429 
L 169.623117 29.614286 
L 169.912987 29.614286 
L 169.985455 28.757143 
L 170.003571 29.614286 
L 170.148506 31.328571 
L 170.402143 31.328571 
L 170.528961 30.471429 
L 170.583312 30.471429 
L 170.71013 31.328571 
L 172.721104 31.328571 
L 172.847922 32.185714 
L 172.866039 32.185714 
L 172.992857 33.042857 
L 173.300844 33.042857 
L 173.427662 33.9 
L 173.608831 33.9 
L 173.771883 31.328571 
L 174.206688 31.328571 
L 174.333506 30.471429 
L 176.344481 30.471429 
L 176.471299 29.614286 
L 176.489416 29.614286 
L 176.616234 28.757143 
L 176.924221 28.757143 
L 177.051039 27.9 
L 178.119935 27.9 
L 178.246753 28.757143 
L 178.898961 28.757143 
L 179.025779 29.614286 
L 179.261299 29.614286 
L 179.388117 30.471429 
L 180.312078 30.471429 
L 180.438896 31.328571 
L 181.743312 31.328571 
L 181.87013 30.471429 
L 182.522338 30.471429 
L 182.649156 29.614286 
L 182.884675 29.614286 
L 183.011494 28.757143 
L 183.047727 28.757143 
L 183.174545 29.614286 
L 183.337597 29.614286 
L 183.464416 30.471429 
L 183.935455 30.471429 
L 184.062273 29.614286 
L 184.642013 29.614286 
L 184.768831 30.471429 
L 185.294221 30.471429 
L 185.421039 31.328571 
L 186.073247 31.328571 
L 186.200065 32.185714 
L 186.236299 32.185714 
L 186.363117 33.042857 
L 186.399351 33.042857 
L 186.526169 33.9 
L 186.671104 33.9 
L 186.797922 33.042857 
L 186.960974 33.042857 
L 187.087792 32.185714 
L 188.26539 32.185714 
L 188.392208 31.328571 
L 188.917597 31.328571 
L 189.044416 30.471429 
L 189.696623 30.471429 
L 189.823442 29.614286 
L 189.859675 29.614286 
L 189.986494 28.757143 
L 190.022727 28.757143 
L 190.149545 27.9 
L 190.276364 27.9 
L 190.403182 28.757143 
L 191.816299 28.757143 
L 191.961234 30.471429 
L 193.89974 30.471429 
L 194.026558 29.614286 
L 194.316429 29.614286 
L 194.443247 30.471429 
L 195.439675 30.471429 
L 195.58461 28.757143 
L 195.693312 28.757143 
L 195.82013 29.614286 
L 196.128117 29.614286 
L 196.254935 30.471429 
L 197.160779 30.471429 
L 197.287597 31.328571 
L 197.722403 31.328571 
L 197.849221 32.185714 
L 197.939805 32.185714 
L 198.03039 31.328571 
L 198.048506 32.185714 
L 198.465195 32.185714 
L 198.592013 33.042857 
L 199.316688 33.042857 
L 199.443506 32.185714 
L 199.751494 32.185714 
L 199.878312 31.328571 
L 200.530519 31.328571 
L 200.657338 32.185714 
L 200.784156 32.185714 
L 200.802273 31.328571 
L 200.892857 32.185714 
L 201.345779 32.185714 
L 201.454481 31.328571 
L 201.581299 32.185714 
L 202.088571 32.185714 
L 202.161039 31.328571 
L 202.197273 32.185714 
L 204.153896 32.185714 
L 204.280714 31.328571 
L 204.425649 31.328571 
L 204.552468 30.471429 
L 204.624935 30.471429 
L 204.751753 31.328571 
L 205.077857 31.328571 
L 205.095974 30.471429 
L 205.186558 31.328571 
L 205.277143 31.328571 
L 205.29526 30.471429 
L 205.367727 32.185714 
L 205.657597 32.185714 
L 205.784416 33.042857 
L 205.911234 32.185714 
L 208.248312 32.185714 
L 208.37513 31.328571 
L 208.719351 31.328571 
L 208.846169 30.471429 
L 208.918636 30.471429 
L 209.063571 28.757143 
L 209.280974 28.757143 
L 209.407792 27.9 
L 210.965844 27.9 
L 211.092662 28.757143 
L 211.708636 28.757143 
L 211.835455 29.614286 
L 212.813766 29.614286 
L 212.958701 31.328571 
L 213.538442 31.328571 
L 213.66526 32.185714 
L 213.900779 32.185714 
L 214.045714 33.9 
L 214.589221 33.9 
L 214.716039 33.042857 
L 215.332013 33.042857 
L 215.458831 32.185714 
L 215.694351 32.185714 
L 215.821169 33.042857 
L 216.437143 33.042857 
L 216.582078 31.328571 
L 217.161818 31.328571 
L 217.288636 30.471429 
L 217.524156 30.471429 
L 217.669091 28.757143 
L 217.922727 28.757143 
L 217.922727 28.757143 
" style="fill:none;stroke:#0000ff;stroke-linecap:square;stroke-width:1.5;"/>
   </g>
   <g id="line2d_12">
    <path clip-path="url(#pbfc5bda660)" d="M 40.377273 98.185714 
L 40.485974 100.757143 
L 40.504091 99.9 
L 40.649026 98.185714 
L 40.73961 98.185714 
L 40.757727 97.328571 
L 40.793961 99.042857 
L 40.812078 99.042857 
L 40.902662 102.471429 
L 40.957013 100.757143 
L 40.97513 100.757143 
L 41.120065 102.471429 
L 41.156299 101.614286 
L 41.192532 103.328571 
L 41.391818 107.614286 
L 41.428052 106.757143 
L 41.464286 108.471429 
L 41.609221 110.185714 
L 41.681688 110.185714 
L 41.754156 109.328571 
L 41.79039 110.185714 
L 41.808506 110.185714 
L 41.935325 112.757143 
L 41.953442 111.9 
L 41.989675 111.9 
L 42.13461 114.471429 
L 42.243312 113.614286 
L 42.388247 115.328571 
L 42.478831 113.614286 
L 42.515065 114.471429 
L 42.533182 114.471429 
L 42.750584 119.614286 
L 42.768701 119.614286 
L 42.859286 121.328571 
L 42.877403 120.471429 
L 42.913636 119.614286 
L 42.967987 120.471429 
L 43.004221 121.328571 
L 43.058571 119.614286 
L 43.112922 119.614286 
L 43.18539 118.757143 
L 43.23974 120.471429 
L 43.294091 118.757143 
L 43.348442 120.471429 
L 43.420909 120.471429 
L 43.47526 122.185714 
L 43.547727 121.328571 
L 43.602078 121.328571 
L 43.710779 118.757143 
L 43.728896 119.614286 
L 43.873831 123.042857 
L 43.891948 122.185714 
L 43.910065 122.185714 
L 44.073117 125.614286 
L 44.091234 124.757143 
L 44.145584 127.328571 
L 44.181818 127.328571 
L 44.381104 131.614286 
L 44.526039 129.9 
L 44.761558 135.9 
L 44.888377 132.471429 
L 44.92461 133.328571 
L 44.942727 133.328571 
L 44.960844 134.185714 
L 44.997078 132.471429 
L 45.051429 133.328571 
L 45.069545 133.328571 
L 45.16013 130.757143 
L 45.196364 131.614286 
L 45.323182 135.042857 
L 45.341299 134.185714 
L 45.431883 135.042857 
L 45.468117 133.328571 
L 45.613052 135.042857 
L 45.667403 135.042857 
L 45.703636 135.9 
L 45.73987 134.185714 
L 45.757987 134.185714 
L 45.830455 134.185714 
L 45.993506 131.614286 
L 46.047857 131.614286 
L 46.156558 132.471429 
L 46.210909 133.328571 
L 46.283377 131.614286 
L 46.31961 131.614286 
L 46.573247 124.757143 
L 46.681948 127.328571 
L 46.718182 126.471429 
L 46.772532 126.471429 
L 46.808766 128.185714 
L 46.899351 127.328571 
L 46.917468 127.328571 
L 47.062403 125.614286 
L 47.080519 125.614286 
L 47.207338 124.757143 
L 47.261688 124.757143 
L 47.352273 128.185714 
L 47.406623 126.471429 
L 47.42474 126.471429 
L 47.442857 127.328571 
L 47.497208 124.757143 
L 47.515325 125.614286 
L 47.587792 125.614286 
L 47.750844 123.042857 
L 47.768961 123.042857 
L 47.913896 121.328571 
L 47.932013 121.328571 
L 48.040714 122.185714 
L 48.058831 121.328571 
L 48.095065 123.042857 
L 48.113182 123.042857 
L 48.131299 123.9 
L 48.203766 122.185714 
L 48.221883 122.185714 
L 48.384935 119.614286 
L 48.566104 123.042857 
L 48.584221 123.042857 
L 48.729156 124.757143 
L 48.747273 124.757143 
L 48.874091 125.614286 
L 48.946558 125.614286 
L 49.163961 130.757143 
L 49.272662 130.757143 
L 49.34513 128.185714 
L 49.399481 129.9 
L 49.526299 130.757143 
L 49.580649 130.757143 
L 49.707468 131.614286 
L 49.743701 131.614286 
L 49.852403 130.757143 
L 50.033571 134.185714 
L 50.051688 134.185714 
L 50.21474 138.471429 
L 50.232857 137.614286 
L 50.250974 137.614286 
L 50.305325 135.9 
L 50.341558 137.614286 
L 50.468377 138.471429 
L 50.558961 138.471429 
L 50.685779 137.614286 
L 50.758247 137.614286 
L 50.903182 140.185714 
L 50.975649 138.471429 
L 51.011883 140.185714 
L 51.156818 141.9 
L 51.174935 141.9 
L 51.337987 139.328571 
L 51.428571 141.042857 
L 51.464805 140.185714 
L 51.501039 140.185714 
L 51.591623 139.328571 
L 51.627857 141.042857 
L 51.645974 141.042857 
L 51.772792 140.185714 
L 51.809026 140.185714 
L 51.935844 141.9 
L 52.062662 141.042857 
L 52.098896 141.042857 
L 52.280065 135.9 
L 52.298182 136.757143 
L 52.479351 140.185714 
L 52.624286 138.471429 
L 52.660519 138.471429 
L 52.841688 135.042857 
L 52.877922 135.042857 
L 53.00474 136.757143 
L 53.077208 135.042857 
L 53.131558 135.9 
L 53.149675 135.9 
L 53.276494 136.757143 
L 53.330844 136.757143 
L 53.457662 137.614286 
L 53.475779 137.614286 
L 53.602597 136.757143 
L 53.620714 136.757143 
L 53.729416 134.185714 
L 53.765649 135.042857 
L 53.783766 135.042857 
L 53.801883 135.9 
L 53.838117 134.185714 
L 53.874351 134.185714 
L 53.892468 134.185714 
L 54.019286 135.042857 
L 54.037403 135.042857 
L 54.055519 134.185714 
L 54.091753 135.9 
L 54.127987 135.9 
L 54.182338 135.9 
L 54.200455 136.757143 
L 54.254805 135.042857 
L 54.272922 135.9 
L 54.454091 132.471429 
L 54.508442 132.471429 
L 54.653377 130.757143 
L 54.780195 131.614286 
L 54.798312 131.614286 
L 54.961364 134.185714 
L 54.997597 134.185714 
L 55.015714 133.328571 
L 55.106299 134.185714 
L 55.160649 134.185714 
L 55.341818 129.9 
L 55.414286 131.614286 
L 55.468636 130.757143 
L 55.595455 129.9 
L 55.613571 129.9 
L 55.758506 126.471429 
L 55.776623 127.328571 
L 55.867208 129.9 
L 55.903442 129.042857 
L 56.012143 126.471429 
L 56.048377 127.328571 
L 56.08461 127.328571 
L 56.138961 125.614286 
L 56.193312 127.328571 
L 56.229545 127.328571 
L 56.283896 126.471429 
L 56.32013 128.185714 
L 56.392597 128.185714 
L 56.537532 123.9 
L 56.555649 124.757143 
L 56.718701 127.328571 
L 56.736818 127.328571 
L 56.881753 130.757143 
L 56.89987 129.9 
L 56.936104 129.9 
L 57.044805 128.185714 
L 57.062922 129.042857 
L 57.153506 129.042857 
L 57.207857 128.185714 
L 57.244091 129.9 
L 57.262208 130.757143 
L 57.316558 129.042857 
L 57.334675 129.042857 
L 57.407143 129.042857 
L 57.42526 128.185714 
L 57.47961 130.757143 
L 57.624545 132.471429 
L 57.787597 129.9 
L 57.823831 129.9 
L 57.878182 131.614286 
L 57.950649 130.757143 
L 57.986883 129.9 
L 58.041234 131.614286 
L 58.113701 130.757143 
L 58.168052 132.471429 
L 58.29487 131.614286 
L 58.349221 133.328571 
L 58.403571 132.471429 
L 58.512273 129.042857 
L 58.548506 130.757143 
L 58.58474 130.757143 
L 58.747792 128.185714 
L 58.765909 128.185714 
L 58.856494 130.757143 
L 58.892727 129.042857 
L 58.910844 129.042857 
L 59.019545 130.757143 
L 59.037662 129.9 
L 59.073896 129.9 
L 59.200714 130.757143 
L 59.236948 130.757143 
L 59.345649 133.328571 
L 59.381883 132.471429 
L 59.4 132.471429 
L 59.508701 128.185714 
L 59.563052 129.9 
L 59.599286 129.9 
L 59.726104 127.328571 
L 59.744221 128.185714 
L 59.798571 129.042857 
L 59.852922 128.185714 
L 59.871039 128.185714 
L 60.015974 124.757143 
L 60.034091 125.614286 
L 60.052208 125.614286 
L 60.160909 127.328571 
L 60.179026 126.471429 
L 60.523247 115.328571 
L 60.559481 115.328571 
L 60.577597 116.185714 
L 60.613831 114.471429 
L 60.668182 115.328571 
L 60.686299 115.328571 
L 60.776883 112.757143 
L 60.813117 113.614286 
L 60.849351 114.471429 
L 60.885584 112.757143 
L 60.921818 113.614286 
L 60.939935 113.614286 
L 60.994286 114.471429 
L 61.030519 112.757143 
L 61.048636 113.614286 
L 61.08487 113.614286 
L 61.247922 111.042857 
L 61.429091 114.471429 
L 61.501558 111.9 
L 61.574026 112.757143 
L 61.61026 112.757143 
L 61.682727 111.042857 
L 61.718961 111.9 
L 61.755195 112.757143 
L 61.791429 111.042857 
L 61.809545 111.042857 
L 61.972597 107.614286 
L 62.099416 108.471429 
L 62.117532 108.471429 
L 62.135649 109.328571 
L 62.19 107.614286 
L 62.208117 106.757143 
L 62.298701 107.614286 
L 62.371169 108.471429 
L 62.407403 107.614286 
L 62.624805 102.471429 
L 62.642922 102.471429 
L 62.71539 101.614286 
L 62.76974 103.328571 
L 62.787857 103.328571 
L 62.987143 99.042857 
L 63.132078 103.328571 
L 63.150195 102.471429 
L 63.258896 100.757143 
L 63.277013 101.614286 
L 63.385714 101.614286 
L 63.476299 99.042857 
L 63.530649 99.9 
L 63.566883 99.9 
L 63.639351 101.614286 
L 63.693701 100.757143 
L 63.711818 100.757143 
L 63.856753 102.471429 
L 63.929221 102.471429 
L 64.074156 105.9 
L 64.092273 105.042857 
L 64.16474 105.042857 
L 64.237208 105.9 
L 64.273442 105.042857 
L 64.309675 105.042857 
L 64.40026 107.614286 
L 64.45461 106.757143 
L 64.617662 104.185714 
L 64.653896 104.185714 
L 64.708247 101.614286 
L 64.762597 104.185714 
L 64.780714 104.185714 
L 64.98 99.9 
L 65.106818 99.9 
L 65.124935 100.757143 
L 65.179286 99.042857 
L 65.197403 99.042857 
L 65.233636 99.042857 
L 65.342338 100.757143 
L 65.360455 99.9 
L 65.432922 99.042857 
L 65.451039 99.9 
L 65.50539 100.757143 
L 65.541623 99.042857 
L 65.55974 99.042857 
L 65.704675 100.757143 
L 65.740909 100.757143 
L 65.79526 99.9 
L 65.831494 101.614286 
L 65.903961 101.614286 
L 65.958312 99.9 
L 66.012662 101.614286 
L 66.030779 101.614286 
L 66.248182 106.757143 
L 66.266299 106.757143 
L 66.302532 105.9 
L 66.338766 107.614286 
L 66.375 106.757143 
L 66.393117 106.757143 
L 66.483701 105.042857 
L 66.519935 105.9 
L 66.628636 106.757143 
L 66.773571 104.185714 
L 66.809805 105.042857 
L 66.882273 104.185714 
L 67.009091 103.328571 
L 67.154026 105.042857 
L 67.208377 105.042857 
L 67.317078 101.614286 
L 67.353312 102.471429 
L 67.443896 103.328571 
L 67.462013 102.471429 
L 67.588831 101.614286 
L 67.643182 101.614286 
L 67.679416 100.757143 
L 67.733766 101.614286 
L 67.878701 103.328571 
L 67.896818 103.328571 
L 68.096104 99.042857 
L 68.331623 105.042857 
L 68.476558 103.328571 
L 68.512792 105.042857 
L 68.58526 103.328571 
L 68.603377 103.328571 
L 68.63961 105.042857 
L 68.712078 103.328571 
L 68.730195 103.328571 
L 68.784545 102.471429 
L 68.820779 103.328571 
L 68.838896 104.185714 
L 68.911364 102.471429 
L 69.020065 101.614286 
L 69.165 103.328571 
L 69.183117 103.328571 
L 69.364286 99.9 
L 69.400519 99.9 
L 69.563571 97.328571 
L 69.581688 97.328571 
L 69.74474 94.757143 
L 69.817208 94.757143 
L 69.889675 93.9 
L 69.944026 95.614286 
L 70.070844 94.757143 
L 70.107078 95.614286 
L 70.161429 94.757143 
L 70.306364 92.185714 
L 70.396948 93.042857 
L 70.415065 92.185714 
L 70.523766 92.185714 
L 70.578117 90.471429 
L 70.632468 92.185714 
L 70.650584 92.185714 
L 70.84987 87.9 
L 70.867987 87.9 
L 71.031039 85.328571 
L 71.049156 85.328571 
L 71.230325 90.471429 
L 71.248442 89.614286 
L 71.411494 87.042857 
L 71.465844 87.042857 
L 71.592662 87.9 
L 71.610779 87.042857 
L 71.647013 88.757143 
L 71.701364 87.9 
L 71.719481 88.757143 
L 71.791948 87.042857 
L 71.955 82.757143 
L 71.973117 83.614286 
L 71.991234 83.614286 
L 72.136169 78.471429 
L 72.172403 80.185714 
L 72.190519 80.185714 
L 72.281104 78.471429 
L 72.317338 79.328571 
L 72.444156 82.757143 
L 72.48039 81.9 
L 72.625325 79.328571 
L 72.752143 80.185714 
L 72.82461 78.471429 
L 72.860844 80.185714 
L 72.987662 81.042857 
L 73.023896 81.042857 
L 73.06013 82.757143 
L 73.132597 81.042857 
L 73.295649 78.471429 
L 73.331883 79.328571 
L 73.404351 78.471429 
L 73.603636 74.185714 
L 73.694221 74.185714 
L 73.712338 73.328571 
L 73.766688 75.9 
L 73.784805 75.042857 
L 73.911623 75.042857 
L 73.92974 75.9 
L 74.020325 75.042857 
L 74.038442 75.042857 
L 74.183377 76.757143 
L 74.201494 76.757143 
L 74.328312 74.185714 
L 74.346429 75.042857 
L 74.364545 75.042857 
L 74.545714 78.471429 
L 74.690649 76.757143 
L 74.726883 76.757143 
L 74.817468 73.328571 
L 74.871818 75.042857 
L 74.889935 75.042857 
L 74.980519 77.614286 
L 75.016753 75.9 
L 75.071104 75.9 
L 75.216039 74.185714 
L 75.234156 75.042857 
L 75.27039 73.328571 
L 75.32474 74.185714 
L 75.397208 73.328571 
L 75.433442 74.185714 
L 75.542143 74.185714 
L 75.61461 73.328571 
L 75.632727 74.185714 
L 75.759545 76.757143 
L 75.777662 75.9 
L 75.795779 75.9 
L 75.904481 77.614286 
L 75.922597 76.757143 
L 75.940714 76.757143 
L 76.103766 74.185714 
L 76.248701 76.757143 
L 76.375519 73.328571 
L 76.393636 74.185714 
L 76.447987 75.042857 
L 76.484221 73.328571 
L 76.629156 71.614286 
L 76.647273 71.614286 
L 76.683506 69.9 
L 76.755974 71.614286 
L 76.774091 71.614286 
L 76.919026 73.328571 
L 77.027727 71.614286 
L 77.045844 72.471429 
L 77.063961 72.471429 
L 77.100195 73.328571 
L 77.172662 72.471429 
L 77.335714 72.471429 
L 77.390065 69.9 
L 77.462532 71.614286 
L 77.498766 71.614286 
L 77.661818 69.042857 
L 77.679935 69.042857 
L 77.806753 68.185714 
L 77.861104 68.185714 
L 78.024156 65.614286 
L 78.042273 66.471429 
L 78.132857 65.614286 
L 78.169091 64.757143 
L 78.223442 65.614286 
L 78.35026 66.471429 
L 78.368377 66.471429 
L 78.440844 68.185714 
L 78.477078 66.471429 
L 78.622013 63.042857 
L 78.64013 63.9 
L 78.676364 63.9 
L 78.839416 67.328571 
L 78.948117 66.471429 
L 79.093052 68.185714 
L 79.183636 68.185714 
L 79.346688 65.614286 
L 79.364805 65.614286 
L 79.527857 63.042857 
L 79.582208 63.042857 
L 79.709026 61.328571 
L 79.727143 62.185714 
L 79.763377 60.471429 
L 79.817727 61.328571 
L 79.890195 61.328571 
L 80.017013 63.9 
L 80.03513 63.042857 
L 80.053247 63.042857 
L 80.180065 63.9 
L 80.306883 63.9 
L 80.506169 59.614286 
L 80.560519 59.614286 
L 80.705455 57.9 
L 80.959091 57.9 
L 81.085909 58.757143 
L 81.104026 58.757143 
L 81.248961 60.471429 
L 81.375779 60.471429 
L 81.502597 59.614286 
L 81.629416 59.614286 
L 81.665649 57.9 
L 81.756234 58.757143 
L 81.792468 58.757143 
L 81.919286 57.042857 
L 81.955519 57.9 
L 82.00987 56.185714 
L 82.046104 56.185714 
L 82.172922 55.328571 
L 82.24539 55.328571 
L 82.426558 51.9 
L 82.444675 51.9 
L 82.607727 49.328571 
L 82.698312 49.328571 
L 82.82513 48.471429 
L 82.897597 48.471429 
L 83.024416 47.614286 
L 83.042532 47.614286 
L 83.187468 45.9 
L 83.314286 45.9 
L 83.332403 46.757143 
L 83.422987 45.9 
L 83.459221 45.9 
L 83.658506 41.614286 
L 83.676623 41.614286 
L 83.69474 40.757143 
L 83.767208 41.614286 
L 83.894026 42.471429 
L 83.93026 42.471429 
L 84.057078 43.328571 
L 84.22013 43.328571 
L 84.274481 42.471429 
L 84.328831 43.328571 
L 84.582468 43.328571 
L 84.763636 39.9 
L 84.854221 39.9 
L 84.999156 38.185714 
L 85.289026 38.185714 
L 85.415844 37.328571 
L 85.452078 37.328571 
L 85.578896 36.471429 
L 85.977468 36.471429 
L 86.104286 35.614286 
L 86.267338 35.614286 
L 86.303571 34.757143 
L 86.376039 35.614286 
L 86.665909 35.614286 
L 86.792727 36.471429 
L 86.937662 36.471429 
L 87.082597 34.757143 
L 87.318117 34.757143 
L 87.463052 33.042857 
L 87.481169 33.042857 
L 87.626104 31.328571 
L 87.752922 32.185714 
L 87.897857 32.185714 
L 88.024675 31.328571 
L 88.40513 31.328571 
L 88.550065 33.042857 
L 88.695 33.042857 
L 88.821818 33.9 
L 89.111688 33.9 
L 89.238506 33.042857 
L 89.600844 33.042857 
L 89.727662 33.9 
L 89.908831 33.9 
L 89.926948 34.757143 
L 90.017532 33.9 
L 90.253052 33.9 
L 90.289286 34.757143 
L 90.361753 33.9 
L 90.37987 33.9 
L 90.524805 35.614286 
L 90.796558 35.614286 
L 90.923377 36.471429 
L 91.249481 36.471429 
L 91.321948 35.614286 
L 91.358182 36.471429 
L 91.448766 36.471429 
L 91.593701 38.185714 
L 91.629935 38.185714 
L 91.756753 39.042857 
L 92.028506 39.042857 
L 92.173442 37.328571 
L 92.318377 37.328571 
L 92.445195 36.471429 
L 92.807532 36.471429 
L 92.934351 37.328571 
L 93.224221 37.328571 
L 93.351039 36.471429 
L 93.387273 36.471429 
L 93.514091 37.328571 
L 93.532208 37.328571 
L 93.659026 36.471429 
L 93.876429 36.471429 
L 94.039481 33.9 
L 94.419935 33.9 
L 94.546753 33.042857 
L 94.945325 33.042857 
L 95.09026 31.328571 
L 95.198961 31.328571 
L 95.343896 29.614286 
L 96.430909 29.614286 
L 96.557727 28.757143 
L 97.010649 28.757143 
L 97.137468 27.9 
L 97.481688 27.9 
L 97.608506 28.757143 
L 98.278831 28.757143 
L 98.405649 29.614286 
L 98.441883 29.614286 
L 98.586818 31.328571 
L 100.289805 31.328571 
L 100.43474 33.042857 
L 101.105065 33.042857 
L 101.231883 32.185714 
L 101.449286 32.185714 
L 101.594221 33.9 
L 101.902208 33.9 
L 102.029026 33.042857 
L 102.06526 33.042857 
L 102.210195 31.328571 
L 102.536299 31.328571 
L 102.663117 32.185714 
L 103.260974 32.185714 
L 103.387792 33.042857 
L 103.913182 33.042857 
L 104.058117 31.328571 
L 105.072662 31.328571 
L 105.163247 30.471429 
L 105.181364 31.328571 
L 105.561818 31.328571 
L 105.706753 33.042857 
L 106.159675 33.042857 
L 106.286494 32.185714 
L 106.340844 32.185714 
L 106.467662 33.042857 
L 106.884351 33.042857 
L 107.011169 32.185714 
L 107.572792 32.185714 
L 107.69961 33.042857 
L 108.732273 33.042857 
L 108.877208 31.328571 
L 109.185195 31.328571 
L 109.33013 29.614286 
L 109.964221 29.614286 
L 110.091039 28.757143 
L 111.069351 28.757143 
L 111.196169 29.614286 
L 111.322987 28.757143 
L 112.246948 28.757143 
L 112.373766 29.614286 
L 112.464351 29.614286 
L 112.591169 30.471429 
L 114.656494 30.471429 
L 114.692727 31.328571 
L 114.765195 30.471429 
L 115.363052 30.471429 
L 115.48987 31.328571 
L 115.870325 31.328571 
L 115.997143 30.471429 
L 116.087727 30.471429 
L 116.214545 29.614286 
L 116.395714 29.614286 
L 116.522532 30.471429 
L 117.17474 30.471429 
L 117.301558 31.328571 
L 118.134935 31.328571 
L 118.261753 32.185714 
L 118.27987 32.185714 
L 118.406688 31.328571 
L 118.986429 31.328571 
L 119.113247 30.471429 
L 119.928506 30.471429 
L 120.019091 31.328571 
L 120.037208 30.471429 
L 120.798117 30.471429 
L 120.924935 29.614286 
L 121.414091 29.614286 
L 121.540909 30.471429 
L 121.758312 30.471429 
L 121.88513 29.614286 
L 123.135195 29.614286 
L 123.262013 30.471429 
L 123.551883 30.471429 
L 123.678701 29.614286 
L 124.330909 29.614286 
L 124.457727 30.471429 
L 125.037468 30.471429 
L 125.164286 29.614286 
L 126.432468 29.614286 
L 126.559286 30.471429 
L 126.758571 30.471429 
L 126.88539 29.614286 
L 127.338312 29.614286 
L 127.483247 31.328571 
L 127.954286 31.328571 
L 128.081104 30.471429 
L 130.055844 30.471429 
L 130.182662 29.614286 
L 130.961688 29.614286 
L 131.106623 27.9 
L 131.758831 27.9 
L 131.885649 28.757143 
L 133.479935 28.757143 
L 133.606753 29.614286 
L 135.382208 29.614286 
L 135.509026 28.757143 
L 135.54526 28.757143 
L 135.690195 30.471429 
L 137.103312 30.471429 
L 137.23013 29.614286 
L 139.168636 29.614286 
L 139.313571 27.9 
L 139.49474 27.9 
L 139.621558 28.757143 
L 139.766494 28.757143 
L 139.893312 29.614286 
L 140.925974 29.614286 
L 141.052792 30.471429 
L 141.505714 30.471429 
L 141.632532 31.328571 
L 143.118117 31.328571 
L 143.244935 30.471429 
L 143.38987 30.471429 
L 143.516688 29.614286 
L 144.368182 29.614286 
L 144.495 30.471429 
L 145.092857 30.471429 
L 145.129091 31.328571 
L 145.201558 30.471429 
L 147.991558 30.471429 
L 148.118377 29.614286 
L 148.172727 29.614286 
L 148.299545 28.757143 
L 148.716234 28.757143 
L 148.843052 27.9 
L 149.640195 27.9 
L 149.767013 28.757143 
L 150.075 28.757143 
L 150.201818 29.614286 
L 150.437338 29.614286 
L 150.564156 30.471429 
L 153.263571 30.471429 
L 153.39039 29.614286 
L 153.698377 29.614286 
L 153.716494 28.757143 
L 153.807078 29.614286 
L 154.060714 29.614286 
L 154.187532 28.757143 
L 155.709351 28.757143 
L 155.836169 29.614286 
L 156.343442 29.614286 
L 156.488377 31.328571 
L 157.33987 31.328571 
L 157.466688 30.471429 
L 158.064545 30.471429 
L 158.191364 31.328571 
L 159.332727 31.328571 
L 159.459545 30.471429 
L 159.966818 30.471429 
L 160.111753 28.757143 
L 160.745844 28.757143 
L 160.872662 29.614286 
L 161.687922 29.614286 
L 161.81474 28.757143 
L 164.369221 28.757143 
L 164.496039 27.9 
L 170.18474 27.9 
L 170.311558 28.757143 
L 171.742792 28.757143 
L 171.86961 29.614286 
L 172.866039 29.614286 
L 172.992857 30.471429 
L 173.228377 30.471429 
L 173.355195 31.328571 
L 173.808117 31.328571 
L 173.934935 30.471429 
L 173.971169 30.471429 
L 174.097987 31.328571 
L 175.366169 31.328571 
L 175.456753 30.471429 
L 175.47487 31.328571 
L 176.416948 31.328571 
L 176.489416 32.185714 
L 176.525649 31.328571 
L 176.851753 31.328571 
L 176.978571 30.471429 
L 177.594545 30.471429 
L 177.721364 29.614286 
L 178.337338 29.614286 
L 178.464156 30.471429 
L 178.935195 30.471429 
L 179.08013 32.185714 
L 179.206948 31.328571 
L 180.040325 31.328571 
L 180.167143 30.471429 
L 180.529481 30.471429 
L 180.656299 31.328571 
L 181.960714 31.328571 
L 182.087532 30.471429 
L 182.232468 30.471429 
L 182.359286 31.328571 
L 182.558571 31.328571 
L 182.703506 29.614286 
L 183.337597 29.614286 
L 183.464416 30.471429 
L 183.518766 30.471429 
L 183.645584 31.328571 
L 184.152857 31.328571 
L 184.279675 30.471429 
L 184.315909 30.471429 
L 184.442727 31.328571 
L 185.602208 31.328571 
L 185.729026 32.185714 
L 185.855844 32.185714 
L 185.982662 31.328571 
L 186.960974 31.328571 
L 187.087792 30.471429 
L 187.142143 30.471429 
L 187.268961 29.614286 
L 187.939286 29.614286 
L 188.066104 28.757143 
L 188.573377 28.757143 
L 188.700195 29.614286 
L 189.225584 29.614286 
L 189.352403 28.757143 
L 190.185779 28.757143 
L 190.312597 29.614286 
L 190.385065 29.614286 
L 190.511883 30.471429 
L 191.834416 30.471429 
L 191.961234 31.328571 
L 192.196753 31.328571 
L 192.323571 30.471429 
L 192.667792 30.471429 
L 192.79461 31.328571 
L 193.428701 31.328571 
L 193.555519 32.185714 
L 193.809156 32.185714 
L 193.935974 31.328571 
L 194.008442 31.328571 
L 194.13526 30.471429 
L 195.457792 30.471429 
L 195.58461 29.614286 
L 195.892597 29.614286 
L 196.019416 30.471429 
L 196.291169 30.471429 
L 196.417987 29.614286 
L 197.052078 29.614286 
L 197.160779 28.757143 
L 197.287597 29.614286 
L 197.341948 29.614286 
L 197.468766 30.471429 
L 198.03039 30.471429 
L 198.157208 31.328571 
L 198.682597 31.328571 
L 198.809416 32.185714 
L 199.044935 32.185714 
L 199.171753 33.042857 
L 199.497857 33.042857 
L 199.515974 33.9 
L 199.606558 33.042857 
L 199.679026 33.042857 
L 199.805844 33.9 
L 200.276883 33.9 
L 200.403701 34.757143 
L 200.766039 34.757143 
L 200.784156 35.614286 
L 200.87474 34.757143 
L 200.965325 34.757143 
L 201.092143 33.9 
L 201.200844 33.9 
L 201.327662 34.757143 
L 201.472597 34.757143 
L 201.599416 35.614286 
L 201.653766 35.614286 
L 201.780584 34.757143 
L 202.305974 34.757143 
L 202.432792 33.9 
L 202.668312 33.9 
L 202.79513 33.042857 
L 203.121234 33.042857 
L 203.248052 32.185714 
L 203.302403 32.185714 
L 203.429221 31.328571 
L 203.90026 31.328571 
L 204.027078 30.471429 
L 204.389416 30.471429 
L 204.516234 29.614286 
L 205.820649 29.614286 
L 205.947468 30.471429 
L 207.016364 30.471429 
L 207.143182 31.328571 
L 208.447597 31.328571 
L 208.574416 30.471429 
L 208.665 30.471429 
L 208.719351 31.328571 
L 208.773701 30.471429 
L 209.444026 30.471429 
L 209.570844 29.614286 
L 210.603506 29.614286 
L 210.63974 30.471429 
L 210.712208 29.614286 
L 210.839026 29.614286 
L 210.965844 30.471429 
L 212.288377 30.471429 
L 212.306494 29.614286 
L 212.397078 30.471429 
L 214.226883 30.471429 
L 214.353701 29.614286 
L 214.444286 29.614286 
L 214.462403 30.471429 
L 214.552987 29.614286 
L 215.92987 29.614286 
L 216.056688 28.757143 
L 216.364675 28.757143 
L 216.491494 29.614286 
L 216.618312 29.614286 
L 216.74513 30.471429 
L 216.871948 30.471429 
L 216.998766 31.328571 
L 217.922727 31.328571 
L 217.922727 31.328571 
" style="fill:none;stroke:#008000;stroke-linecap:square;stroke-width:1.5;"/>
   </g>
   <g id="patch_3">
    <path d="M 31.5 160.2 
L 31.5 21.6 
" style="fill:none;stroke:#000000;stroke-linecap:square;stroke-linejoin:miter;stroke-width:0.8;"/>
   </g>
   <g id="patch_4">
    <path d="M 226.8 160.2 
L 226.8 21.6 
" style="fill:none;stroke:#000000;stroke-linecap:square;stroke-linejoin:miter;stroke-width:0.8;"/>
   </g>
   <g id="patch_5">
    <path d="M 31.5 160.2 
L 226.8 160.2 
" style="fill:none;stroke:#000000;stroke-linecap:square;stroke-linejoin:miter;stroke-width:0.8;"/>
   </g>
   <g id="patch_6">
    <path d="M 31.5 21.6 
L 226.8 21.6 
" style="fill:none;stroke:#000000;stroke-linecap:square;stroke-linejoin:miter;stroke-width:0.8;"/>
   </g>
   <g id="legend_1">
    <g id="patch_7">
     <path d="M 144.665625 155.2 
L 219.8 155.2 
Q 221.8 155.2 221.8 153.2 
L 221.8 124.565625 
Q 221.8 122.565625 219.8 122.565625 
L 144.665625 122.565625 
Q 142.665625 122.565625 142.665625 124.565625 
L 142.665625 153.2 
Q 142.665625 155.2 144.665625 155.2 
z
" style="fill:#ffffff;opacity:0.8;stroke:#cccccc;stroke-linejoin:miter;"/>
    </g>
    <g id="patch_8">
     <path d="M 146.665625 134.164062 
L 166.665625 134.164062 
L 166.665625 127.164062 
L 146.665625 127.164062 
z
" style="fill:#0000ff;stroke:#0000ff;stroke-linejoin:miter;"/>
    </g>
    <g id="text_13">
     <text style="font-family:DejaVu Sans;font-size:10px;font-stretch:normal;font-style:normal;font-weight:normal;text-anchor:start;" transform="rotate(-0, 174.665625, 134.164062)" x="174.665625" y="134.164062">sarl</text>
    </g>
    <g id="patch_9">
     <path d="M 146.665625 148.842187 
L 166.665625 148.842187 
L 166.665625 141.842187 
L 146.665625 141.842187 
z
" style="fill:#008000;stroke:#008000;stroke-linejoin:miter;"/>
    </g>
    <g id="text_14">
     <text style="font-family:DejaVu Sans;font-size:10px;font-stretch:normal;font-style:normal;font-weight:normal;text-anchor:start;" transform="rotate(-0, 174.665625, 148.842187)" x="174.665625" y="148.842187">sarl_pref</text>
    </g>
   </g>
  </g>
 </g>
 <defs>
  <clipPath id="pbfc5bda660">
   <rect height="138.6" width="195.3" x="31.5" y="21.6"/>
  </clipPath>
 </defs>
</svg>
