<?xml version="1.0" encoding="utf-8" standalone="no"?>
<!DOCTYPE svg PUBLIC "-//W3C//DTD SVG 1.1//EN"
  "http://www.w3.org/Graphics/SVG/1.1/DTD/svg11.dtd">
<svg height="180pt" version="1.1" viewBox="0 0 252 180" width="252pt" xmlns="http://www.w3.org/2000/svg" xmlns:xlink="http://www.w3.org/1999/xlink">
 <metadata>
  <rdf:RDF xmlns:cc="http://creativecommons.org/ns#" xmlns:dc="http://purl.org/dc/elements/1.1/" xmlns:rdf="http://www.w3.org/1999/02/22-rdf-syntax-ns#">
   <cc:Work>
    <dc:type rdf:resource="http://purl.org/dc/dcmitype/StillImage"/>
    <dc:date>2022-02-23T22:23:53.226364</dc:date>
    <dc:format>image/svg+xml</dc:format>
    <dc:creator>
     <cc:Agent>
      <dc:title>Matplotlib v3.4.3, https://matplotlib.org/</dc:title>
     </cc:Agent>
    </dc:creator>
   </cc:Work>
  </rdf:RDF>
 </metadata>
 <defs>
  <style type="text/css">*{stroke-linecap:butt;stroke-linejoin:round;}</style>
 </defs>
 <g id="figure_1">
  <g id="patch_1">
   <path d="M 0 180 
L 252 180 
L 252 0 
L 0 0 
z
" style="fill:#ffffff;"/>
  </g>
  <g id="axes_1">
   <g id="patch_2">
    <path d="M 31.5 160.2 
L 226.8 160.2 
L 226.8 21.6 
L 31.5 21.6 
z
" style="fill:#ffffff;"/>
   </g>
   <g id="matplotlib.axis_1">
    <g id="xtick_1">
     <g id="line2d_1">
      <defs>
       <path d="M 0 0 
L 0 3.5 
" id="m7c47e4fea5" style="stroke:#000000;stroke-width:0.8;"/>
      </defs>
      <g>
       <use style="stroke:#000000;stroke-width:0.8;" x="40.377273" xlink:href="#m7c47e4fea5" y="160.2"/>
      </g>
     </g>
     <g id="text_1">
      <text style="font-family:DejaVu Sans;font-size:10px;font-stretch:normal;font-style:normal;font-weight:normal;text-anchor:middle;" transform="rotate(-0, 40.377273, 174.798438)" x="40.377273" y="174.798438">0</text>
     </g>
    </g>
    <g id="xtick_2">
     <g id="line2d_2">
      <g>
       <use style="stroke:#000000;stroke-width:0.8;" x="76.611039" xlink:href="#m7c47e4fea5" y="160.2"/>
      </g>
     </g>
     <g id="text_2">
      <text style="font-family:DejaVu Sans;font-size:10px;font-stretch:normal;font-style:normal;font-weight:normal;text-anchor:middle;" transform="rotate(-0, 76.611039, 174.798438)" x="76.611039" y="174.798438">2000</text>
     </g>
    </g>
    <g id="xtick_3">
     <g id="line2d_3">
      <g>
       <use style="stroke:#000000;stroke-width:0.8;" x="112.844805" xlink:href="#m7c47e4fea5" y="160.2"/>
      </g>
     </g>
     <g id="text_3">
      <text style="font-family:DejaVu Sans;font-size:10px;font-stretch:normal;font-style:normal;font-weight:normal;text-anchor:middle;" transform="rotate(-0, 112.844805, 174.798438)" x="112.844805" y="174.798438">4000</text>
     </g>
    </g>
    <g id="xtick_4">
     <g id="line2d_4">
      <g>
       <use style="stroke:#000000;stroke-width:0.8;" x="149.078571" xlink:href="#m7c47e4fea5" y="160.2"/>
      </g>
     </g>
     <g id="text_4">
      <text style="font-family:DejaVu Sans;font-size:10px;font-stretch:normal;font-style:normal;font-weight:normal;text-anchor:middle;" transform="rotate(-0, 149.078571, 174.798438)" x="149.078571" y="174.798438">6000</text>
     </g>
    </g>
    <g id="xtick_5">
     <g id="line2d_5">
      <g>
       <use style="stroke:#000000;stroke-width:0.8;" x="185.312338" xlink:href="#m7c47e4fea5" y="160.2"/>
      </g>
     </g>
     <g id="text_5">
      <text style="font-family:DejaVu Sans;font-size:10px;font-stretch:normal;font-style:normal;font-weight:normal;text-anchor:middle;" transform="rotate(-0, 185.312338, 174.798438)" x="185.312338" y="174.798438">8000</text>
     </g>
    </g>
    <g id="xtick_6">
     <g id="line2d_6">
      <g>
       <use style="stroke:#000000;stroke-width:0.8;" x="221.546104" xlink:href="#m7c47e4fea5" y="160.2"/>
      </g>
     </g>
     <g id="text_6">
      <text style="font-family:DejaVu Sans;font-size:10px;font-stretch:normal;font-style:normal;font-weight:normal;text-anchor:middle;" transform="rotate(-0, 221.546104, 174.798438)" x="221.546104" y="174.798438">10000</text>
     </g>
    </g>
    <g id="text_7">
     <text style="font-family:DejaVu Sans;font-size:10px;font-stretch:normal;font-style:normal;font-weight:normal;text-anchor:middle;" transform="rotate(-0, 129.15, 188.476562)" x="129.15" y="188.476562">episodes</text>
    </g>
   </g>
   <g id="matplotlib.axis_2">
    <g id="ytick_1">
     <g id="line2d_7">
      <defs>
       <path d="M 0 0 
L -3.5 0 
" id="mef2385a601" style="stroke:#000000;stroke-width:0.8;"/>
      </defs>
      <g>
       <use style="stroke:#000000;stroke-width:0.8;" x="31.5" xlink:href="#mef2385a601" y="155.172727"/>
      </g>
     </g>
     <g id="text_8">
      <text style="font-family:DejaVu Sans;font-size:10px;font-stretch:normal;font-style:normal;font-weight:normal;text-anchor:end;" transform="rotate(-0, 24.5, 158.971946)" x="24.5" y="158.971946">0.0</text>
     </g>
    </g>
    <g id="ytick_2">
     <g id="line2d_8">
      <g>
       <use style="stroke:#000000;stroke-width:0.8;" x="31.5" xlink:href="#mef2385a601" y="129.718182"/>
      </g>
     </g>
     <g id="text_9">
      <text style="font-family:DejaVu Sans;font-size:10px;font-stretch:normal;font-style:normal;font-weight:normal;text-anchor:end;" transform="rotate(-0, 24.5, 133.517401)" x="24.5" y="133.517401">0.2</text>
     </g>
    </g>
    <g id="ytick_3">
     <g id="line2d_9">
      <g>
       <use style="stroke:#000000;stroke-width:0.8;" x="31.5" xlink:href="#mef2385a601" y="104.263636"/>
      </g>
     </g>
     <g id="text_10">
      <text style="font-family:DejaVu Sans;font-size:10px;font-stretch:normal;font-style:normal;font-weight:normal;text-anchor:end;" transform="rotate(-0, 24.5, 108.062855)" x="24.5" y="108.062855">0.4</text>
     </g>
    </g>
    <g id="ytick_4">
     <g id="line2d_10">
      <g>
       <use style="stroke:#000000;stroke-width:0.8;" x="31.5" xlink:href="#mef2385a601" y="78.809091"/>
      </g>
     </g>
     <g id="text_11">
      <text style="font-family:DejaVu Sans;font-size:10px;font-stretch:normal;font-style:normal;font-weight:normal;text-anchor:end;" transform="rotate(-0, 24.5, 82.60831)" x="24.5" y="82.60831">0.6</text>
     </g>
    </g>
    <g id="ytick_5">
     <g id="line2d_11">
      <g>
       <use style="stroke:#000000;stroke-width:0.8;" x="31.5" xlink:href="#mef2385a601" y="53.354545"/>
      </g>
     </g>
     <g id="text_12">
      <text style="font-family:DejaVu Sans;font-size:10px;font-stretch:normal;font-style:normal;font-weight:normal;text-anchor:end;" transform="rotate(-0, 24.5, 57.153764)" x="24.5" y="57.153764">0.8</text>
     </g>
    </g>
    <g id="ytick_6">
     <g id="line2d_12">
      <g>
       <use style="stroke:#000000;stroke-width:0.8;" x="31.5" xlink:href="#mef2385a601" y="27.9"/>
      </g>
     </g>
     <g id="text_13">
      <text style="font-family:DejaVu Sans;font-size:10px;font-stretch:normal;font-style:normal;font-weight:normal;text-anchor:end;" transform="rotate(-0, 24.5, 31.699219)" x="24.5" y="31.699219">1.0</text>
     </g>
    </g>
    <g id="text_14">
     <text style="font-family:DejaVu Sans;font-size:10px;font-stretch:normal;font-style:normal;font-weight:normal;text-anchor:middle;" transform="rotate(-90, 2.239062, 90.9)" x="2.239062" y="90.9">sucess_rate</text>
    </g>
   </g>
   <g id="line2d_13">
    <path clip-path="url(#p392d2d222a)" d="M 40.377273 148.172727 
L 40.504091 148.172727 
L 40.630909 148.809091 
L 40.757727 148.809091 
L 40.884545 149.445455 
L 41.029481 149.445455 
L 41.156299 148.809091 
L 41.319351 148.809091 
L 41.337468 149.445455 
L 41.428052 148.809091 
L 41.536753 148.809091 
L 41.663571 148.172727 
L 41.754156 148.172727 
L 41.880974 148.809091 
L 41.989675 148.809091 
L 42.13461 147.536364 
L 42.261429 148.172727 
L 42.279545 148.172727 
L 42.406364 147.536364 
L 42.967987 147.536364 
L 43.076688 146.263636 
L 43.094805 146.9 
L 43.18539 146.9 
L 43.330325 148.172727 
L 43.76513 148.172727 
L 43.928182 150.081818 
L 44.652857 150.081818 
L 44.779675 150.718182 
L 44.906494 150.718182 
L 45.051429 149.445455 
L 45.16013 149.445455 
L 45.286948 150.081818 
L 45.486234 150.081818 
L 45.613052 149.445455 
L 45.757987 150.718182 
L 45.884805 150.081818 
L 45.902922 150.081818 
L 46.02974 150.718182 
L 46.102208 150.718182 
L 46.229026 150.081818 
L 46.537013 150.081818 
L 46.591364 149.445455 
L 46.627597 150.718182 
L 46.754416 150.718182 
L 46.881234 150.081818 
L 46.917468 150.081818 
L 47.044286 149.445455 
L 47.261688 149.445455 
L 47.388506 148.809091 
L 47.66026 148.809091 
L 47.787078 148.172727 
L 48.52987 148.172727 
L 48.692922 150.081818 
L 49.091494 150.081818 
L 49.10961 149.445455 
L 49.200195 150.081818 
L 49.327013 150.081818 
L 49.381364 149.445455 
L 49.435714 150.081818 
L 49.725584 150.081818 
L 49.852403 150.718182 
L 50.16039 150.718182 
L 50.250974 151.354545 
L 50.269091 150.718182 
L 50.377792 150.718182 
L 50.50461 151.354545 
L 50.540844 151.354545 
L 50.558961 151.990909 
L 50.649545 151.354545 
L 50.885065 151.354545 
L 51.011883 151.990909 
L 51.283636 151.990909 
L 51.410455 152.627273 
L 51.827143 152.627273 
L 51.953961 151.990909 
L 52.95039 151.990909 
L 53.077208 152.627273 
L 53.475779 152.627273 
L 53.602597 151.990909 
L 53.874351 151.990909 
L 54.001169 152.627273 
L 54.182338 152.627273 
L 54.309156 153.263636 
L 55.450519 153.263636 
L 55.577338 153.9 
L 55.758506 153.9 
L 55.885325 153.263636 
L 56.338247 153.263636 
L 56.465065 153.9 
L 56.936104 153.9 
L 57.062922 153.263636 
L 57.099156 153.263636 
L 57.225974 153.9 
L 58.439805 153.9 
L 58.58474 152.627273 
L 58.639091 152.627273 
L 58.765909 151.990909 
L 59.146364 151.990909 
L 59.291299 150.718182 
L 59.381883 150.718182 
L 59.508701 151.354545 
L 60.559481 151.354545 
L 60.686299 151.990909 
L 61.175455 151.990909 
L 61.302273 151.354545 
L 61.483442 151.354545 
L 61.61026 150.718182 
L 61.700844 150.718182 
L 61.827662 150.081818 
L 61.990714 150.081818 
L 62.063182 149.445455 
L 62.099416 150.081818 
L 62.117532 150.081818 
L 62.153766 149.445455 
L 62.226234 150.081818 
L 62.262468 150.081818 
L 62.389286 150.718182 
L 62.407403 150.718182 
L 62.534221 150.081818 
L 62.606688 150.081818 
L 62.733506 149.445455 
L 62.76974 149.445455 
L 62.896558 150.081818 
L 63.349481 150.081818 
L 63.494416 148.809091 
L 63.530649 148.809091 
L 63.657468 148.172727 
L 63.983571 148.172727 
L 64.11039 147.536364 
L 64.364026 147.536364 
L 64.527078 145.627273 
L 64.762597 145.627273 
L 64.907532 144.354545 
L 64.925649 144.354545 
L 65.052468 143.718182 
L 65.106818 143.718182 
L 65.124935 144.354545 
L 65.215519 143.718182 
L 65.324221 143.718182 
L 65.451039 144.354545 
L 65.577857 143.718182 
L 65.614091 143.718182 
L 65.759026 144.990909 
L 66.030779 144.990909 
L 66.157597 145.627273 
L 66.230065 145.627273 
L 66.284416 146.263636 
L 66.338766 145.627273 
L 66.393117 145.627273 
L 66.483701 144.990909 
L 66.501818 145.627273 
L 66.827922 145.627273 
L 66.972857 144.354545 
L 67.099675 144.990909 
L 67.154026 144.990909 
L 67.24461 145.627273 
L 67.262727 144.990909 
L 67.353312 144.990909 
L 67.48013 144.354545 
L 67.606948 144.354545 
L 67.733766 144.990909 
L 67.951169 144.990909 
L 67.987403 144.354545 
L 68.023636 145.627273 
L 68.041753 145.627273 
L 68.05987 145.627273 
L 68.168571 146.263636 
L 68.29539 145.627273 
L 68.440325 145.627273 
L 68.567143 146.9 
L 68.693961 146.263636 
L 68.748312 146.263636 
L 68.87513 146.9 
L 69.074416 146.9 
L 69.201234 147.536364 
L 69.436753 147.536364 
L 69.563571 146.9 
L 69.69039 146.9 
L 69.835325 145.627273 
L 69.907792 145.627273 
L 70.052727 146.9 
L 70.179545 146.263636 
L 70.451299 146.263636 
L 70.596234 147.536364 
L 70.632468 147.536364 
L 70.759286 148.172727 
L 70.867987 148.172727 
L 70.994805 148.809091 
L 71.067273 148.809091 
L 71.194091 148.172727 
L 71.42961 148.172727 
L 71.574545 146.9 
L 71.701364 147.536364 
L 71.791948 147.536364 
L 71.918766 148.172727 
L 71.973117 148.172727 
L 72.009351 147.536364 
L 72.081818 148.172727 
L 72.154286 148.172727 
L 72.299221 149.445455 
L 72.734026 149.445455 
L 72.878961 148.172727 
L 73.023896 148.172727 
L 73.150714 147.536364 
L 73.313766 147.536364 
L 73.440584 148.172727 
L 73.585519 146.9 
L 73.63987 146.9 
L 73.766688 146.263636 
L 73.784805 146.263636 
L 73.911623 145.627273 
L 74.292078 145.627273 
L 74.418896 144.990909 
L 74.509481 144.990909 
L 74.581948 144.354545 
L 74.618182 144.990909 
L 74.690649 144.990909 
L 74.817468 145.627273 
L 75.161688 145.627273 
L 75.234156 146.263636 
L 75.27039 145.627273 
L 75.596494 145.627273 
L 75.723312 146.263636 
L 76.158117 146.263636 
L 76.284935 145.627273 
L 76.357403 145.627273 
L 76.484221 146.9 
L 76.629156 145.627273 
L 76.647273 145.627273 
L 76.755974 146.9 
L 76.774091 146.263636 
L 76.792208 146.263636 
L 76.919026 145.627273 
L 76.973377 145.627273 
L 77.118312 146.9 
L 77.263247 146.9 
L 77.390065 148.172727 
L 77.408182 147.536364 
L 77.498766 148.172727 
L 77.553117 148.172727 
L 77.679935 147.536364 
L 77.788636 147.536364 
L 77.915455 146.263636 
L 78.042273 146.9 
L 78.096623 146.9 
L 78.132857 146.263636 
L 78.205325 146.9 
L 78.332143 146.9 
L 78.531429 143.718182 
L 78.875649 143.718182 
L 79.056818 141.172727 
L 79.074935 141.172727 
L 79.201753 140.536364 
L 79.21987 140.536364 
L 79.364805 139.263636 
L 79.401039 139.263636 
L 79.527857 138.627273 
L 79.781494 138.627273 
L 79.908312 139.263636 
L 80.03513 139.263636 
L 80.107597 137.990909 
L 80.161948 138.627273 
L 80.216299 138.627273 
L 80.343117 139.263636 
L 80.361234 139.263636 
L 80.379351 138.627273 
L 80.433701 139.9 
L 80.451818 139.9 
L 80.705455 139.9 
L 80.832273 140.536364 
L 80.940974 140.536364 
L 81.013442 139.9 
L 81.049675 140.536364 
L 81.14026 140.536364 
L 81.321429 137.990909 
L 81.412013 137.990909 
L 81.538831 139.263636 
L 81.665649 138.627273 
L 81.72 138.627273 
L 81.846818 139.263636 
L 81.901169 139.263636 
L 81.955519 138.627273 
L 82.00987 139.263636 
L 82.027987 139.263636 
L 82.064221 138.627273 
L 82.100455 139.9 
L 82.191039 141.172727 
L 82.227273 140.536364 
L 82.263506 140.536364 
L 82.390325 139.9 
L 82.480909 139.9 
L 82.625844 141.809091 
L 82.788896 139.9 
L 82.843247 139.9 
L 82.970065 141.172727 
L 83.024416 140.536364 
L 83.078766 141.172727 
L 83.205584 141.172727 
L 83.350519 139.9 
L 83.386753 139.9 
L 83.513571 139.263636 
L 83.549805 139.263636 
L 83.658506 137.354545 
L 83.676623 137.990909 
L 83.785325 138.627273 
L 83.912143 137.990909 
L 83.98461 137.990909 
L 84.020844 138.627273 
L 84.093312 137.990909 
L 84.147662 137.990909 
L 84.346948 134.809091 
L 84.546234 134.809091 
L 84.564351 134.172727 
L 84.654935 134.809091 
L 84.763636 134.809091 
L 84.908571 137.354545 
L 84.926688 136.718182 
L 85.162208 136.718182 
L 85.289026 137.354545 
L 85.361494 137.354545 
L 85.506429 136.081818 
L 85.524545 136.081818 
L 85.542662 136.718182 
L 85.578896 135.445455 
L 85.61513 135.445455 
L 85.651364 135.445455 
L 85.723831 136.081818 
L 85.741948 135.445455 
L 85.886883 132.9 
L 85.905 133.536364 
L 85.941234 133.536364 
L 85.995584 132.9 
L 86.049935 133.536364 
L 86.122403 133.536364 
L 86.321688 136.718182 
L 86.339805 136.718182 
L 86.48474 135.445455 
L 86.557208 135.445455 
L 86.684026 134.809091 
L 86.792727 134.809091 
L 86.919545 132.9 
L 86.937662 133.536364 
L 87.01013 133.536364 
L 87.064481 134.172727 
L 87.118831 133.536364 
L 87.173182 133.536364 
L 87.318117 135.445455 
L 87.408701 134.809091 
L 87.426818 135.445455 
L 87.58987 135.445455 
L 87.644221 134.809091 
L 87.698571 135.445455 
L 87.716688 135.445455 
L 87.771039 134.172727 
L 87.82539 135.445455 
L 87.915974 135.445455 
L 87.970325 136.718182 
L 88.024675 135.445455 
L 88.133377 135.445455 
L 88.296429 133.536364 
L 88.314545 133.536364 
L 88.441364 132.9 
L 88.531948 132.9 
L 88.586299 133.536364 
L 88.640649 132.9 
L 88.713117 132.9 
L 88.894286 130.354545 
L 88.98487 130.354545 
L 89.129805 131.627273 
L 89.166039 130.354545 
L 89.238506 131.627273 
L 89.347208 131.627273 
L 89.51026 134.809091 
L 89.528377 134.172727 
L 89.56461 134.172727 
L 89.691429 134.809091 
L 89.818247 134.172727 
L 89.963182 134.172727 
L 90.108117 135.445455 
L 90.180584 135.445455 
L 90.271169 136.718182 
L 90.307403 136.081818 
L 90.37987 136.081818 
L 90.416104 135.445455 
L 90.452338 136.718182 
L 90.470455 136.718182 
L 90.524805 137.990909 
L 90.579156 136.718182 
L 90.66974 136.718182 
L 90.796558 136.081818 
L 90.850909 136.081818 
L 90.941494 134.809091 
L 90.977727 135.445455 
L 91.050195 135.445455 
L 91.19513 134.172727 
L 91.303831 134.172727 
L 91.358182 133.536364 
L 91.412532 134.172727 
L 91.503117 134.172727 
L 91.648052 135.445455 
L 91.684286 135.445455 
L 91.829221 134.172727 
L 91.901688 134.172727 
L 92.01039 135.445455 
L 92.028506 134.809091 
L 92.046623 134.809091 
L 92.191558 133.536364 
L 92.209675 133.536364 
L 92.227792 134.172727 
L 92.264026 132.9 
L 92.30026 132.9 
L 92.336494 132.9 
L 92.463312 134.809091 
L 92.481429 134.172727 
L 92.499545 134.172727 
L 92.626364 133.536364 
L 92.680714 133.536364 
L 92.753182 132.9 
L 92.771299 133.536364 
L 92.807532 134.172727 
L 92.88 133.536364 
L 92.988701 133.536364 
L 93.115519 134.172727 
L 93.133636 134.172727 
L 93.260455 134.809091 
L 93.278571 134.809091 
L 93.45974 132.263636 
L 93.477857 132.263636 
L 93.604675 131.627273 
L 93.69526 131.627273 
L 93.876429 129.081818 
L 93.894545 129.081818 
L 93.948896 129.718182 
L 93.98513 128.445455 
L 94.021364 128.445455 
L 94.166299 126.536364 
L 94.238766 127.172727 
L 94.256883 126.536364 
L 94.365584 125.9 
L 94.510519 127.172727 
L 94.56487 127.172727 
L 94.709805 125.9 
L 94.746039 125.9 
L 94.927208 123.354545 
L 94.945325 123.354545 
L 95.09026 122.081818 
L 95.126494 122.081818 
L 95.271429 120.809091 
L 95.362013 120.809091 
L 95.470714 120.172727 
L 95.597532 120.809091 
L 95.633766 120.809091 
L 95.651883 121.445455 
L 95.706234 120.172727 
L 95.724351 120.172727 
L 95.760584 120.172727 
L 95.851169 118.263636 
L 95.905519 118.9 
L 95.95987 118.9 
L 96.086688 116.354545 
L 96.122922 116.990909 
L 96.19539 117.627273 
L 96.213506 116.990909 
L 96.376558 115.081818 
L 96.394675 115.081818 
L 96.575844 112.536364 
L 96.593961 112.536364 
L 96.757013 110.627273 
L 96.77513 110.627273 
L 96.901948 107.445455 
L 96.956299 108.081818 
L 96.974416 108.081818 
L 97.119351 109.354545 
L 97.372987 104.263636 
L 97.427338 104.263636 
L 97.64474 99.809091 
L 97.717208 100.445455 
L 97.735325 99.809091 
L 97.862143 97.9 
L 97.88026 98.536364 
L 97.898377 98.536364 
L 98.206364 91.536364 
L 98.224481 91.536364 
L 98.278831 90.263636 
L 98.333182 91.536364 
L 98.387532 91.536364 
L 98.441883 90.9 
L 98.514351 92.172727 
L 98.74987 87.081818 
L 98.767987 87.718182 
L 98.822338 86.445455 
L 99.03974 82.627273 
L 99.075974 82.627273 
L 99.220909 81.354545 
L 99.239026 81.354545 
L 99.365844 80.081818 
L 99.528896 81.990909 
L 99.547013 81.990909 
L 99.691948 80.718182 
L 99.710065 80.718182 
L 99.818766 78.809091 
L 99.855 79.445455 
L 99.909351 79.445455 
L 100.090519 76.263636 
L 100.181104 77.536364 
L 100.199221 76.9 
L 100.344156 75.627273 
L 100.362273 75.627273 
L 100.452857 74.354545 
L 100.489091 74.990909 
L 100.525325 74.990909 
L 100.67026 73.718182 
L 100.706494 73.718182 
L 100.760844 73.081818 
L 100.797078 74.354545 
L 100.887662 74.990909 
L 100.905779 74.354545 
L 100.923896 74.354545 
L 101.050714 73.718182 
L 101.195649 76.263636 
L 101.213766 75.627273 
L 101.231883 75.627273 
L 101.268117 76.9 
L 101.322468 75.627273 
L 101.431169 74.990909 
L 101.485519 76.263636 
L 101.557987 75.627273 
L 101.648571 75.627273 
L 101.811623 77.536364 
L 101.884091 77.536364 
L 102.047143 74.354545 
L 102.06526 74.990909 
L 102.083377 74.990909 
L 102.228312 73.718182 
L 102.318896 73.718182 
L 102.463831 74.990909 
L 102.500065 74.990909 
L 102.699351 78.172727 
L 102.717468 78.172727 
L 102.916753 74.990909 
L 102.971104 74.990909 
L 103.043571 75.627273 
L 103.079805 74.990909 
L 103.097922 74.990909 
L 103.188506 74.354545 
L 103.206623 74.990909 
L 103.369675 76.9 
L 103.51461 73.718182 
L 103.532727 74.354545 
L 103.659545 74.990909 
L 103.695779 74.990909 
L 103.876948 72.445455 
L 103.931299 72.445455 
L 104.003766 71.172727 
L 104.058117 71.809091 
L 104.221169 71.809091 
L 104.438571 67.990909 
L 104.492922 67.990909 
L 104.61974 66.718182 
L 104.746558 67.990909 
L 104.891494 66.718182 
L 104.90961 66.718182 
L 105.000195 67.990909 
L 105.036429 67.354545 
L 105.054545 67.354545 
L 105.181364 66.718182 
L 105.199481 66.718182 
L 105.326299 66.081818 
L 105.344416 66.081818 
L 105.507468 64.172727 
L 105.525584 64.172727 
L 105.579935 63.536364 
L 105.616169 64.809091 
L 105.670519 66.081818 
L 105.72487 65.445455 
L 105.797338 64.172727 
L 105.851688 64.809091 
L 105.942273 66.718182 
L 105.996623 66.081818 
L 106.032857 66.081818 
L 106.141558 65.445455 
L 106.232143 66.718182 
L 106.25026 66.081818 
L 106.322727 64.809091 
L 106.377078 65.445455 
L 106.395195 65.445455 
L 106.54013 66.718182 
L 106.757532 62.9 
L 106.811883 62.9 
L 106.938701 60.990909 
L 106.956818 61.627273 
L 107.011169 61.627273 
L 107.137987 62.263636 
L 107.156104 62.263636 
L 107.301039 60.990909 
L 107.319156 60.990909 
L 107.40974 62.9 
L 107.464091 62.263636 
L 107.536558 62.263636 
L 107.717727 59.718182 
L 107.753961 59.718182 
L 107.917013 61.627273 
L 108.007597 60.990909 
L 108.025714 61.627273 
L 108.043831 61.627273 
L 108.206883 63.536364 
L 108.243117 63.536364 
L 108.406169 61.627273 
L 108.478636 62.9 
L 108.532987 62.263636 
L 108.659805 61.627273 
L 108.714156 61.627273 
L 108.75039 60.990909 
L 108.80474 62.263636 
L 108.859091 62.263636 
L 108.949675 61.627273 
L 108.967792 62.263636 
L 109.04026 62.263636 
L 109.203312 64.172727 
L 109.366364 62.263636 
L 109.420714 62.263636 
L 109.565649 60.990909 
L 109.583766 60.990909 
L 109.601883 60.354545 
L 109.674351 60.990909 
L 109.764935 61.627273 
L 109.783052 60.990909 
L 109.801169 60.990909 
L 110.036688 56.536364 
L 110.091039 56.536364 
L 110.109156 55.9 
L 110.163506 57.172727 
L 110.181623 57.172727 
L 110.380909 60.354545 
L 110.48961 58.445455 
L 110.525844 59.081818 
L 110.562078 59.718182 
L 110.598312 58.445455 
L 110.652662 57.809091 
L 110.707013 58.445455 
L 110.761364 58.445455 
L 110.779481 57.809091 
L 110.870065 58.445455 
L 110.996883 58.445455 
L 111.051234 57.172727 
L 111.105584 57.809091 
L 111.196169 59.081818 
L 111.232403 58.445455 
L 111.250519 58.445455 
L 111.377338 59.081818 
L 111.558506 56.536364 
L 111.576623 56.536364 
L 111.630974 57.809091 
L 111.685325 56.536364 
L 111.703442 56.536364 
L 111.775909 57.172727 
L 111.83026 55.9 
L 112.029545 59.081818 
L 112.156364 58.445455 
L 112.210714 58.445455 
L 112.228831 57.809091 
L 112.283182 59.718182 
L 112.319416 60.354545 
L 112.373766 59.718182 
L 112.500584 59.081818 
L 112.554935 59.718182 
L 112.591169 58.445455 
L 112.627403 58.445455 
L 112.663636 59.718182 
L 112.754221 59.081818 
L 112.899156 59.081818 
L 112.971623 58.445455 
L 113.007857 59.081818 
L 113.080325 59.081818 
L 113.22526 60.354545 
L 113.297727 60.354545 
L 113.424545 59.718182 
L 113.587597 61.627273 
L 113.605714 60.990909 
L 113.696299 61.627273 
L 113.732532 61.627273 
L 113.895584 59.718182 
L 113.913701 59.718182 
L 114.040519 58.445455 
L 114.112987 59.081818 
L 114.149221 58.445455 
L 114.276039 58.445455 
L 114.38474 57.809091 
L 114.511558 58.445455 
L 114.656494 58.445455 
L 114.67461 59.081818 
L 114.747078 57.809091 
L 114.892013 56.536364 
L 114.982597 56.536364 
L 115.091299 57.172727 
L 115.109416 56.536364 
L 115.181883 57.172727 
L 115.2 57.809091 
L 115.236234 56.536364 
L 115.272468 56.536364 
L 115.381169 56.536364 
L 115.580455 53.354545 
L 115.598571 53.354545 
L 115.77974 50.809091 
L 115.852208 50.809091 
L 116.033377 48.263636 
L 116.051494 48.263636 
L 116.196429 49.536364 
L 116.232662 49.536364 
L 116.413831 46.990909 
L 116.431948 46.990909 
L 116.558766 47.627273 
L 116.595 47.627273 
L 116.721818 46.990909 
L 116.739935 46.990909 
L 116.921104 44.445455 
L 116.957338 44.445455 
L 117.084156 43.809091 
L 117.102273 43.809091 
L 117.247208 42.536364 
L 117.337792 42.536364 
L 117.500844 44.445455 
L 117.663896 44.445455 
L 117.790714 43.809091 
L 117.935649 45.081818 
L 117.971883 45.081818 
L 118.008117 45.718182 
L 118.044351 44.445455 
L 118.062468 44.445455 
L 118.27987 44.445455 
L 118.406688 43.809091 
L 118.424805 43.809091 
L 118.587857 45.718182 
L 118.605974 45.718182 
L 118.750909 44.445455 
L 118.895844 45.718182 
L 118.968312 45.718182 
L 119.058896 45.081818 
L 119.077013 45.718182 
L 119.09513 45.718182 
L 119.221948 46.354545 
L 119.294416 46.354545 
L 119.439351 47.627273 
L 119.457468 47.627273 
L 119.638636 50.809091 
L 119.747338 50.172727 
L 119.765455 50.809091 
L 119.801688 49.536364 
L 119.837922 49.536364 
L 119.91039 49.536364 
L 120.000974 50.172727 
L 120.019091 49.536364 
L 120.037208 49.536364 
L 120.164026 50.172727 
L 120.218377 50.172727 
L 120.399545 52.718182 
L 120.417662 52.718182 
L 120.562597 53.990909 
L 120.616948 53.990909 
L 120.635065 53.354545 
L 120.689416 54.627273 
L 120.725649 53.990909 
L 120.870584 55.263636 
L 120.961169 55.263636 
L 121.124221 52.081818 
L 121.142338 52.718182 
L 121.269156 52.718182 
L 121.30539 53.990909 
L 121.395974 53.354545 
L 121.450325 53.354545 
L 121.59526 52.081818 
L 121.64961 52.081818 
L 121.812662 54.627273 
L 121.867013 53.990909 
L 121.921364 54.627273 
L 121.975714 54.627273 
L 122.102532 55.263636 
L 122.156883 54.627273 
L 122.211234 55.263636 
L 122.229351 55.263636 
L 122.374286 56.536364 
L 122.519221 55.263636 
L 122.682273 55.263636 
L 122.70039 54.627273 
L 122.75474 55.9 
L 122.772857 55.9 
L 122.809091 55.9 
L 122.954026 57.172727 
L 122.972143 57.172727 
L 123.171429 53.990909 
L 123.207662 53.990909 
L 123.334481 53.354545 
L 123.370714 53.354545 
L 123.406948 52.718182 
L 123.443182 53.990909 
L 123.461299 53.990909 
L 123.533766 53.990909 
L 123.57 53.354545 
L 123.642468 53.990909 
L 123.660584 53.990909 
L 123.805519 52.718182 
L 123.841753 52.718182 
L 124.004805 50.172727 
L 124.131623 50.809091 
L 124.14974 50.809091 
L 124.276558 50.172727 
L 124.294675 50.172727 
L 124.43961 48.9 
L 124.457727 48.9 
L 124.584545 48.263636 
L 124.729481 49.536364 
L 124.747597 49.536364 
L 124.874416 48.9 
L 124.892532 48.9 
L 124.928766 47.627273 
L 125.019351 48.263636 
L 125.037468 48.263636 
L 125.164286 47.627273 
L 125.272987 47.627273 
L 125.454156 45.081818 
L 125.49039 45.081818 
L 125.617208 44.445455 
L 125.671558 44.445455 
L 125.83461 42.536364 
L 125.852727 42.536364 
L 125.997662 41.263636 
L 126.106364 41.263636 
L 126.160714 40.627273 
L 126.196948 41.9 
L 126.215065 41.9 
L 126.323766 42.536364 
L 126.504935 39.990909 
L 126.523052 39.990909 
L 126.667987 38.718182 
L 126.758571 38.718182 
L 126.903506 39.990909 
L 126.93974 39.354545 
L 127.012208 39.990909 
L 127.030325 39.990909 
L 127.17526 38.718182 
L 127.537597 38.718182 
L 127.700649 36.809091 
L 127.827468 36.809091 
L 127.845584 36.172727 
L 127.918052 36.809091 
L 127.954286 37.445455 
L 128.026753 36.809091 
L 128.207922 36.809091 
L 128.352857 35.536364 
L 128.443442 35.536364 
L 128.57026 36.172727 
L 128.842013 36.172727 
L 128.968831 35.536364 
L 129.204351 35.536364 
L 129.331169 36.172727 
L 129.385519 36.172727 
L 129.512338 36.809091 
L 129.530455 36.809091 
L 129.67539 38.081818 
L 129.72974 38.081818 
L 129.784091 38.718182 
L 129.820325 37.445455 
L 129.838442 37.445455 
L 129.96526 36.809091 
L 130.092078 37.445455 
L 130.381948 37.445455 
L 130.472532 36.172727 
L 130.490649 36.809091 
L 130.563117 37.445455 
L 130.599351 36.809091 
L 130.816753 36.809091 
L 130.943571 36.172727 
L 131.197208 36.172727 
L 131.324026 36.809091 
L 131.468961 36.809091 
L 131.613896 35.536364 
L 131.668247 35.536364 
L 131.795065 36.172727 
L 131.958117 36.172727 
L 132.066818 36.809091 
L 132.193636 36.172727 
L 132.392922 36.172727 
L 132.51974 36.809091 
L 132.80961 36.809091 
L 132.936429 36.172727 
L 133.008896 36.172727 
L 133.099481 35.536364 
L 133.117597 36.172727 
L 133.153831 36.172727 
L 133.280649 35.536364 
L 133.353117 35.536364 
L 133.479935 34.9 
L 133.588636 34.9 
L 133.715455 34.263636 
L 133.824156 34.263636 
L 133.950974 34.9 
L 134.095909 34.9 
L 134.240844 33.627273 
L 134.784351 33.627273 
L 134.820584 34.263636 
L 134.893052 33.627273 
L 135.146688 33.627273 
L 135.273506 34.263636 
L 135.291623 34.263636 
L 135.418442 33.627273 
L 135.581494 33.627273 
L 135.708312 32.990909 
L 135.744545 32.990909 
L 135.871364 32.354545 
L 136.016299 32.354545 
L 136.106883 31.718182 
L 136.125 32.354545 
L 136.432987 32.354545 
L 136.559805 32.990909 
L 136.722857 32.990909 
L 136.867792 31.718182 
L 137.791753 31.718182 
L 137.936688 32.990909 
L 138.009156 32.990909 
L 138.135974 33.627273 
L 138.407727 33.627273 
L 138.534545 32.990909 
L 138.770065 32.990909 
L 138.896883 32.354545 
L 139.150519 32.354545 
L 139.277338 32.990909 
L 139.73026 32.990909 
L 139.857078 32.354545 
L 140.056364 32.354545 
L 140.201299 31.081818 
L 140.817273 31.081818 
L 140.962208 32.354545 
L 141.070909 32.354545 
L 141.197727 31.718182 
L 141.41513 31.718182 
L 141.560065 30.445455 
L 141.632532 30.445455 
L 141.741234 29.809091 
L 141.868052 30.445455 
L 142.121688 30.445455 
L 142.248506 31.081818 
L 142.28474 31.081818 
L 142.411558 31.718182 
L 142.773896 31.718182 
L 142.900714 31.081818 
L 143.426104 31.081818 
L 143.552922 31.718182 
L 144.440649 31.718182 
L 144.585584 30.445455 
L 145.038506 30.445455 
L 145.165325 31.081818 
L 145.36461 31.081818 
L 145.491429 30.445455 
L 145.745065 30.445455 
L 145.871883 29.809091 
L 145.908117 29.809091 
L 146.034935 29.172727 
L 147.049481 29.172727 
L 147.176299 28.536364 
L 148.661883 28.536364 
L 148.788701 27.9 
L 150.165584 27.9 
L 150.292403 28.536364 
L 153.299805 28.536364 
L 153.426623 29.172727 
L 153.788961 29.172727 
L 153.915779 28.536364 
L 156.923182 28.536364 
L 157.05 27.9 
L 162.503182 27.9 
L 162.63 28.536364 
L 166.126558 28.536364 
L 166.253377 27.9 
L 181.091104 27.9 
L 181.217922 28.536364 
L 183.120195 28.536364 
L 183.247013 29.172727 
L 184.714481 29.172727 
L 184.841299 28.536364 
L 186.743571 28.536364 
L 186.797922 27.9 
L 186.852273 28.536364 
L 190.421299 28.536364 
L 190.548117 27.9 
L 192.540974 27.9 
L 192.667792 28.536364 
L 193.881623 28.536364 
L 194.008442 29.172727 
L 196.164351 29.172727 
L 196.291169 28.536364 
L 197.505 28.536364 
L 197.631818 27.9 
L 217.922727 27.9 
L 217.922727 27.9 
" style="fill:none;stroke:#0000ff;stroke-linecap:square;stroke-width:1.5;"/>
   </g>
   <g id="line2d_14">
    <path clip-path="url(#p392d2d222a)" d="M 40.377273 153.263636 
L 41.717922 153.263636 
L 41.84474 152.627273 
L 41.989675 152.627273 
L 42.13461 151.354545 
L 42.496948 151.354545 
L 42.623766 150.718182 
L 42.750584 150.718182 
L 42.877403 150.081818 
L 42.895519 150.081818 
L 43.076688 147.536364 
L 43.131039 147.536364 
L 43.257857 148.172727 
L 43.439026 148.172727 
L 43.493377 148.809091 
L 43.547727 148.172727 
L 43.602078 148.172727 
L 43.747013 146.9 
L 43.855714 146.9 
L 43.946299 145.627273 
L 43.982532 146.263636 
L 44.073117 146.263636 
L 44.236169 144.354545 
L 44.326753 144.354545 
L 44.453571 143.718182 
L 44.544156 143.718182 
L 44.670974 143.081818 
L 44.707208 143.081818 
L 44.852143 141.809091 
L 44.906494 141.809091 
L 45.069545 139.9 
L 45.341299 139.9 
L 45.468117 140.536364 
L 45.486234 140.536364 
L 45.649286 138.627273 
L 45.757987 139.263636 
L 45.884805 138.627273 
L 45.97539 138.627273 
L 46.120325 137.354545 
L 46.156558 137.990909 
L 46.210909 137.354545 
L 46.373961 134.809091 
L 46.500779 135.445455 
L 46.518896 135.445455 
L 46.645714 136.718182 
L 46.808766 134.809091 
L 46.881234 134.809091 
L 47.026169 133.536364 
L 47.116753 133.536364 
L 47.261688 134.809091 
L 47.388506 134.172727 
L 47.479091 134.172727 
L 47.624026 135.445455 
L 47.66026 135.445455 
L 47.696494 134.172727 
L 47.750844 135.445455 
L 47.877662 136.081818 
L 47.913896 136.081818 
L 48.113182 132.9 
L 48.167532 132.9 
L 48.294351 133.536364 
L 48.330584 133.536364 
L 48.366818 134.172727 
L 48.421169 132.9 
L 48.439286 133.536364 
L 48.52987 133.536364 
L 48.620455 135.445455 
L 48.656688 134.172727 
L 48.674805 134.172727 
L 48.81974 132.9 
L 48.837857 132.9 
L 48.982792 131.627273 
L 49.10961 131.627273 
L 49.290779 134.172727 
L 49.327013 134.172727 
L 49.381364 133.536364 
L 49.435714 134.172727 
L 49.490065 134.172727 
L 49.598766 133.536364 
L 49.671234 134.172727 
L 49.707468 133.536364 
L 49.725584 133.536364 
L 49.852403 134.172727 
L 49.888636 134.172727 
L 49.961104 136.081818 
L 50.015455 134.809091 
L 50.16039 134.809091 
L 50.305325 136.081818 
L 50.341558 136.081818 
L 50.468377 137.354545 
L 50.50461 136.718182 
L 50.558961 137.990909 
L 50.577078 137.354545 
L 50.631429 137.354545 
L 50.758247 136.718182 
L 50.848831 137.354545 
L 50.866948 136.718182 
L 50.885065 136.081818 
L 50.975649 136.718182 
L 51.265519 136.718182 
L 51.283636 136.081818 
L 51.31987 137.354545 
L 51.356104 137.354545 
L 51.446688 137.354545 
L 51.537273 136.718182 
L 51.55539 137.354545 
L 51.700325 138.627273 
L 51.718442 138.627273 
L 51.827143 139.263636 
L 51.972078 137.990909 
L 51.990195 137.990909 
L 52.13513 139.263636 
L 52.243831 139.263636 
L 52.425 141.809091 
L 52.461234 141.809091 
L 52.569935 143.081818 
L 52.588052 142.445455 
L 52.606169 142.445455 
L 52.787338 139.9 
L 52.932273 139.9 
L 52.95039 139.263636 
L 53.040974 139.9 
L 53.113442 139.9 
L 53.24026 140.536364 
L 53.258377 140.536364 
L 53.385195 139.9 
L 53.403312 139.9 
L 53.566364 137.990909 
L 53.584481 137.990909 
L 53.729416 139.263636 
L 53.82 139.263636 
L 53.874351 138.627273 
L 53.928701 139.263636 
L 54.091753 139.263636 
L 54.218571 139.9 
L 54.254805 139.9 
L 54.381623 140.536364 
L 54.39974 140.536364 
L 54.472208 139.9 
L 54.490325 140.536364 
L 54.617143 141.172727 
L 54.798312 141.172727 
L 54.92513 140.536364 
L 54.997597 140.536364 
L 55.070065 139.9 
L 55.106299 140.536364 
L 55.215 140.536364 
L 55.359935 141.809091 
L 55.450519 141.809091 
L 55.577338 142.445455 
L 55.686039 142.445455 
L 55.849091 140.536364 
L 56.03026 140.536364 
L 56.175195 139.263636 
L 56.193312 139.263636 
L 56.302013 140.536364 
L 56.32013 139.9 
L 56.374481 139.9 
L 56.501299 140.536364 
L 56.682468 140.536364 
L 56.809286 139.9 
L 56.863636 139.9 
L 56.972338 139.263636 
L 57.13539 141.172727 
L 57.153506 141.172727 
L 57.18974 141.809091 
L 57.262208 141.172727 
L 57.280325 141.172727 
L 57.407143 140.536364 
L 57.443377 140.536364 
L 57.515844 141.172727 
L 57.552078 140.536364 
L 57.787597 140.536364 
L 57.914416 141.172727 
L 57.950649 141.172727 
L 58.077468 140.536364 
L 58.095584 140.536364 
L 58.222403 139.9 
L 58.349221 139.9 
L 58.476039 139.263636 
L 58.512273 139.263636 
L 58.620974 138.627273 
L 58.639091 139.263636 
L 58.711558 138.627273 
L 58.87461 136.718182 
L 58.965195 136.718182 
L 59.128247 134.809091 
L 59.146364 134.809091 
L 59.291299 133.536364 
L 59.309416 133.536364 
L 59.436234 134.172727 
L 59.653636 134.172727 
L 59.798571 135.445455 
L 59.889156 135.445455 
L 60.034091 136.718182 
L 60.233377 136.718182 
L 60.378312 135.445455 
L 60.414545 135.445455 
L 60.487013 134.809091 
L 60.523247 135.445455 
L 60.559481 135.445455 
L 60.668182 136.718182 
L 60.686299 136.081818 
L 60.722532 136.081818 
L 60.813117 134.809091 
L 60.849351 135.445455 
L 60.903701 135.445455 
L 60.994286 136.081818 
L 61.012403 135.445455 
L 61.102987 135.445455 
L 61.32039 131.627273 
L 61.483442 131.627273 
L 61.574026 130.354545 
L 61.61026 130.990909 
L 61.66461 130.990909 
L 61.791429 131.627273 
L 61.863896 131.627273 
L 62.026948 129.718182 
L 62.045065 129.718182 
L 62.135649 128.445455 
L 62.153766 129.081818 
L 62.298701 130.354545 
L 62.443636 129.081818 
L 62.570455 129.718182 
L 62.697273 129.081818 
L 62.733506 129.081818 
L 62.860325 129.718182 
L 63.00526 128.445455 
L 63.077727 129.718182 
L 63.132078 129.081818 
L 63.29513 127.172727 
L 63.349481 127.172727 
L 63.548766 123.990909 
L 63.657468 123.990909 
L 63.87487 120.172727 
L 64.001688 120.809091 
L 64.037922 120.172727 
L 64.11039 120.809091 
L 64.128506 120.809091 
L 64.309675 116.990909 
L 64.327792 117.627273 
L 64.345909 117.627273 
L 64.382143 118.263636 
L 64.418377 116.990909 
L 64.617662 113.172727 
L 64.635779 113.809091 
L 64.672013 112.536364 
L 64.69013 112.536364 
L 64.835065 111.263636 
L 64.871299 111.263636 
L 65.143052 105.536364 
L 65.161169 105.536364 
L 65.179286 106.172727 
L 65.233636 104.9 
L 65.595974 95.990909 
L 65.759026 97.9 
L 65.940195 95.354545 
L 65.958312 95.354545 
L 66.030779 92.809091 
L 66.103247 94.081818 
L 66.121364 94.081818 
L 66.302532 91.536364 
L 66.320649 91.536364 
L 66.483701 88.990909 
L 66.519935 90.263636 
L 66.610519 89.627273 
L 66.827922 85.809091 
L 66.846039 85.809091 
L 66.972857 83.263636 
L 67.009091 83.9 
L 67.172143 85.809091 
L 67.353312 83.263636 
L 67.534481 85.809091 
L 67.751883 81.990909 
L 67.824351 81.990909 
L 67.951169 83.9 
L 67.969286 83.263636 
L 68.005519 83.263636 
L 68.077987 85.172727 
L 68.114221 83.9 
L 68.277273 81.990909 
L 68.458442 84.536364 
L 68.476558 84.536364 
L 68.63961 86.445455 
L 68.675844 85.809091 
L 68.712078 87.081818 
L 68.730195 87.081818 
L 68.766429 87.718182 
L 68.802662 86.445455 
L 68.838896 87.081818 
L 68.857013 87.081818 
L 69.074416 90.9 
L 69.092532 90.9 
L 69.110649 90.263636 
L 69.165 91.536364 
L 69.201234 90.9 
L 69.346169 92.172727 
L 69.509221 90.263636 
L 69.563571 90.263636 
L 69.69039 89.627273 
L 69.708506 89.627273 
L 69.889675 92.172727 
L 69.907792 92.172727 
L 69.944026 90.9 
L 70.03461 91.536364 
L 70.088961 91.536364 
L 70.233896 90.263636 
L 70.288247 89.627273 
L 70.378831 92.172727 
L 70.396948 91.536364 
L 70.433182 92.809091 
L 70.469416 92.809091 
L 70.56 94.081818 
L 70.596234 93.445455 
L 70.614351 93.445455 
L 70.831753 89.627273 
L 70.904221 89.627273 
L 71.08539 92.172727 
L 71.121623 92.172727 
L 71.230325 90.9 
L 71.248442 91.536364 
L 71.266558 91.536364 
L 71.320909 90.9 
L 71.411494 92.809091 
L 71.42961 92.809091 
L 71.610779 90.263636 
L 71.66513 90.9 
L 71.719481 90.263636 
L 71.755714 90.263636 
L 71.900649 94.081818 
L 71.955 93.445455 
L 72.081818 92.172727 
L 72.136169 91.536364 
L 72.226753 93.445455 
L 72.371688 92.172727 
L 72.426039 92.172727 
L 72.607208 89.627273 
L 72.661558 89.627273 
L 72.788377 90.9 
L 72.969545 88.354545 
L 73.005779 88.354545 
L 73.150714 90.263636 
L 73.241299 89.627273 
L 73.259416 90.263636 
L 73.295649 90.263636 
L 73.458701 88.354545 
L 73.531169 88.354545 
L 73.63987 89.627273 
L 73.657987 88.990909 
L 73.694221 88.990909 
L 73.802922 88.354545 
L 73.965974 90.9 
L 74.147143 88.354545 
L 74.16526 88.354545 
L 74.237727 87.718182 
L 74.255844 88.354545 
L 74.346429 88.990909 
L 74.364545 88.354545 
L 74.382662 88.354545 
L 74.473247 87.718182 
L 74.491364 88.354545 
L 74.509481 88.990909 
L 74.581948 88.354545 
L 74.690649 87.718182 
L 74.853701 89.627273 
L 74.871818 89.627273 
L 74.998636 91.536364 
L 75.016753 90.9 
L 75.125455 90.263636 
L 75.234156 90.9 
L 75.288506 89.627273 
L 75.342857 90.263636 
L 75.379091 90.9 
L 75.433442 90.263636 
L 75.578377 88.990909 
L 75.61461 88.990909 
L 75.668961 89.627273 
L 75.705195 88.354545 
L 75.741429 88.354545 
L 75.832013 88.990909 
L 75.85013 88.354545 
L 75.868247 88.354545 
L 76.031299 86.445455 
L 76.14 86.445455 
L 76.230584 85.809091 
L 76.248701 86.445455 
L 76.375519 87.081818 
L 76.393636 87.081818 
L 76.411753 86.445455 
L 76.466104 87.718182 
L 76.484221 87.718182 
L 76.502338 87.718182 
L 76.611039 89.627273 
L 76.629156 88.990909 
L 76.774091 87.718182 
L 76.846558 87.718182 
L 77.027727 90.263636 
L 77.082078 90.9 
L 77.154545 89.627273 
L 77.190779 89.627273 
L 77.24513 88.990909 
L 77.299481 89.627273 
L 77.335714 89.627273 
L 77.535 86.445455 
L 77.571234 86.445455 
L 77.698052 85.809091 
L 77.82487 86.445455 
L 77.842987 86.445455 
L 77.861104 87.081818 
L 77.897338 85.809091 
L 77.951688 86.445455 
L 77.969805 85.809091 
L 78.042273 87.081818 
L 78.06039 87.081818 
L 78.078506 87.718182 
L 78.11474 86.445455 
L 78.150974 86.445455 
L 78.169091 86.445455 
L 78.314026 85.172727 
L 78.332143 85.172727 
L 78.567662 80.718182 
L 78.603896 80.718182 
L 78.712597 79.445455 
L 78.730714 80.081818 
L 78.748831 80.081818 
L 78.875649 79.445455 
L 78.893766 79.445455 
L 78.911883 80.081818 
L 78.948117 78.809091 
L 78.984351 78.809091 
L 79.074935 78.809091 
L 79.201753 78.172727 
L 79.21987 78.172727 
L 79.256104 77.536364 
L 79.310455 78.172727 
L 79.437273 78.809091 
L 79.564091 78.172727 
L 79.582208 78.172727 
L 79.835844 83.263636 
L 79.853961 83.263636 
L 80.017013 80.718182 
L 80.03513 81.354545 
L 80.089481 80.081818 
L 80.107597 80.081818 
L 80.143831 80.081818 
L 80.234416 78.172727 
L 80.270649 79.445455 
L 80.288766 80.081818 
L 80.361234 79.445455 
L 80.415584 78.809091 
L 80.451818 80.081818 
L 80.469935 80.081818 
L 80.596753 79.445455 
L 80.632987 79.445455 
L 80.777922 78.172727 
L 80.868506 78.172727 
L 80.940974 77.536364 
L 80.959091 78.172727 
L 81.104026 81.354545 
L 81.14026 80.718182 
L 81.303312 78.809091 
L 81.321429 79.445455 
L 81.393896 78.172727 
L 81.412013 78.809091 
L 81.43013 78.809091 
L 81.538831 80.081818 
L 81.556948 79.445455 
L 81.593182 79.445455 
L 81.611299 78.809091 
L 81.683766 80.081818 
L 81.701883 79.445455 
L 81.846818 80.718182 
L 81.864935 80.718182 
L 81.919286 80.081818 
L 81.973636 80.718182 
L 81.991753 80.718182 
L 82.118571 82.627273 
L 82.136688 81.990909 
L 82.191039 82.627273 
L 82.263506 81.354545 
L 82.29974 81.354545 
L 82.317857 81.990909 
L 82.354091 80.718182 
L 82.390325 80.718182 
L 82.462792 79.445455 
L 82.517143 80.081818 
L 82.53526 80.081818 
L 82.643961 80.718182 
L 82.82513 78.172727 
L 82.861364 79.445455 
L 82.933831 78.809091 
L 82.988182 77.536364 
L 83.060649 78.172727 
L 83.096883 79.445455 
L 83.187468 78.809091 
L 83.205584 78.809091 
L 83.441104 74.354545 
L 83.459221 74.354545 
L 83.513571 74.990909 
L 83.586039 73.718182 
L 83.604156 73.718182 
L 83.69474 73.081818 
L 83.730974 74.354545 
L 83.749091 74.354545 
L 83.785325 73.718182 
L 83.821558 74.990909 
L 83.839675 75.627273 
L 83.875909 74.354545 
L 83.894026 74.354545 
L 83.966494 73.081818 
L 84.002727 74.354545 
L 84.020844 74.354545 
L 84.038961 74.990909 
L 84.093312 73.081818 
L 84.111429 73.081818 
L 84.274481 71.172727 
L 84.328831 71.172727 
L 84.455649 71.809091 
L 84.473766 71.809091 
L 84.528117 72.445455 
L 84.582468 71.809091 
L 84.709286 67.990909 
L 84.763636 69.263636 
L 84.836104 69.263636 
L 84.999156 71.172727 
L 85.017273 71.172727 
L 85.144091 69.263636 
L 85.162208 69.9 
L 85.289026 72.445455 
L 85.32526 71.809091 
L 85.470195 70.536364 
L 85.506429 71.172727 
L 85.542662 69.9 
L 85.705714 67.990909 
L 85.868766 69.9 
L 85.886883 69.9 
L 86.086169 73.081818 
L 86.104286 72.445455 
L 86.19487 73.081818 
L 86.231104 73.081818 
L 86.267338 72.445455 
L 86.339805 73.081818 
L 86.448506 74.354545 
L 86.466623 73.718182 
L 86.557208 73.081818 
L 86.575325 73.718182 
L 86.593442 73.718182 
L 86.629675 74.354545 
L 86.665909 73.081818 
L 86.72026 72.445455 
L 86.756494 73.081818 
L 86.883312 73.718182 
L 86.937662 73.718182 
L 87.046364 76.263636 
L 87.100714 75.627273 
L 87.118831 75.627273 
L 87.245649 74.354545 
L 87.426818 77.536364 
L 87.553636 76.263636 
L 87.58987 76.9 
L 87.626104 75.627273 
L 87.644221 75.627273 
L 87.698571 74.990909 
L 87.734805 75.627273 
L 87.897857 77.536364 
L 87.915974 77.536364 
L 88.042792 79.445455 
L 88.060909 78.809091 
L 88.097143 78.809091 
L 88.205844 78.172727 
L 88.332662 80.081818 
L 88.350779 79.445455 
L 88.513831 77.536364 
L 88.568182 77.536364 
L 88.676883 76.9 
L 88.695 77.536364 
L 88.731234 76.263636 
L 88.785584 76.9 
L 88.948636 74.990909 
L 88.966753 74.990909 
L 89.075455 74.354545 
L 89.184156 74.990909 
L 89.383442 71.809091 
L 89.401558 71.809091 
L 89.528377 70.536364 
L 89.546494 71.172727 
L 89.600844 69.263636 
L 89.637078 69.263636 
L 89.745779 68.627273 
L 89.763896 69.263636 
L 89.80013 67.990909 
L 89.854481 68.627273 
L 89.963182 68.627273 
L 90.09 67.354545 
L 90.108117 67.990909 
L 90.180584 67.354545 
L 90.37987 64.172727 
L 90.397987 64.172727 
L 90.579156 69.263636 
L 90.633506 68.627273 
L 90.742208 66.718182 
L 90.760325 67.354545 
L 90.887143 67.990909 
L 90.90526 67.990909 
L 90.923377 68.627273 
L 90.977727 67.354545 
L 91.050195 66.081818 
L 91.086429 66.718182 
L 91.231364 67.990909 
L 91.267597 67.990909 
L 91.358182 69.263636 
L 91.376299 68.627273 
L 91.539351 66.718182 
L 91.575584 66.718182 
L 91.702403 65.445455 
L 91.829221 66.718182 
L 91.865455 66.081818 
L 91.901688 67.354545 
L 91.919805 67.354545 
L 91.937922 67.354545 
L 92.082857 68.627273 
L 92.100974 67.990909 
L 92.191558 68.627273 
L 92.209675 68.627273 
L 92.35461 67.354545 
L 92.372727 67.990909 
L 92.408961 66.718182 
L 92.445195 66.718182 
L 92.463312 66.718182 
L 92.499545 67.354545 
L 92.535779 66.081818 
L 92.572013 66.718182 
L 92.626364 66.718182 
L 92.680714 66.081818 
L 92.735065 66.718182 
L 92.753182 66.718182 
L 92.898117 67.990909 
L 92.970584 67.990909 
L 93.061169 68.627273 
L 93.079286 67.990909 
L 93.097403 67.990909 
L 93.115519 67.354545 
L 93.151753 68.627273 
L 93.206104 67.990909 
L 93.332922 68.627273 
L 93.351039 68.627273 
L 93.477857 67.354545 
L 93.640909 69.263636 
L 93.731494 69.263636 
L 93.912662 71.809091 
L 94.021364 71.809091 
L 94.220649 67.990909 
L 94.275 68.627273 
L 94.329351 67.990909 
L 94.365584 67.990909 
L 94.546753 65.445455 
L 94.56487 65.445455 
L 94.691688 64.809091 
L 94.709805 65.445455 
L 94.746039 64.172727 
L 94.782273 64.172727 
L 94.80039 64.172727 
L 94.963442 66.081818 
L 94.981558 66.081818 
L 95.126494 67.354545 
L 95.162727 67.354545 
L 95.307662 65.445455 
L 95.325779 66.081818 
L 95.362013 64.809091 
L 95.398247 64.809091 
L 95.416364 64.809091 
L 95.506948 65.445455 
L 95.525065 64.809091 
L 95.579416 62.9 
L 95.67 63.536364 
L 95.688117 63.536364 
L 95.833052 64.809091 
L 95.851169 64.809091 
L 95.977987 65.445455 
L 95.996104 65.445455 
L 96.032338 66.081818 
L 96.086688 65.445455 
L 96.213506 64.809091 
L 96.231623 64.809091 
L 96.304091 65.445455 
L 96.322208 64.809091 
L 96.394675 62.9 
L 96.449026 63.536364 
L 96.575844 64.172727 
L 96.593961 64.172727 
L 96.612078 63.536364 
L 96.702662 64.172727 
L 96.738896 64.172727 
L 96.865714 63.536364 
L 96.938182 64.172727 
L 96.974416 63.536364 
L 97.046883 63.536364 
L 97.191818 64.809091 
L 97.228052 63.536364 
L 97.300519 64.809091 
L 97.318636 64.809091 
L 97.372987 64.172727 
L 97.445455 65.445455 
L 97.59039 63.536364 
L 97.626623 64.172727 
L 97.699091 63.536364 
L 97.789675 63.536364 
L 97.898377 62.9 
L 98.025195 63.536364 
L 98.061429 62.9 
L 98.133896 63.536364 
L 98.260714 63.536364 
L 98.550584 57.172727 
L 98.568701 57.172727 
L 98.74987 53.990909 
L 98.822338 55.263636 
L 98.858571 53.990909 
L 98.894805 53.990909 
L 99.03974 55.263636 
L 99.094091 54.627273 
L 99.148442 55.263636 
L 99.202792 55.263636 
L 99.365844 53.354545 
L 99.383961 53.354545 
L 99.510779 52.718182 
L 99.547013 52.718182 
L 99.619481 53.354545 
L 99.655714 52.718182 
L 99.691948 52.718182 
L 99.800649 53.354545 
L 99.963701 51.445455 
L 100.018052 51.445455 
L 100.14487 50.809091 
L 100.217338 50.809091 
L 100.344156 51.445455 
L 100.38039 51.445455 
L 100.507208 50.809091 
L 100.67026 50.809091 
L 100.887662 46.990909 
L 100.942013 46.990909 
L 101.068831 45.718182 
L 101.213766 46.990909 
L 101.231883 46.354545 
L 101.322468 46.990909 
L 101.340584 46.990909 
L 101.485519 45.718182 
L 101.521753 45.718182 
L 101.576104 45.081818 
L 101.612338 46.354545 
L 101.684805 46.354545 
L 101.811623 45.718182 
L 101.974675 45.718182 
L 102.155844 48.263636 
L 102.246429 48.263636 
L 102.373247 49.536364 
L 102.536299 47.627273 
L 102.590649 48.9 
L 102.663117 48.263636 
L 102.717468 48.263636 
L 102.789935 47.627273 
L 102.826169 48.263636 
L 102.862403 48.263636 
L 102.989221 47.627273 
L 103.061688 47.627273 
L 103.188506 46.990909 
L 103.22474 47.627273 
L 103.297208 46.990909 
L 103.568961 46.990909 
L 103.677662 47.627273 
L 103.822597 46.354545 
L 103.840714 46.354545 
L 103.985649 45.081818 
L 104.021883 45.081818 
L 104.148701 44.445455 
L 104.166818 44.445455 
L 104.347987 46.990909 
L 104.366104 46.990909 
L 104.384221 46.354545 
L 104.438571 47.627273 
L 104.456688 47.627273 
L 104.601623 47.627273 
L 104.692208 48.9 
L 104.728442 48.263636 
L 104.746558 48.263636 
L 104.90961 46.354545 
L 105.018312 46.354545 
L 105.163247 47.627273 
L 105.199481 47.627273 
L 105.344416 46.354545 
L 105.435 46.354545 
L 105.598052 48.263636 
L 105.670519 46.990909 
L 105.706753 48.263636 
L 105.742987 48.263636 
L 105.869805 47.627273 
L 105.906039 47.627273 
L 105.942273 46.990909 
L 106.01474 47.627273 
L 106.159675 47.627273 
L 106.30461 46.354545 
L 106.358961 46.354545 
L 106.485779 45.718182 
L 106.630714 45.718182 
L 106.775649 46.990909 
L 106.811883 46.990909 
L 106.956818 45.718182 
L 107.011169 45.718182 
L 107.156104 46.990909 
L 107.192338 46.990909 
L 107.319156 46.354545 
L 107.35539 46.354545 
L 107.482208 46.990909 
L 107.681494 46.990909 
L 107.69961 47.627273 
L 107.790195 46.990909 
L 107.953247 45.081818 
L 107.989481 45.081818 
L 108.007597 45.718182 
L 108.061948 44.445455 
L 108.080065 44.445455 
L 108.098182 44.445455 
L 108.206883 45.081818 
L 108.333701 43.172727 
L 108.351818 43.809091 
L 108.641688 43.809091 
L 108.80474 41.9 
L 108.895325 41.9 
L 109.022143 42.536364 
L 109.04026 42.536364 
L 109.058377 43.172727 
L 109.130844 41.9 
L 109.257662 41.9 
L 109.293896 42.536364 
L 109.33013 41.263636 
L 109.438831 40.627273 
L 109.565649 41.9 
L 109.62 41.263636 
L 109.674351 41.9 
L 109.728701 41.9 
L 109.873636 43.172727 
L 109.891753 43.172727 
L 110.018571 42.536364 
L 110.036688 42.536364 
L 110.054805 41.9 
L 110.14539 42.536364 
L 110.254091 42.536364 
L 110.399026 41.263636 
L 110.417143 41.263636 
L 110.471494 40.627273 
L 110.525844 41.263636 
L 110.580195 41.263636 
L 110.634545 42.536364 
L 110.688896 41.9 
L 110.707013 41.263636 
L 110.743247 42.536364 
L 110.779481 42.536364 
L 110.870065 42.536364 
L 110.978766 43.172727 
L 110.996883 42.536364 
L 111.069351 43.809091 
L 111.105584 43.809091 
L 111.250519 45.081818 
L 111.30487 45.081818 
L 111.359221 44.445455 
L 111.413571 45.081818 
L 111.431688 45.081818 
L 111.486039 45.718182 
L 111.54039 45.081818 
L 111.612857 45.081818 
L 111.739675 43.809091 
L 111.902727 45.718182 
L 111.957078 45.718182 
L 112.083896 45.081818 
L 112.174481 45.081818 
L 112.301299 45.718182 
L 112.41 45.718182 
L 112.536818 46.354545 
L 112.663636 46.354545 
L 112.790455 45.718182 
L 112.881039 46.354545 
L 112.899156 45.718182 
L 113.062208 45.718182 
L 113.170909 43.809091 
L 113.207143 44.445455 
L 113.22526 44.445455 
L 113.352078 45.081818 
L 113.406429 45.081818 
L 113.551364 43.809091 
L 113.569481 43.809091 
L 113.678182 44.445455 
L 113.805 43.809091 
L 113.931818 44.445455 
L 114.09487 44.445455 
L 114.239805 43.172727 
L 114.257922 43.172727 
L 114.33039 44.445455 
L 114.366623 43.172727 
L 114.493442 43.172727 
L 114.638377 41.9 
L 114.728961 42.536364 
L 114.747078 41.9 
L 114.982597 41.9 
L 115.127532 40.627273 
L 115.2 40.627273 
L 115.344935 41.9 
L 115.363052 41.9 
L 115.507987 40.627273 
L 115.526104 40.627273 
L 115.689156 42.536364 
L 115.888442 42.536364 
L 116.01526 43.172727 
L 116.033377 43.172727 
L 116.160195 42.536364 
L 116.250779 42.536364 
L 116.377597 43.172727 
L 116.413831 43.172727 
L 116.431948 42.536364 
L 116.468182 43.809091 
L 116.504416 43.809091 
L 116.649351 45.081818 
L 116.758052 45.081818 
L 116.848636 46.354545 
L 116.88487 45.718182 
L 116.957338 45.718182 
L 117.084156 45.081818 
L 117.192857 45.081818 
L 117.319675 44.445455 
L 117.428377 44.445455 
L 117.482727 43.809091 
L 117.537078 44.445455 
L 117.555195 44.445455 
L 117.70013 45.718182 
L 117.772597 45.718182 
L 117.935649 43.809091 
L 118.134935 43.809091 
L 118.261753 44.445455 
L 118.406688 43.172727 
L 118.424805 43.172727 
L 118.551623 43.809091 
L 118.605974 43.809091 
L 118.750909 45.081818 
L 118.823377 45.081818 
L 118.968312 43.809091 
L 119.022662 43.809091 
L 119.113247 43.172727 
L 119.131364 43.809091 
L 119.149481 43.809091 
L 119.276299 43.172727 
L 119.294416 43.172727 
L 119.439351 41.9 
L 119.511818 41.9 
L 119.638636 41.263636 
L 119.783571 42.536364 
L 119.874156 42.536364 
L 120.019091 41.263636 
L 120.055325 41.263636 
L 120.218377 39.354545 
L 120.25461 39.354545 
L 120.327078 38.718182 
L 120.363312 39.354545 
L 120.381429 39.354545 
L 120.544481 37.445455 
L 120.598831 37.445455 
L 120.616948 36.809091 
L 120.671299 38.081818 
L 120.816234 39.354545 
L 120.834351 39.354545 
L 120.997403 41.263636 
L 121.178571 41.263636 
L 121.323506 39.990909 
L 121.522792 39.990909 
L 121.667727 41.263636 
L 121.703961 41.263636 
L 121.867013 43.172727 
L 122.120649 43.172727 
L 122.156883 43.809091 
L 122.229351 43.172727 
L 122.356169 42.536364 
L 122.718506 42.536364 
L 122.827208 43.172727 
L 122.863442 42.536364 
L 122.935909 43.172727 
L 123.026494 43.172727 
L 123.207662 45.718182 
L 123.262013 45.718182 
L 123.425065 43.809091 
L 123.642468 43.809091 
L 123.805519 45.718182 
L 123.950455 45.718182 
L 123.968571 45.081818 
L 124.059156 45.718182 
L 124.185974 46.354545 
L 124.240325 46.354545 
L 124.349026 45.081818 
L 124.367143 45.718182 
L 124.38526 45.718182 
L 124.512078 44.445455 
L 124.638896 45.081818 
L 124.729481 45.081818 
L 124.856299 44.445455 
L 124.946883 44.445455 
L 125.073701 45.081818 
L 125.146169 45.081818 
L 125.272987 44.445455 
L 125.327338 44.445455 
L 125.508506 41.9 
L 125.617208 41.9 
L 125.671558 43.172727 
L 125.744026 42.536364 
L 125.870844 41.9 
L 125.943312 41.9 
L 125.979545 41.263636 
L 126.052013 41.9 
L 126.142597 41.9 
L 126.287532 43.172727 
L 126.341883 43.172727 
L 126.468701 41.9 
L 126.595519 42.536364 
L 126.64987 42.536364 
L 126.686104 41.263636 
L 126.776688 41.9 
L 127.157143 41.9 
L 127.265844 43.172727 
L 127.283961 42.536364 
L 127.356429 42.536364 
L 127.428896 41.9 
L 127.46513 42.536364 
L 127.519481 42.536364 
L 127.646299 43.172727 
L 127.682532 43.172727 
L 127.809351 42.536364 
L 127.881818 42.536364 
L 128.026753 41.263636 
L 128.135455 41.263636 
L 128.262273 39.354545 
L 128.28039 39.990909 
L 128.298506 39.990909 
L 128.461558 41.9 
L 128.57026 41.9 
L 128.678961 41.263636 
L 128.842013 43.172727 
L 128.86013 43.172727 
L 128.986948 42.536364 
L 129.077532 42.536364 
L 129.204351 43.172727 
L 129.240584 43.172727 
L 129.385519 41.9 
L 129.43987 41.9 
L 129.584805 43.172727 
L 129.602922 43.172727 
L 129.639156 42.536364 
L 129.711623 43.172727 
L 129.765974 43.172727 
L 129.874675 41.9 
L 129.892792 42.536364 
L 130.092078 42.536364 
L 130.237013 41.263636 
L 130.309481 41.263636 
L 130.454416 39.990909 
L 130.780519 39.990909 
L 130.925455 38.718182 
L 130.997922 38.718182 
L 131.160974 36.809091 
L 131.251558 36.809091 
L 131.378377 36.172727 
L 131.468961 36.172727 
L 131.595779 36.809091 
L 131.668247 36.809091 
L 131.813182 38.081818 
L 131.885649 38.081818 
L 132.030584 36.809091 
L 132.066818 36.809091 
L 132.121169 36.172727 
L 132.175519 36.809091 
L 132.302338 36.809091 
L 132.429156 36.172727 
L 132.447273 36.172727 
L 132.537857 35.536364 
L 132.555974 36.172727 
L 132.700909 36.172727 
L 132.827727 35.536364 
L 133.027013 35.536364 
L 133.063247 36.172727 
L 133.135714 35.536364 
L 133.280649 34.263636 
L 133.407468 34.263636 
L 133.498052 34.9 
L 133.516169 34.263636 
L 134.041558 34.263636 
L 134.059675 33.627273 
L 134.15026 34.263636 
L 134.168377 34.263636 
L 134.295195 34.9 
L 134.893052 34.9 
L 135.01987 35.536364 
L 135.092338 35.536364 
L 135.110455 34.9 
L 135.201039 35.536364 
L 135.291623 35.536364 
L 135.418442 34.9 
L 135.581494 34.9 
L 135.59961 35.536364 
L 135.690195 34.9 
L 135.708312 34.9 
L 135.744545 35.536364 
L 135.817013 34.9 
L 135.889481 34.9 
L 135.998182 35.536364 
L 136.125 34.9 
L 136.161234 34.9 
L 136.288052 34.263636 
L 136.306169 34.263636 
L 136.432987 34.9 
L 136.469221 34.9 
L 136.596039 35.536364 
L 136.614156 35.536364 
L 136.65039 36.172727 
L 136.722857 35.536364 
L 137.030844 35.536364 
L 137.121429 34.9 
L 137.139545 35.536364 
L 137.683052 35.536364 
L 137.80987 34.9 
L 138.135974 34.9 
L 138.262792 35.536364 
L 138.516429 35.536364 
L 138.643247 34.9 
L 138.733831 34.9 
L 138.860649 34.263636 
L 139.041818 34.263636 
L 139.168636 33.627273 
L 139.20487 33.627273 
L 139.349805 32.354545 
L 139.512857 32.354545 
L 139.639675 31.718182 
L 139.78461 32.990909 
L 139.929545 32.990909 
L 139.983896 32.354545 
L 140.038247 32.990909 
L 140.092597 32.990909 
L 140.219416 32.354545 
L 140.237532 32.354545 
L 140.364351 31.718182 
L 140.744805 31.718182 
L 140.871623 31.081818 
L 141.397013 31.081818 
L 141.451364 30.445455 
L 141.505714 31.081818 
L 141.759351 31.081818 
L 141.886169 30.445455 
L 142.991299 30.445455 
L 143.118117 31.081818 
L 143.263052 31.081818 
L 143.407987 29.809091 
L 143.571039 29.809091 
L 143.607273 30.445455 
L 143.67974 29.809091 
L 143.897143 29.809091 
L 144.023961 30.445455 
L 144.295714 30.445455 
L 144.440649 31.718182 
L 144.495 31.718182 
L 144.639935 32.990909 
L 145.07474 32.990909 
L 145.201558 32.354545 
L 145.31026 32.354545 
L 145.437078 32.990909 
L 146.614675 32.990909 
L 146.741494 32.354545 
L 147.194416 32.354545 
L 147.321234 31.718182 
L 147.448052 32.354545 
L 147.520519 32.354545 
L 147.647338 31.718182 
L 147.919091 31.718182 
L 148.064026 30.445455 
L 148.118377 30.445455 
L 148.263312 29.172727 
L 148.933636 29.172727 
L 149.060455 28.536364 
L 150.636623 28.536364 
L 150.763442 29.172727 
L 150.94461 29.172727 
L 151.035195 28.536364 
L 151.053312 29.172727 
L 153.281688 29.172727 
L 153.408506 29.809091 
L 154.26 29.809091 
L 154.386818 29.172727 
L 154.658571 29.172727 
L 154.78539 28.536364 
L 156.76013 28.536364 
L 156.886948 29.172727 
L 156.905065 29.172727 
L 157.031883 28.536364 
L 157.992078 28.536364 
L 158.118896 29.172727 
L 158.771104 29.172727 
L 158.916039 30.445455 
L 159.477662 30.445455 
L 159.604481 31.081818 
L 159.803766 31.081818 
L 159.930584 31.718182 
L 160.311039 31.718182 
L 160.383506 32.354545 
L 160.41974 31.718182 
L 161.615455 31.718182 
L 161.742273 31.081818 
L 162.394481 31.081818 
L 162.539416 29.809091 
L 163.101039 29.809091 
L 163.227857 29.172727 
L 163.427143 29.172727 
L 163.553961 28.536364 
L 163.698896 28.536364 
L 163.825714 29.172727 
L 163.934416 29.172727 
L 164.061234 28.536364 
L 164.532273 28.536364 
L 164.659091 29.172727 
L 165.275065 29.172727 
L 165.401883 29.809091 
L 165.94539 29.809091 
L 166.072208 30.445455 
L 167.322273 30.445455 
L 167.449091 29.809091 
L 168.155649 29.809091 
L 168.282468 29.172727 
L 168.898442 29.172727 
L 169.02526 28.536364 
L 169.369481 28.536364 
L 169.496299 29.172727 
L 169.568766 29.172727 
L 169.586883 28.536364 
L 169.677468 29.172727 
L 170.927532 29.172727 
L 171.054351 29.809091 
L 171.797143 29.809091 
L 171.923961 30.445455 
L 172.250065 30.445455 
L 172.395 31.718182 
L 172.612403 31.718182 
L 172.739221 32.354545 
L 172.884156 32.354545 
L 172.992857 32.990909 
L 173.119675 32.354545 
L 173.21026 32.354545 
L 173.300844 31.718182 
L 173.318961 32.354545 
L 173.554481 32.354545 
L 173.681299 32.990909 
L 174.261039 32.990909 
L 174.387857 33.627273 
L 174.550909 33.627273 
L 174.677727 32.990909 
L 175.420519 32.990909 
L 175.547338 32.354545 
L 175.782857 32.354545 
L 175.873442 32.990909 
L 175.891558 32.354545 
L 175.945909 32.354545 
L 176.072727 31.718182 
L 176.235779 31.718182 
L 176.362597 31.081818 
L 176.507532 31.081818 
L 176.634351 30.445455 
L 176.743052 30.445455 
L 176.86987 31.081818 
L 176.924221 31.081818 
L 177.051039 30.445455 
L 177.15974 30.445455 
L 177.177857 31.081818 
L 177.268442 30.445455 
L 177.884416 30.445455 
L 178.011234 29.809091 
L 178.609091 29.809091 
L 178.735909 30.445455 
L 179.406234 30.445455 
L 179.533052 29.809091 
L 180.076558 29.809091 
L 180.203377 30.445455 
L 180.366429 30.445455 
L 180.493247 29.809091 
L 180.728766 29.809091 
L 180.783117 30.445455 
L 180.837468 29.809091 
L 181.670844 29.809091 
L 181.797662 30.445455 
L 182.232468 30.445455 
L 182.359286 29.809091 
L 183.699935 29.809091 
L 183.718052 29.172727 
L 183.808636 29.809091 
L 184.334026 29.809091 
L 184.352143 30.445455 
L 184.442727 29.809091 
L 184.859416 29.809091 
L 184.986234 30.445455 
L 185.294221 30.445455 
L 185.421039 29.809091 
L 185.892078 29.809091 
L 186.018896 30.445455 
L 186.127597 30.445455 
L 186.254416 31.081818 
L 186.87039 31.081818 
L 187.015325 32.354545 
L 187.341429 32.354545 
L 187.468247 31.718182 
L 187.957403 31.718182 
L 188.084221 31.081818 
L 188.482792 31.081818 
L 188.591494 30.445455 
L 188.718312 31.081818 
L 189.189351 31.081818 
L 189.316169 31.718182 
L 189.515455 31.718182 
L 189.642273 31.081818 
L 189.750974 31.081818 
L 189.877792 30.445455 
L 190.493766 30.445455 
L 190.638701 29.172727 
L 191.834416 29.172727 
L 191.979351 30.445455 
L 192.051818 30.445455 
L 192.196753 31.718182 
L 192.21487 31.718182 
L 192.341688 31.081818 
L 192.812727 31.081818 
L 192.939545 30.445455 
L 193.229416 30.445455 
L 193.356234 31.081818 
L 194.642532 31.081818 
L 194.769351 31.718182 
L 195.204156 31.718182 
L 195.330974 32.354545 
L 195.457792 32.354545 
L 195.602727 31.081818 
L 195.675195 31.081818 
L 195.729545 29.809091 
L 195.802013 30.445455 
L 195.946948 30.445455 
L 196.073766 31.081818 
L 196.581039 31.081818 
L 196.707857 31.718182 
L 196.852792 31.718182 
L 196.97961 31.081818 
L 197.197013 31.081818 
L 197.323831 31.718182 
L 197.668052 31.718182 
L 197.79487 32.354545 
L 198.265909 32.354545 
L 198.392727 31.718182 
L 198.736948 31.718182 
L 198.827532 33.627273 
L 198.881883 32.990909 
L 199.298571 32.990909 
L 199.352922 33.627273 
L 199.407273 32.990909 
L 199.570325 32.990909 
L 199.697143 32.354545 
L 199.71526 32.354545 
L 199.842078 32.990909 
L 200.204416 32.990909 
L 200.331234 32.354545 
L 200.58487 32.354545 
L 200.729805 33.627273 
L 200.82039 33.627273 
L 200.947208 32.990909 
L 201.291429 32.990909 
L 201.418247 32.354545 
L 202.142922 32.354545 
L 202.305974 34.263636 
L 202.360325 34.263636 
L 202.523377 32.354545 
L 202.921948 32.354545 
L 203.048766 31.718182 
L 203.338636 31.718182 
L 203.465455 31.081818 
L 204.208247 31.081818 
L 204.353182 29.809091 
L 204.443766 29.809091 
L 204.588701 31.081818 
L 204.697403 31.081818 
L 204.824221 31.718182 
L 204.914805 31.718182 
L 205.041623 32.354545 
L 205.132208 32.354545 
L 205.259026 32.990909 
L 205.494545 32.990909 
L 205.639481 34.263636 
L 205.748182 34.263636 
L 205.766299 34.9 
L 205.838766 33.627273 
L 205.911234 33.627273 
L 205.947468 32.990909 
L 206.019935 33.627273 
L 206.273571 33.627273 
L 206.40039 34.263636 
L 206.527208 34.263636 
L 206.672143 35.536364 
L 206.74461 35.536364 
L 206.871429 36.172727 
L 207.940325 36.172727 
L 208.067143 36.809091 
L 208.212078 35.536364 
L 208.320779 35.536364 
L 208.393247 34.9 
L 208.429481 35.536364 
L 208.538182 35.536364 
L 208.665 34.9 
L 208.755584 34.9 
L 208.882403 34.263636 
L 209.208506 34.263636 
L 209.335325 33.627273 
L 209.371558 33.627273 
L 209.498377 32.990909 
L 209.570844 32.990909 
L 209.697662 32.354545 
L 209.896948 32.354545 
L 210.023766 31.718182 
L 210.150584 31.718182 
L 210.295519 30.445455 
L 210.367987 30.445455 
L 210.494805 29.809091 
L 211.183247 29.809091 
L 211.310065 30.445455 
L 211.563701 30.445455 
L 211.690519 29.809091 
L 212.016623 29.809091 
L 212.143442 29.172727 
L 212.741299 29.172727 
L 212.868117 28.536364 
L 213.284805 28.536364 
L 213.411623 29.172727 
L 213.937013 29.172727 
L 214.063831 29.809091 
L 214.281234 29.809091 
L 214.408052 30.445455 
L 214.806623 30.445455 
L 214.933442 29.809091 
L 215.06026 30.445455 
L 215.096494 30.445455 
L 215.223312 31.081818 
L 216.908182 31.081818 
L 217.035 30.445455 
L 217.56039 30.445455 
L 217.687208 29.809091 
L 217.90461 29.809091 
L 217.922727 29.172727 
L 217.922727 29.172727 
" style="fill:none;stroke:#008000;stroke-linecap:square;stroke-width:1.5;"/>
   </g>
   <g id="patch_3">
    <path d="M 31.5 160.2 
L 31.5 21.6 
" style="fill:none;stroke:#000000;stroke-linecap:square;stroke-linejoin:miter;stroke-width:0.8;"/>
   </g>
   <g id="patch_4">
    <path d="M 226.8 160.2 
L 226.8 21.6 
" style="fill:none;stroke:#000000;stroke-linecap:square;stroke-linejoin:miter;stroke-width:0.8;"/>
   </g>
   <g id="patch_5">
    <path d="M 31.5 160.2 
L 226.8 160.2 
" style="fill:none;stroke:#000000;stroke-linecap:square;stroke-linejoin:miter;stroke-width:0.8;"/>
   </g>
   <g id="patch_6">
    <path d="M 31.5 21.6 
L 226.8 21.6 
" style="fill:none;stroke:#000000;stroke-linecap:square;stroke-linejoin:miter;stroke-width:0.8;"/>
   </g>
   <g id="legend_1">
    <g id="patch_7">
     <path d="M 138.028125 155.2 
L 219.8 155.2 
Q 221.8 155.2 221.8 153.2 
L 221.8 124.565625 
Q 221.8 122.565625 219.8 122.565625 
L 138.028125 122.565625 
Q 136.028125 122.565625 136.028125 124.565625 
L 136.028125 153.2 
Q 136.028125 155.2 138.028125 155.2 
z
" style="fill:#ffffff;opacity:0.8;stroke:#cccccc;stroke-linejoin:miter;"/>
    </g>
    <g id="patch_8">
     <path d="M 140.028125 134.164062 
L 160.028125 134.164062 
L 160.028125 127.164062 
L 140.028125 127.164062 
z
" style="fill:#0000ff;stroke:#0000ff;stroke-linejoin:miter;"/>
    </g>
    <g id="text_15">
     <text style="font-family:DejaVu Sans;font-size:10px;font-stretch:normal;font-style:normal;font-weight:normal;text-anchor:start;" transform="rotate(-0, 168.028125, 134.164062)" x="168.028125" y="134.164062">cadrl</text>
    </g>
    <g id="patch_9">
     <path d="M 140.028125 148.842187 
L 160.028125 148.842187 
L 160.028125 141.842187 
L 140.028125 141.842187 
z
" style="fill:#008000;stroke:#008000;stroke-linejoin:miter;"/>
    </g>
    <g id="text_16">
     <text style="font-family:DejaVu Sans;font-size:10px;font-stretch:normal;font-style:normal;font-weight:normal;text-anchor:start;" transform="rotate(-0, 168.028125, 148.842187)" x="168.028125" y="148.842187">cadrl_pref</text>
    </g>
   </g>
  </g>
 </g>
 <defs>
  <clipPath id="p392d2d222a">
   <rect height="138.6" width="195.3" x="31.5" y="21.6"/>
  </clipPath>
 </defs>
</svg>
