<?xml version="1.0" encoding="utf-8" standalone="no"?>
<!DOCTYPE svg PUBLIC "-//W3C//DTD SVG 1.1//EN"
  "http://www.w3.org/Graphics/SVG/1.1/DTD/svg11.dtd">
<svg height="180pt" version="1.1" viewBox="0 0 252 180" width="252pt" xmlns="http://www.w3.org/2000/svg" xmlns:xlink="http://www.w3.org/1999/xlink">
 <metadata>
  <rdf:RDF xmlns:cc="http://creativecommons.org/ns#" xmlns:dc="http://purl.org/dc/elements/1.1/" xmlns:rdf="http://www.w3.org/1999/02/22-rdf-syntax-ns#">
   <cc:Work>
    <dc:type rdf:resource="http://purl.org/dc/dcmitype/StillImage"/>
    <dc:date>2022-02-23T22:23:25.355052</dc:date>
    <dc:format>image/svg+xml</dc:format>
    <dc:creator>
     <cc:Agent>
      <dc:title>Matplotlib v3.4.3, https://matplotlib.org/</dc:title>
     </cc:Agent>
    </dc:creator>
   </cc:Work>
  </rdf:RDF>
 </metadata>
 <defs>
  <style type="text/css">*{stroke-linecap:butt;stroke-linejoin:round;}</style>
 </defs>
 <g id="figure_1">
  <g id="patch_1">
   <path d="M 0 180 
L 252 180 
L 252 0 
L 0 0 
z
" style="fill:#ffffff;"/>
  </g>
  <g id="axes_1">
   <g id="patch_2">
    <path d="M 31.5 160.2 
L 226.8 160.2 
L 226.8 21.6 
L 31.5 21.6 
z
" style="fill:#ffffff;"/>
   </g>
   <g id="matplotlib.axis_1">
    <g id="xtick_1">
     <g id="line2d_1">
      <defs>
       <path d="M 0 0 
L 0 3.5 
" id="m7b7b22b207" style="stroke:#000000;stroke-width:0.8;"/>
      </defs>
      <g>
       <use style="stroke:#000000;stroke-width:0.8;" x="40.377273" xlink:href="#m7b7b22b207" y="160.2"/>
      </g>
     </g>
     <g id="text_1">
      <text style="font-family:DejaVu Sans;font-size:10px;font-stretch:normal;font-style:normal;font-weight:normal;text-anchor:middle;" transform="rotate(-0, 40.377273, 174.798438)" x="40.377273" y="174.798438">0</text>
     </g>
    </g>
    <g id="xtick_2">
     <g id="line2d_2">
      <g>
       <use style="stroke:#000000;stroke-width:0.8;" x="76.611039" xlink:href="#m7b7b22b207" y="160.2"/>
      </g>
     </g>
     <g id="text_2">
      <text style="font-family:DejaVu Sans;font-size:10px;font-stretch:normal;font-style:normal;font-weight:normal;text-anchor:middle;" transform="rotate(-0, 76.611039, 174.798438)" x="76.611039" y="174.798438">2000</text>
     </g>
    </g>
    <g id="xtick_3">
     <g id="line2d_3">
      <g>
       <use style="stroke:#000000;stroke-width:0.8;" x="112.844805" xlink:href="#m7b7b22b207" y="160.2"/>
      </g>
     </g>
     <g id="text_3">
      <text style="font-family:DejaVu Sans;font-size:10px;font-stretch:normal;font-style:normal;font-weight:normal;text-anchor:middle;" transform="rotate(-0, 112.844805, 174.798438)" x="112.844805" y="174.798438">4000</text>
     </g>
    </g>
    <g id="xtick_4">
     <g id="line2d_4">
      <g>
       <use style="stroke:#000000;stroke-width:0.8;" x="149.078571" xlink:href="#m7b7b22b207" y="160.2"/>
      </g>
     </g>
     <g id="text_4">
      <text style="font-family:DejaVu Sans;font-size:10px;font-stretch:normal;font-style:normal;font-weight:normal;text-anchor:middle;" transform="rotate(-0, 149.078571, 174.798438)" x="149.078571" y="174.798438">6000</text>
     </g>
    </g>
    <g id="xtick_5">
     <g id="line2d_5">
      <g>
       <use style="stroke:#000000;stroke-width:0.8;" x="185.312338" xlink:href="#m7b7b22b207" y="160.2"/>
      </g>
     </g>
     <g id="text_5">
      <text style="font-family:DejaVu Sans;font-size:10px;font-stretch:normal;font-style:normal;font-weight:normal;text-anchor:middle;" transform="rotate(-0, 185.312338, 174.798438)" x="185.312338" y="174.798438">8000</text>
     </g>
    </g>
    <g id="xtick_6">
     <g id="line2d_6">
      <g>
       <use style="stroke:#000000;stroke-width:0.8;" x="221.546104" xlink:href="#m7b7b22b207" y="160.2"/>
      </g>
     </g>
     <g id="text_6">
      <text style="font-family:DejaVu Sans;font-size:10px;font-stretch:normal;font-style:normal;font-weight:normal;text-anchor:middle;" transform="rotate(-0, 221.546104, 174.798438)" x="221.546104" y="174.798438">10000</text>
     </g>
    </g>
    <g id="text_7">
     <text style="font-family:DejaVu Sans;font-size:10px;font-stretch:normal;font-style:normal;font-weight:normal;text-anchor:middle;" transform="rotate(-0, 129.15, 188.476562)" x="129.15" y="188.476562">episodes</text>
    </g>
   </g>
   <g id="matplotlib.axis_2">
    <g id="ytick_1">
     <g id="line2d_7">
      <defs>
       <path d="M 0 0 
L -3.5 0 
" id="m7fbfdfeb83" style="stroke:#000000;stroke-width:0.8;"/>
      </defs>
      <g>
       <use style="stroke:#000000;stroke-width:0.8;" x="31.5" xlink:href="#m7fbfdfeb83" y="153.9"/>
      </g>
     </g>
     <g id="text_8">
      <text style="font-family:DejaVu Sans;font-size:10px;font-stretch:normal;font-style:normal;font-weight:normal;text-anchor:end;" transform="rotate(-0, 24.5, 157.699219)" x="24.5" y="157.699219">0.00</text>
     </g>
    </g>
    <g id="ytick_2">
     <g id="line2d_8">
      <g>
       <use style="stroke:#000000;stroke-width:0.8;" x="31.5" xlink:href="#m7fbfdfeb83" y="128.7"/>
      </g>
     </g>
     <g id="text_9">
      <text style="font-family:DejaVu Sans;font-size:10px;font-stretch:normal;font-style:normal;font-weight:normal;text-anchor:end;" transform="rotate(-0, 24.5, 132.499219)" x="24.5" y="132.499219">0.02</text>
     </g>
    </g>
    <g id="ytick_3">
     <g id="line2d_9">
      <g>
       <use style="stroke:#000000;stroke-width:0.8;" x="31.5" xlink:href="#m7fbfdfeb83" y="103.5"/>
      </g>
     </g>
     <g id="text_10">
      <text style="font-family:DejaVu Sans;font-size:10px;font-stretch:normal;font-style:normal;font-weight:normal;text-anchor:end;" transform="rotate(-0, 24.5, 107.299219)" x="24.5" y="107.299219">0.04</text>
     </g>
    </g>
    <g id="ytick_4">
     <g id="line2d_10">
      <g>
       <use style="stroke:#000000;stroke-width:0.8;" x="31.5" xlink:href="#m7fbfdfeb83" y="78.3"/>
      </g>
     </g>
     <g id="text_11">
      <text style="font-family:DejaVu Sans;font-size:10px;font-stretch:normal;font-style:normal;font-weight:normal;text-anchor:end;" transform="rotate(-0, 24.5, 82.099219)" x="24.5" y="82.099219">0.06</text>
     </g>
    </g>
    <g id="ytick_5">
     <g id="line2d_11">
      <g>
       <use style="stroke:#000000;stroke-width:0.8;" x="31.5" xlink:href="#m7fbfdfeb83" y="53.1"/>
      </g>
     </g>
     <g id="text_12">
      <text style="font-family:DejaVu Sans;font-size:10px;font-stretch:normal;font-style:normal;font-weight:normal;text-anchor:end;" transform="rotate(-0, 24.5, 56.899219)" x="24.5" y="56.899219">0.08</text>
     </g>
    </g>
    <g id="ytick_6">
     <g id="line2d_12">
      <g>
       <use style="stroke:#000000;stroke-width:0.8;" x="31.5" xlink:href="#m7fbfdfeb83" y="27.9"/>
      </g>
     </g>
     <g id="text_13">
      <text style="font-family:DejaVu Sans;font-size:10px;font-stretch:normal;font-style:normal;font-weight:normal;text-anchor:end;" transform="rotate(-0, 24.5, 31.699219)" x="24.5" y="31.699219">0.10</text>
     </g>
    </g>
    <g id="text_14">
     <text style="font-family:DejaVu Sans;font-size:10px;font-stretch:normal;font-style:normal;font-weight:normal;text-anchor:middle;" transform="rotate(-90, -4.123437, 90.9)" x="-4.123437" y="90.9">collision_rate</text>
    </g>
   </g>
   <g id="line2d_13">
    <path clip-path="url(#p822c6eea05)" d="M 40.377273 59.4 
L 40.44974 59.4 
L 40.576558 65.7 
L 40.612792 65.7 
L 40.73961 59.4 
L 40.793961 59.4 
L 40.866429 53.1 
L 40.902662 59.4 
L 41.391818 59.4 
L 41.536753 46.8 
L 41.681688 46.8 
L 41.736039 59.4 
L 41.808506 53.1 
L 41.826623 53.1 
L 41.953442 59.4 
L 42.044026 59.4 
L 42.207078 78.3 
L 42.261429 78.3 
L 42.37013 72 
L 42.496948 78.3 
L 42.515065 78.3 
L 42.587532 84.6 
L 42.623766 78.3 
L 42.678117 78.3 
L 42.841169 59.4 
L 42.859286 59.4 
L 42.986104 65.7 
L 43.058571 65.7 
L 43.203506 53.1 
L 43.330325 53.1 
L 43.457143 46.8 
L 43.47526 46.8 
L 43.602078 53.1 
L 43.728896 46.8 
L 43.855714 46.8 
L 43.946299 34.2 
L 43.982532 40.5 
L 44.091234 40.5 
L 44.109351 34.2 
L 44.163701 46.8 
L 44.199935 40.5 
L 44.236169 40.5 
L 44.308636 46.8 
L 44.34487 40.5 
L 44.417338 40.5 
L 44.544156 46.8 
L 44.707208 46.8 
L 44.852143 34.2 
L 45.015195 34.2 
L 45.16013 46.8 
L 45.359416 46.8 
L 45.468117 53.1 
L 45.594935 46.8 
L 45.884805 46.8 
L 46.011623 53.1 
L 46.26526 53.1 
L 46.301494 46.8 
L 46.373961 53.1 
L 46.392078 53.1 
L 46.537013 65.7 
L 46.681948 65.7 
L 46.772532 72 
L 46.790649 65.7 
L 46.808766 65.7 
L 46.863117 72 
L 46.917468 65.7 
L 46.953701 65.7 
L 47.080519 72 
L 47.225455 72 
L 47.279805 78.3 
L 47.334156 72 
L 47.42474 72 
L 47.479091 59.4 
L 47.551558 65.7 
L 47.678377 72 
L 47.71461 72 
L 47.859545 84.6 
L 47.932013 84.6 
L 48.058831 90.9 
L 48.221883 90.9 
L 48.330584 78.3 
L 48.348701 84.6 
L 48.403052 84.6 
L 48.52987 90.9 
L 48.837857 90.9 
L 48.964675 84.6 
L 49.091494 84.6 
L 49.145844 90.9 
L 49.182078 84.6 
L 49.308896 78.3 
L 49.399481 78.3 
L 49.526299 72 
L 49.743701 72 
L 49.834286 65.7 
L 49.852403 72 
L 49.888636 72 
L 50.015455 78.3 
L 50.395909 78.3 
L 50.540844 90.9 
L 50.903182 90.9 
L 51.03 97.2 
L 51.048117 97.2 
L 51.193052 109.8 
L 51.84526 109.8 
L 51.990195 122.4 
L 52.461234 122.4 
L 52.588052 128.7 
L 52.732987 128.7 
L 52.769221 122.4 
L 52.823571 135 
L 52.841688 128.7 
L 53.113442 128.7 
L 53.24026 122.4 
L 53.367078 122.4 
L 53.493896 128.7 
L 54.617143 128.7 
L 54.743961 122.4 
L 54.870779 122.4 
L 54.997597 116.1 
L 56.08461 116.1 
L 56.211429 109.8 
L 56.229545 109.8 
L 56.356364 97.2 
L 56.501299 109.8 
L 56.646234 109.8 
L 56.791169 122.4 
L 57.370909 122.4 
L 57.497727 116.1 
L 58.186169 116.1 
L 58.312987 109.8 
L 58.421688 109.8 
L 58.494156 103.5 
L 58.53039 109.8 
L 59.092013 109.8 
L 59.218831 103.5 
L 59.707987 103.5 
L 59.834805 109.8 
L 59.852922 109.8 
L 59.961623 122.4 
L 59.97974 116.1 
L 60.142792 116.1 
L 60.26961 109.8 
L 60.994286 109.8 
L 61.121104 116.1 
L 61.447208 116.1 
L 61.574026 109.8 
L 61.61026 109.8 
L 61.737078 103.5 
L 61.809545 103.5 
L 61.936364 109.8 
L 62.045065 109.8 
L 62.153766 116.1 
L 62.280584 109.8 
L 62.71539 109.8 
L 62.842208 116.1 
L 63.421948 116.1 
L 63.548766 109.8 
L 63.585 109.8 
L 63.711818 116.1 
L 63.748052 116.1 
L 63.87487 109.8 
L 64.182857 109.8 
L 64.309675 103.5 
L 65.070584 103.5 
L 65.197403 109.8 
L 65.233636 109.8 
L 65.360455 116.1 
L 65.50539 116.1 
L 65.523506 109.8 
L 65.614091 116.1 
L 65.777143 116.1 
L 65.903961 122.4 
L 66.030779 116.1 
L 66.320649 116.1 
L 66.465584 103.5 
L 67.045325 103.5 
L 67.172143 109.8 
L 67.317078 109.8 
L 67.371429 103.5 
L 67.407662 109.8 
L 67.534481 116.1 
L 67.661299 116.1 
L 67.788117 109.8 
L 67.806234 109.8 
L 67.933052 116.1 
L 68.096104 116.1 
L 68.222922 109.8 
L 68.422208 109.8 
L 68.549026 103.5 
L 68.58526 103.5 
L 68.730195 90.9 
L 69.020065 90.9 
L 69.128766 84.6 
L 69.237468 90.9 
L 69.364286 84.6 
L 69.672273 84.6 
L 69.799091 78.3 
L 69.944026 78.3 
L 70.088961 90.9 
L 70.940455 90.9 
L 71.067273 97.2 
L 71.284675 97.2 
L 71.411494 103.5 
L 71.719481 103.5 
L 71.846299 109.8 
L 72.045584 109.8 
L 72.172403 116.1 
L 72.208636 116.1 
L 72.353571 128.7 
L 72.643442 128.7 
L 72.77026 135 
L 72.860844 135 
L 72.878961 141.3 
L 72.969545 135 
L 73.150714 135 
L 73.277532 141.3 
L 73.295649 141.3 
L 73.422468 147.6 
L 74.491364 147.6 
L 74.618182 141.3 
L 76.248701 141.3 
L 76.375519 135 
L 76.502338 135 
L 76.629156 141.3 
L 77.480649 141.3 
L 77.607468 135 
L 78.11474 135 
L 78.150974 141.3 
L 78.223442 135 
L 79.672792 135 
L 79.79961 128.7 
L 79.872078 128.7 
L 79.998896 135 
L 81.104026 135 
L 81.230844 141.3 
L 81.339545 141.3 
L 81.466364 135 
L 81.774351 135 
L 81.901169 141.3 
L 83.296169 141.3 
L 83.422987 147.6 
L 84.962922 147.6 
L 85.08974 153.9 
L 85.162208 153.9 
L 85.289026 147.6 
L 85.32526 147.6 
L 85.452078 141.3 
L 86.702143 141.3 
L 86.828961 135 
L 87.861623 135 
L 88.006558 122.4 
L 88.785584 122.4 
L 88.912403 128.7 
L 88.948636 128.7 
L 89.075455 135 
L 90.325519 135 
L 90.452338 141.3 
L 91.485 141.3 
L 91.629935 153.9 
L 92.282143 153.9 
L 92.408961 147.6 
L 94.311234 147.6 
L 94.438052 141.3 
L 95.905519 141.3 
L 95.941753 147.6 
L 96.014221 141.3 
L 96.503377 141.3 
L 96.630195 135 
L 97.083117 135 
L 97.209935 128.7 
L 97.93461 128.7 
L 98.061429 135 
L 99.56513 135 
L 99.691948 141.3 
L 100.126753 141.3 
L 100.217338 147.6 
L 100.235455 141.3 
L 100.706494 141.3 
L 100.833312 147.6 
L 101.231883 147.6 
L 101.358701 141.3 
L 101.467403 141.3 
L 101.594221 135 
L 102.554416 135 
L 102.681234 128.7 
L 103.840714 128.7 
L 103.967532 135 
L 104.076234 135 
L 104.203052 128.7 
L 104.61974 128.7 
L 104.746558 122.4 
L 104.982078 122.4 
L 105.090779 116.1 
L 105.217597 122.4 
L 106.177792 122.4 
L 106.30461 128.7 
L 107.69961 128.7 
L 107.826429 135 
L 107.953247 128.7 
L 108.243117 128.7 
L 108.369935 135 
L 108.478636 135 
L 108.623571 147.6 
L 108.985909 147.6 
L 109.112727 141.3 
L 110.779481 141.3 
L 110.906299 135 
L 110.942532 135 
L 111.069351 128.7 
L 111.449805 128.7 
L 111.467922 135 
L 111.558506 128.7 
L 111.88461 128.7 
L 112.011429 122.4 
L 112.609286 122.4 
L 112.736104 128.7 
L 112.862922 122.4 
L 113.22526 122.4 
L 113.352078 116.1 
L 113.478896 116.1 
L 113.623831 103.5 
L 114.040519 103.5 
L 114.167338 97.2 
L 114.402857 97.2 
L 114.529675 103.5 
L 114.565909 103.5 
L 114.692727 109.8 
L 115.091299 109.8 
L 115.181883 116.1 
L 115.2 109.8 
L 115.507987 109.8 
L 115.634805 116.1 
L 116.359481 116.1 
L 116.377597 122.4 
L 116.468182 116.1 
L 116.848636 116.1 
L 116.975455 122.4 
L 117.102273 122.4 
L 117.247208 135 
L 117.663896 135 
L 117.790714 141.3 
L 118.80526 141.3 
L 118.932078 147.6 
L 120.000974 147.6 
L 120.127792 153.9 
L 121.59526 153.9 
L 121.722078 147.6 
L 122.736623 147.6 
L 122.863442 141.3 
L 125.218636 141.3 
L 125.345455 147.6 
L 126.36 147.6 
L 126.486818 153.9 
L 136.106883 153.9 
L 136.233701 147.6 
L 139.73026 147.6 
L 139.857078 153.9 
L 143.426104 153.9 
L 143.552922 147.6 
L 147.049481 147.6 
L 147.176299 153.9 
L 181.091104 153.9 
L 181.217922 147.6 
L 184.714481 147.6 
L 184.841299 153.9 
L 192.540974 153.9 
L 192.667792 147.6 
L 196.164351 147.6 
L 196.291169 153.9 
L 217.922727 153.9 
L 217.922727 153.9 
" style="fill:none;stroke:#0000ff;stroke-linecap:square;stroke-width:1.5;"/>
   </g>
   <g id="line2d_14">
    <path clip-path="url(#p822c6eea05)" d="M 40.377273 97.2 
L 40.39539 97.2 
L 40.522208 109.8 
L 40.667143 97.2 
L 41.047597 97.2 
L 41.192532 84.6 
L 41.500519 84.6 
L 41.645455 97.2 
L 41.84474 97.2 
L 41.989675 109.8 
L 42.025909 109.8 
L 42.08026 116.1 
L 42.13461 109.8 
L 42.261429 103.5 
L 42.587532 103.5 
L 42.714351 97.2 
L 43.094805 97.2 
L 43.221623 90.9 
L 43.312208 90.9 
L 43.439026 84.6 
L 43.47526 84.6 
L 43.602078 78.3 
L 43.656429 78.3 
L 43.783247 72 
L 43.855714 72 
L 43.982532 78.3 
L 44.145584 78.3 
L 44.290519 90.9 
L 44.417338 90.9 
L 44.58039 72 
L 44.670974 72 
L 44.815909 84.6 
L 45.069545 84.6 
L 45.196364 78.3 
L 45.323182 78.3 
L 45.45 84.6 
L 45.703636 84.6 
L 45.848571 97.2 
L 45.866688 97.2 
L 45.993506 90.9 
L 46.210909 90.9 
L 46.337727 97.2 
L 46.446429 97.2 
L 46.591364 84.6 
L 46.718182 84.6 
L 46.772532 90.9 
L 46.808766 78.3 
L 46.935584 78.3 
L 47.062403 84.6 
L 47.098636 84.6 
L 47.225455 90.9 
L 47.279805 90.9 
L 47.406623 97.2 
L 47.750844 97.2 
L 47.877662 90.9 
L 48.040714 90.9 
L 48.185649 103.5 
L 48.24 103.5 
L 48.366818 97.2 
L 48.692922 97.2 
L 48.783506 103.5 
L 48.801623 97.2 
L 48.928442 90.9 
L 49.145844 90.9 
L 49.308896 72 
L 49.399481 72 
L 49.490065 59.4 
L 49.526299 65.7 
L 49.743701 65.7 
L 49.870519 59.4 
L 50.069805 59.4 
L 50.21474 72 
L 50.395909 72 
L 50.50461 84.6 
L 50.522727 78.3 
L 50.939416 78.3 
L 51.066234 72 
L 51.374221 72 
L 51.501039 78.3 
L 51.772792 78.3 
L 51.89961 84.6 
L 52.388766 84.6 
L 52.406883 78.3 
L 52.443117 90.9 
L 52.497468 84.6 
L 52.769221 84.6 
L 52.932273 103.5 
L 53.040974 103.5 
L 53.095325 97.2 
L 53.149675 103.5 
L 53.367078 103.5 
L 53.493896 109.8 
L 54.037403 109.8 
L 54.127987 103.5 
L 54.146104 109.8 
L 54.218571 109.8 
L 54.34539 103.5 
L 54.562792 103.5 
L 54.617143 109.8 
L 54.671494 103.5 
L 55.432403 103.5 
L 55.559221 109.8 
L 56.012143 109.8 
L 56.157078 122.4 
L 56.193312 122.4 
L 56.338247 109.8 
L 56.428831 109.8 
L 56.555649 103.5 
L 56.646234 103.5 
L 56.791169 116.1 
L 57.316558 116.1 
L 57.461494 103.5 
L 57.660779 103.5 
L 57.787597 109.8 
L 57.841948 109.8 
L 57.968766 116.1 
L 58.113701 116.1 
L 58.240519 97.2 
L 58.258636 103.5 
L 58.29487 103.5 
L 58.439805 90.9 
L 58.87461 90.9 
L 59.001429 84.6 
L 59.037662 84.6 
L 59.182597 72 
L 59.671753 72 
L 59.798571 65.7 
L 59.816688 65.7 
L 59.961623 78.3 
L 60.052208 78.3 
L 60.179026 84.6 
L 60.559481 84.6 
L 60.686299 78.3 
L 60.939935 78.3 
L 61.08487 90.9 
L 61.247922 90.9 
L 61.392857 78.3 
L 61.61026 78.3 
L 61.737078 72 
L 61.90013 90.9 
L 61.918247 90.9 
L 62.063182 103.5 
L 62.153766 103.5 
L 62.280584 97.2 
L 62.661039 97.2 
L 62.787857 103.5 
L 63.023377 103.5 
L 63.150195 97.2 
L 63.29513 97.2 
L 63.421948 103.5 
L 63.548766 97.2 
L 63.585 97.2 
L 63.729935 84.6 
L 63.748052 84.6 
L 63.87487 78.3 
L 63.911104 78.3 
L 64.037922 72 
L 64.527078 72 
L 64.653896 65.7 
L 64.798831 65.7 
L 64.871299 59.4 
L 64.907532 65.7 
L 64.998117 65.7 
L 65.124935 72 
L 65.233636 72 
L 65.360455 78.3 
L 65.541623 78.3 
L 65.686558 65.7 
L 65.722792 65.7 
L 65.777143 59.4 
L 65.831494 65.7 
L 65.903961 65.7 
L 66.030779 59.4 
L 66.048896 59.4 
L 66.121364 46.8 
L 66.175714 53.1 
L 66.338766 53.1 
L 66.447468 59.4 
L 66.574286 53.1 
L 66.646753 53.1 
L 66.773571 59.4 
L 67.045325 59.4 
L 67.081558 65.7 
L 67.154026 59.4 
L 67.208377 59.4 
L 67.317078 72 
L 67.335195 65.7 
L 67.371429 65.7 
L 67.389545 72 
L 67.462013 65.7 
L 67.534481 53.1 
L 67.588831 59.4 
L 67.661299 59.4 
L 67.788117 53.1 
L 67.806234 53.1 
L 67.933052 59.4 
L 68.05987 53.1 
L 68.150455 53.1 
L 68.277273 59.4 
L 68.58526 59.4 
L 68.730195 46.8 
L 68.893247 46.8 
L 69.038182 34.2 
L 69.165 34.2 
L 69.291818 40.5 
L 69.346169 40.5 
L 69.418636 46.8 
L 69.45487 40.5 
L 69.726623 40.5 
L 69.853442 46.8 
L 69.871558 46.8 
L 69.998377 40.5 
L 70.070844 40.5 
L 70.197662 46.8 
L 70.233896 46.8 
L 70.360714 40.5 
L 70.469416 40.5 
L 70.614351 27.9 
L 70.940455 27.9 
L 71.121623 53.1 
L 71.194091 53.1 
L 71.284675 46.8 
L 71.302792 53.1 
L 71.810065 53.1 
L 71.936883 46.8 
L 72.190519 46.8 
L 72.208636 40.5 
L 72.299221 46.8 
L 72.426039 53.1 
L 72.516623 53.1 
L 72.661558 65.7 
L 72.697792 65.7 
L 72.842727 53.1 
L 72.860844 53.1 
L 72.987662 59.4 
L 73.042013 46.8 
L 73.114481 53.1 
L 73.150714 53.1 
L 73.277532 59.4 
L 73.295649 59.4 
L 73.404351 65.7 
L 73.531169 59.4 
L 73.657987 59.4 
L 73.784805 53.1 
L 73.802922 53.1 
L 73.857273 46.8 
L 73.911623 53.1 
L 74.092792 53.1 
L 74.237727 65.7 
L 74.328312 65.7 
L 74.45513 72 
L 74.618182 53.1 
L 74.781234 53.1 
L 74.908052 46.8 
L 75.071104 46.8 
L 75.179805 34.2 
L 75.197922 40.5 
L 75.216039 40.5 
L 75.342857 34.2 
L 75.433442 34.2 
L 75.469675 40.5 
L 75.542143 34.2 
L 75.668961 34.2 
L 75.795779 40.5 
L 76.212468 40.5 
L 76.321169 34.2 
L 76.466104 46.8 
L 76.502338 46.8 
L 76.611039 34.2 
L 76.629156 40.5 
L 76.701623 46.8 
L 76.737857 40.5 
L 76.95526 40.5 
L 77.027727 34.2 
L 77.063961 40.5 
L 77.118312 40.5 
L 77.24513 46.8 
L 77.426299 46.8 
L 77.480649 53.1 
L 77.535 46.8 
L 77.607468 46.8 
L 77.734286 40.5 
L 77.969805 40.5 
L 78.078506 34.2 
L 78.223442 46.8 
L 78.241558 46.8 
L 78.368377 40.5 
L 78.40461 40.5 
L 78.549545 53.1 
L 78.694481 53.1 
L 78.857532 72 
L 79.038701 72 
L 79.093052 65.7 
L 79.147403 72 
L 79.437273 72 
L 79.564091 78.3 
L 79.636558 78.3 
L 79.763377 72 
L 79.835844 72 
L 79.926429 78.3 
L 79.944545 72 
L 80.125714 72 
L 80.252532 84.6 
L 80.325 78.3 
L 80.361234 84.6 
L 80.578636 84.6 
L 80.687338 90.9 
L 80.814156 84.6 
L 80.90474 84.6 
L 81.031558 90.9 
L 81.049675 90.9 
L 81.104026 84.6 
L 81.158377 90.9 
L 81.230844 90.9 
L 81.357662 97.2 
L 81.43013 97.2 
L 81.575065 84.6 
L 81.593182 84.6 
L 81.72 90.9 
L 81.774351 90.9 
L 81.919286 103.5 
L 81.937403 103.5 
L 82.064221 97.2 
L 82.662078 97.2 
L 82.788896 103.5 
L 82.843247 103.5 
L 82.970065 97.2 
L 83.259935 97.2 
L 83.386753 103.5 
L 83.549805 103.5 
L 83.676623 109.8 
L 83.821558 109.8 
L 83.875909 103.5 
L 83.93026 109.8 
L 84.310714 109.8 
L 84.437532 116.1 
L 84.473766 116.1 
L 84.600584 109.8 
L 84.673052 109.8 
L 84.79987 116.1 
L 85.053506 116.1 
L 85.198442 128.7 
L 85.252792 128.7 
L 85.415844 109.8 
L 85.560779 109.8 
L 85.687597 116.1 
L 86.068052 116.1 
L 86.19487 109.8 
L 86.466623 109.8 
L 86.593442 116.1 
L 86.702143 116.1 
L 86.828961 109.8 
L 87.028247 109.8 
L 87.191299 90.9 
L 87.245649 90.9 
L 87.390584 78.3 
L 87.444935 78.3 
L 87.571753 84.6 
L 87.752922 84.6 
L 87.897857 72 
L 87.952208 72 
L 88.079026 65.7 
L 88.097143 65.7 
L 88.223961 72 
L 88.749351 72 
L 88.876169 59.4 
L 89.021104 72 
L 89.075455 72 
L 89.202273 65.7 
L 89.437792 65.7 
L 89.582727 53.1 
L 89.691429 53.1 
L 89.818247 59.4 
L 90.325519 59.4 
L 90.452338 65.7 
L 90.579156 59.4 
L 90.651623 59.4 
L 90.814675 78.3 
L 90.869026 78.3 
L 91.013961 90.9 
L 91.376299 90.9 
L 91.521234 103.5 
L 91.575584 103.5 
L 91.611818 109.8 
L 91.684286 103.5 
L 91.865455 103.5 
L 92.01039 90.9 
L 92.372727 90.9 
L 92.517662 103.5 
L 92.553896 103.5 
L 92.680714 97.2 
L 92.698831 97.2 
L 92.825649 103.5 
L 93.061169 103.5 
L 93.206104 116.1 
L 93.858312 116.1 
L 94.021364 97.2 
L 94.075714 97.2 
L 94.148182 103.5 
L 94.184416 97.2 
L 95.235195 97.2 
L 95.362013 103.5 
L 95.488831 103.5 
L 95.633766 116.1 
L 96.177273 116.1 
L 96.304091 122.4 
L 96.865714 122.4 
L 96.992532 116.1 
L 97.481688 116.1 
L 97.64474 135 
L 97.771558 135 
L 97.898377 141.3 
L 99.855 141.3 
L 99.981818 147.6 
L 100.217338 147.6 
L 100.344156 141.3 
L 100.489091 141.3 
L 100.615909 147.6 
L 101.159416 147.6 
L 101.286234 141.3 
L 102.554416 141.3 
L 102.681234 135 
L 103.840714 135 
L 103.967532 141.3 
L 104.601623 141.3 
L 104.728442 135 
L 104.782792 135 
L 104.90961 141.3 
L 106.177792 141.3 
L 106.30461 147.6 
L 106.630714 147.6 
L 106.757532 141.3 
L 107.065519 141.3 
L 107.192338 135 
L 108.225 135 
L 108.351818 141.3 
L 109.62 141.3 
L 109.746818 135 
L 109.873636 135 
L 110.000455 128.7 
L 110.254091 128.7 
L 110.380909 135 
L 110.688896 135 
L 110.815714 141.3 
L 113.22526 141.3 
L 113.243377 135 
L 113.333961 141.3 
L 113.497013 141.3 
L 113.569481 147.6 
L 113.605714 141.3 
L 116.812403 141.3 
L 116.848636 135 
L 116.921104 141.3 
L 117.192857 141.3 
L 117.319675 147.6 
L 120.435779 147.6 
L 120.562597 153.9 
L 142.991299 153.9 
L 143.118117 147.6 
L 144.513117 147.6 
L 144.639935 141.3 
L 146.614675 141.3 
L 146.741494 147.6 
L 148.136494 147.6 
L 148.263312 153.9 
L 151.035195 153.9 
L 151.162013 147.6 
L 154.658571 147.6 
L 154.78539 153.9 
L 156.76013 153.9 
L 156.886948 147.6 
L 157.992078 147.6 
L 158.118896 141.3 
L 159.803766 141.3 
L 159.930584 135 
L 160.383506 135 
L 160.510325 141.3 
L 161.615455 141.3 
L 161.742273 147.6 
L 163.427143 147.6 
L 163.553961 153.9 
L 163.698896 153.9 
L 163.825714 147.6 
L 167.322273 147.6 
L 167.449091 153.9 
L 172.884156 153.9 
L 173.010974 147.6 
L 176.507532 147.6 
L 176.634351 153.9 
L 180.728766 153.9 
L 180.855584 147.6 
L 184.352143 147.6 
L 184.478961 153.9 
L 202.197273 153.9 
L 202.324091 147.6 
L 205.820649 147.6 
L 205.947468 153.9 
L 217.922727 153.9 
L 217.922727 153.9 
" style="fill:none;stroke:#008000;stroke-linecap:square;stroke-width:1.5;"/>
   </g>
   <g id="patch_3">
    <path d="M 31.5 160.2 
L 31.5 21.6 
" style="fill:none;stroke:#000000;stroke-linecap:square;stroke-linejoin:miter;stroke-width:0.8;"/>
   </g>
   <g id="patch_4">
    <path d="M 226.8 160.2 
L 226.8 21.6 
" style="fill:none;stroke:#000000;stroke-linecap:square;stroke-linejoin:miter;stroke-width:0.8;"/>
   </g>
   <g id="patch_5">
    <path d="M 31.5 160.2 
L 226.8 160.2 
" style="fill:none;stroke:#000000;stroke-linecap:square;stroke-linejoin:miter;stroke-width:0.8;"/>
   </g>
   <g id="patch_6">
    <path d="M 31.5 21.6 
L 226.8 21.6 
" style="fill:none;stroke:#000000;stroke-linecap:square;stroke-linejoin:miter;stroke-width:0.8;"/>
   </g>
   <g id="legend_1">
    <g id="patch_7">
     <path d="M 138.028125 59.234375 
L 219.8 59.234375 
Q 221.8 59.234375 221.8 57.234375 
L 221.8 28.6 
Q 221.8 26.6 219.8 26.6 
L 138.028125 26.6 
Q 136.028125 26.6 136.028125 28.6 
L 136.028125 57.234375 
Q 136.028125 59.234375 138.028125 59.234375 
z
" style="fill:#ffffff;opacity:0.8;stroke:#cccccc;stroke-linejoin:miter;"/>
    </g>
    <g id="patch_8">
     <path d="M 140.028125 38.198437 
L 160.028125 38.198437 
L 160.028125 31.198437 
L 140.028125 31.198437 
z
" style="fill:#0000ff;stroke:#0000ff;stroke-linejoin:miter;"/>
    </g>
    <g id="text_15">
     <text style="font-family:DejaVu Sans;font-size:10px;font-stretch:normal;font-style:normal;font-weight:normal;text-anchor:start;" transform="rotate(-0, 168.028125, 38.198437)" x="168.028125" y="38.198437">cadrl</text>
    </g>
    <g id="patch_9">
     <path d="M 140.028125 52.876562 
L 160.028125 52.876562 
L 160.028125 45.876562 
L 140.028125 45.876562 
z
" style="fill:#008000;stroke:#008000;stroke-linejoin:miter;"/>
    </g>
    <g id="text_16">
     <text style="font-family:DejaVu Sans;font-size:10px;font-stretch:normal;font-style:normal;font-weight:normal;text-anchor:start;" transform="rotate(-0, 168.028125, 52.876562)" x="168.028125" y="52.876562">cadrl_pref</text>
    </g>
   </g>
  </g>
 </g>
 <defs>
  <clipPath id="p822c6eea05">
   <rect height="138.6" width="195.3" x="31.5" y="21.6"/>
  </clipPath>
 </defs>
</svg>
