<?xml version="1.0" encoding="utf-8" standalone="no"?>
<!DOCTYPE svg PUBLIC "-//W3C//DTD SVG 1.1//EN"
  "http://www.w3.org/Graphics/SVG/1.1/DTD/svg11.dtd">
<svg height="180pt" version="1.1" viewBox="0 0 252 180" width="252pt" xmlns="http://www.w3.org/2000/svg" xmlns:xlink="http://www.w3.org/1999/xlink">
 <metadata>
  <rdf:RDF xmlns:cc="http://creativecommons.org/ns#" xmlns:dc="http://purl.org/dc/elements/1.1/" xmlns:rdf="http://www.w3.org/1999/02/22-rdf-syntax-ns#">
   <cc:Work>
    <dc:type rdf:resource="http://purl.org/dc/dcmitype/StillImage"/>
    <dc:date>2022-02-23T22:09:09.173852</dc:date>
    <dc:format>image/svg+xml</dc:format>
    <dc:creator>
     <cc:Agent>
      <dc:title>Matplotlib v3.4.3, https://matplotlib.org/</dc:title>
     </cc:Agent>
    </dc:creator>
   </cc:Work>
  </rdf:RDF>
 </metadata>
 <defs>
  <style type="text/css">*{stroke-linecap:butt;stroke-linejoin:round;}</style>
 </defs>
 <g id="figure_1">
  <g id="patch_1">
   <path d="M 0 180 
L 252 180 
L 252 0 
L 0 0 
z
" style="fill:#ffffff;"/>
  </g>
  <g id="axes_1">
   <g id="patch_2">
    <path d="M 31.5 160.2 
L 226.8 160.2 
L 226.8 21.6 
L 31.5 21.6 
z
" style="fill:#ffffff;"/>
   </g>
   <g id="matplotlib.axis_1">
    <g id="xtick_1">
     <g id="line2d_1">
      <defs>
       <path d="M 0 0 
L 0 3.5 
" id="m12fe9a2d39" style="stroke:#000000;stroke-width:0.8;"/>
      </defs>
      <g>
       <use style="stroke:#000000;stroke-width:0.8;" x="40.377273" xlink:href="#m12fe9a2d39" y="160.2"/>
      </g>
     </g>
     <g id="text_1">
      <text style="font-family:DejaVu Sans;font-size:10px;font-stretch:normal;font-style:normal;font-weight:normal;text-anchor:middle;" transform="rotate(-0, 40.377273, 174.798438)" x="40.377273" y="174.798438">0</text>
     </g>
    </g>
    <g id="xtick_2">
     <g id="line2d_2">
      <g>
       <use style="stroke:#000000;stroke-width:0.8;" x="76.611039" xlink:href="#m12fe9a2d39" y="160.2"/>
      </g>
     </g>
     <g id="text_2">
      <text style="font-family:DejaVu Sans;font-size:10px;font-stretch:normal;font-style:normal;font-weight:normal;text-anchor:middle;" transform="rotate(-0, 76.611039, 174.798438)" x="76.611039" y="174.798438">2000</text>
     </g>
    </g>
    <g id="xtick_3">
     <g id="line2d_3">
      <g>
       <use style="stroke:#000000;stroke-width:0.8;" x="112.844805" xlink:href="#m12fe9a2d39" y="160.2"/>
      </g>
     </g>
     <g id="text_3">
      <text style="font-family:DejaVu Sans;font-size:10px;font-stretch:normal;font-style:normal;font-weight:normal;text-anchor:middle;" transform="rotate(-0, 112.844805, 174.798438)" x="112.844805" y="174.798438">4000</text>
     </g>
    </g>
    <g id="xtick_4">
     <g id="line2d_4">
      <g>
       <use style="stroke:#000000;stroke-width:0.8;" x="149.078571" xlink:href="#m12fe9a2d39" y="160.2"/>
      </g>
     </g>
     <g id="text_4">
      <text style="font-family:DejaVu Sans;font-size:10px;font-stretch:normal;font-style:normal;font-weight:normal;text-anchor:middle;" transform="rotate(-0, 149.078571, 174.798438)" x="149.078571" y="174.798438">6000</text>
     </g>
    </g>
    <g id="xtick_5">
     <g id="line2d_5">
      <g>
       <use style="stroke:#000000;stroke-width:0.8;" x="185.312338" xlink:href="#m12fe9a2d39" y="160.2"/>
      </g>
     </g>
     <g id="text_5">
      <text style="font-family:DejaVu Sans;font-size:10px;font-stretch:normal;font-style:normal;font-weight:normal;text-anchor:middle;" transform="rotate(-0, 185.312338, 174.798438)" x="185.312338" y="174.798438">8000</text>
     </g>
    </g>
    <g id="xtick_6">
     <g id="line2d_6">
      <g>
       <use style="stroke:#000000;stroke-width:0.8;" x="221.546104" xlink:href="#m12fe9a2d39" y="160.2"/>
      </g>
     </g>
     <g id="text_6">
      <text style="font-family:DejaVu Sans;font-size:10px;font-stretch:normal;font-style:normal;font-weight:normal;text-anchor:middle;" transform="rotate(-0, 221.546104, 174.798438)" x="221.546104" y="174.798438">10000</text>
     </g>
    </g>
    <g id="text_7">
     <text style="font-family:DejaVu Sans;font-size:10px;font-stretch:normal;font-style:normal;font-weight:normal;text-anchor:middle;" transform="rotate(-0, 129.15, 188.476562)" x="129.15" y="188.476562">episodes</text>
    </g>
   </g>
   <g id="matplotlib.axis_2">
    <g id="ytick_1">
     <g id="line2d_7">
      <defs>
       <path d="M 0 0 
L -3.5 0 
" id="me37fddf2d0" style="stroke:#000000;stroke-width:0.8;"/>
      </defs>
      <g>
       <use style="stroke:#000000;stroke-width:0.8;" x="31.5" xlink:href="#me37fddf2d0" y="153.9"/>
      </g>
     </g>
     <g id="text_8">
      <text style="font-family:DejaVu Sans;font-size:10px;font-stretch:normal;font-style:normal;font-weight:normal;text-anchor:end;" transform="rotate(-0, 24.5, 157.699219)" x="24.5" y="157.699219">0.0</text>
     </g>
    </g>
    <g id="ytick_2">
     <g id="line2d_8">
      <g>
       <use style="stroke:#000000;stroke-width:0.8;" x="31.5" xlink:href="#me37fddf2d0" y="112.588525"/>
      </g>
     </g>
     <g id="text_9">
      <text style="font-family:DejaVu Sans;font-size:10px;font-stretch:normal;font-style:normal;font-weight:normal;text-anchor:end;" transform="rotate(-0, 24.5, 116.387743)" x="24.5" y="116.387743">0.1</text>
     </g>
    </g>
    <g id="ytick_3">
     <g id="line2d_9">
      <g>
       <use style="stroke:#000000;stroke-width:0.8;" x="31.5" xlink:href="#me37fddf2d0" y="71.277049"/>
      </g>
     </g>
     <g id="text_10">
      <text style="font-family:DejaVu Sans;font-size:10px;font-stretch:normal;font-style:normal;font-weight:normal;text-anchor:end;" transform="rotate(-0, 24.5, 75.076268)" x="24.5" y="75.076268">0.2</text>
     </g>
    </g>
    <g id="ytick_4">
     <g id="line2d_10">
      <g>
       <use style="stroke:#000000;stroke-width:0.8;" x="31.5" xlink:href="#me37fddf2d0" y="29.965574"/>
      </g>
     </g>
     <g id="text_11">
      <text style="font-family:DejaVu Sans;font-size:10px;font-stretch:normal;font-style:normal;font-weight:normal;text-anchor:end;" transform="rotate(-0, 24.5, 33.764793)" x="24.5" y="33.764793">0.3</text>
     </g>
    </g>
    <g id="text_12">
     <text style="font-family:DejaVu Sans;font-size:10px;font-stretch:normal;font-style:normal;font-weight:normal;text-anchor:middle;" transform="rotate(-90, 2.239062, 90.9)" x="2.239062" y="90.9">collision_rate</text>
    </g>
   </g>
   <g id="line2d_11">
    <path clip-path="url(#pf4eab0f1f1)" d="M 40.377273 32.031148 
L 40.467857 32.031148 
L 40.576558 27.9 
L 40.594675 29.965574 
L 40.612792 29.965574 
L 40.830195 42.359016 
L 40.848312 42.359016 
L 41.011364 36.162295 
L 41.047597 36.162295 
L 41.174416 38.227869 
L 41.265 36.162295 
L 41.283117 38.227869 
L 41.373701 38.227869 
L 41.482403 36.162295 
L 41.500519 38.227869 
L 41.536753 34.096721 
L 41.572987 34.096721 
L 41.609221 32.031148 
L 41.645455 36.162295 
L 41.826623 44.42459 
L 41.84474 44.42459 
L 41.935325 46.490164 
L 41.953442 44.42459 
L 41.971558 44.42459 
L 42.062143 40.293443 
L 42.098377 42.359016 
L 42.261429 48.555738 
L 42.315779 46.490164 
L 42.37013 48.555738 
L 42.551299 56.818033 
L 42.623766 56.818033 
L 42.804935 65.080328 
L 42.895519 65.080328 
L 42.986104 63.014754 
L 43.004221 65.080328 
L 43.058571 65.080328 
L 43.18539 67.145902 
L 43.294091 67.145902 
L 43.312208 69.211475 
L 43.384675 65.080328 
L 43.402792 65.080328 
L 43.52961 69.211475 
L 43.565844 67.145902 
L 43.620195 69.211475 
L 43.747013 71.277049 
L 43.891948 71.277049 
L 43.910065 69.211475 
L 43.946299 73.342623 
L 44.000649 71.277049 
L 44.018766 71.277049 
L 44.091234 69.211475 
L 44.127468 71.277049 
L 44.236169 79.539344 
L 44.290519 77.47377 
L 44.34487 75.408197 
L 44.381104 79.539344 
L 44.544156 85.736066 
L 44.562273 85.736066 
L 44.707208 89.867213 
L 44.779675 89.867213 
L 44.906494 87.801639 
L 44.960844 87.801639 
L 45.087662 85.736066 
L 45.123896 85.736066 
L 45.268831 89.867213 
L 45.305065 89.867213 
L 45.431883 87.801639 
L 45.522468 87.801639 
L 45.558701 85.736066 
L 45.613052 89.867213 
L 45.631169 89.867213 
L 45.649286 91.932787 
L 45.73987 89.867213 
L 45.812338 87.801639 
L 45.848571 89.867213 
L 45.884805 89.867213 
L 46.011623 91.932787 
L 46.047857 91.932787 
L 46.192792 87.801639 
L 46.373961 87.801639 
L 46.518896 83.670492 
L 46.627597 87.801639 
L 46.645714 85.736066 
L 46.681948 85.736066 
L 46.845 79.539344 
L 46.881234 79.539344 
L 46.935584 75.408197 
L 46.989935 77.47377 
L 47.116753 79.539344 
L 47.243571 77.47377 
L 47.261688 77.47377 
L 47.42474 71.277049 
L 47.442857 71.277049 
L 47.587792 67.145902 
L 47.732727 71.277049 
L 47.750844 71.277049 
L 47.859545 65.080328 
L 47.895779 67.145902 
L 47.932013 67.145902 
L 48.058831 65.080328 
L 48.076948 65.080328 
L 48.131299 60.94918 
L 48.203766 63.014754 
L 48.348701 63.014754 
L 48.403052 60.94918 
L 48.457403 63.014754 
L 48.52987 63.014754 
L 48.620455 60.94918 
L 48.638571 63.014754 
L 48.692922 63.014754 
L 48.801623 58.883607 
L 48.81974 60.94918 
L 48.855974 60.94918 
L 48.928442 58.883607 
L 48.964675 60.94918 
L 49.019026 60.94918 
L 49.145844 54.752459 
L 49.163961 56.818033 
L 49.236429 56.818033 
L 49.272662 54.752459 
L 49.308896 58.883607 
L 49.327013 58.883607 
L 49.363247 58.883607 
L 49.381364 60.94918 
L 49.435714 54.752459 
L 49.453831 54.752459 
L 49.616883 48.555738 
L 49.671234 48.555738 
L 49.743701 52.686885 
L 49.779935 48.555738 
L 49.798052 48.555738 
L 49.870519 50.621311 
L 49.888636 48.555738 
L 49.961104 44.42459 
L 49.997338 46.490164 
L 50.051688 44.42459 
L 50.124156 48.555738 
L 50.178506 48.555738 
L 50.250974 46.490164 
L 50.287208 48.555738 
L 50.305325 48.555738 
L 50.377792 52.686885 
L 50.432143 50.621311 
L 50.468377 50.621311 
L 50.613312 46.490164 
L 50.649545 46.490164 
L 50.794481 50.621311 
L 50.812597 50.621311 
L 50.957532 54.752459 
L 51.066234 54.752459 
L 51.229286 60.94918 
L 51.247403 60.94918 
L 51.283636 63.014754 
L 51.31987 58.883607 
L 51.374221 56.818033 
L 51.428571 58.883607 
L 51.573506 63.014754 
L 51.60974 63.014754 
L 51.700325 58.883607 
L 51.718442 60.94918 
L 51.84526 63.014754 
L 51.972078 58.883607 
L 52.098896 60.94918 
L 52.117013 60.94918 
L 52.298182 69.211475 
L 52.316299 69.211475 
L 52.461234 73.342623 
L 52.479351 73.342623 
L 52.606169 75.408197 
L 52.642403 75.408197 
L 52.696753 81.604918 
L 52.787338 79.539344 
L 52.932273 75.408197 
L 52.95039 75.408197 
L 53.00474 73.342623 
L 53.040974 77.47377 
L 53.077208 77.47377 
L 53.258377 85.736066 
L 53.276494 85.736066 
L 53.367078 83.670492 
L 53.385195 85.736066 
L 53.457662 87.801639 
L 53.493896 85.736066 
L 53.512013 85.736066 
L 53.584481 89.867213 
L 53.620714 87.801639 
L 53.638831 85.736066 
L 53.675065 89.867213 
L 53.711299 89.867213 
L 53.801883 89.867213 
L 53.856234 91.932787 
L 53.910584 89.867213 
L 54.001169 89.867213 
L 54.182338 98.129508 
L 54.34539 91.932787 
L 54.490325 91.932787 
L 54.599026 93.998361 
L 54.762078 87.801639 
L 54.907013 87.801639 
L 54.979481 93.998361 
L 55.051948 91.932787 
L 55.124416 91.932787 
L 55.269351 96.063934 
L 55.287468 96.063934 
L 55.414286 98.129508 
L 55.468636 98.129508 
L 55.613571 102.260656 
L 55.649805 102.260656 
L 55.704156 100.195082 
L 55.758506 102.260656 
L 55.830974 102.260656 
L 55.957792 100.195082 
L 56.265779 100.195082 
L 56.32013 98.129508 
L 56.374481 100.195082 
L 56.410714 100.195082 
L 56.591883 108.457377 
L 56.628117 108.457377 
L 56.664351 106.391803 
L 56.736818 108.457377 
L 56.89987 108.457377 
L 57.026688 110.522951 
L 57.062922 110.522951 
L 57.081039 108.457377 
L 57.13539 112.588525 
L 57.153506 112.588525 
L 57.207857 112.588525 
L 57.352792 116.719672 
L 57.370909 116.719672 
L 57.47961 114.654098 
L 57.606429 116.719672 
L 57.751364 116.719672 
L 57.805714 114.654098 
L 57.860065 116.719672 
L 57.986883 118.785246 
L 58.149935 118.785246 
L 58.276753 120.85082 
L 58.367338 118.785246 
L 58.385455 120.85082 
L 58.476039 120.85082 
L 58.602857 116.719672 
L 58.729675 118.785246 
L 58.802143 118.785246 
L 58.82026 120.85082 
L 58.910844 118.785246 
L 59.255065 118.785246 
L 59.381883 120.85082 
L 59.454351 120.85082 
L 59.581169 122.916393 
L 59.889156 122.916393 
L 60.015974 124.981967 
L 60.251494 124.981967 
L 60.305844 127.047541 
L 60.342078 122.916393 
L 60.686299 122.916393 
L 60.813117 124.981967 
L 60.885584 124.981967 
L 60.994286 122.916393 
L 61.048636 124.981967 
L 61.102987 122.916393 
L 61.302273 122.916393 
L 61.392857 127.047541 
L 61.429091 124.981967 
L 61.501558 124.981967 
L 61.592143 129.113115 
L 61.628377 127.047541 
L 61.66461 127.047541 
L 61.809545 122.916393 
L 61.90013 122.916393 
L 62.008831 127.047541 
L 62.026948 124.981967 
L 62.099416 124.981967 
L 62.244351 129.113115 
L 62.443636 129.113115 
L 62.461753 131.178689 
L 62.552338 129.113115 
L 62.606688 129.113115 
L 62.751623 124.981967 
L 62.842208 124.981967 
L 62.969026 122.916393 
L 63.041494 122.916393 
L 63.168312 120.85082 
L 63.29513 120.85082 
L 63.476299 112.588525 
L 63.548766 112.588525 
L 63.693701 108.457377 
L 63.711818 108.457377 
L 63.838636 106.391803 
L 63.892987 106.391803 
L 63.929221 104.32623 
L 63.965455 108.457377 
L 64.001688 106.391803 
L 64.037922 106.391803 
L 64.16474 104.32623 
L 64.508961 104.32623 
L 64.527078 106.391803 
L 64.617662 104.32623 
L 64.672013 104.32623 
L 64.708247 106.391803 
L 64.780714 104.32623 
L 64.998117 104.32623 
L 65.016234 102.260656 
L 65.106818 104.32623 
L 65.215519 104.32623 
L 65.360455 108.457377 
L 65.378571 108.457377 
L 65.523506 112.588525 
L 65.650325 110.522951 
L 65.722792 110.522951 
L 65.885844 104.32623 
L 65.922078 104.32623 
L 66.048896 102.260656 
L 66.067013 102.260656 
L 66.08513 100.195082 
L 66.175714 102.260656 
L 66.230065 102.260656 
L 66.338766 104.32623 
L 66.465584 102.260656 
L 66.610519 106.391803 
L 66.646753 106.391803 
L 66.791688 102.260656 
L 66.918506 102.260656 
L 67.063442 108.457377 
L 67.081558 106.391803 
L 67.172143 108.457377 
L 67.298961 110.522951 
L 67.335195 108.457377 
L 67.407662 110.522951 
L 67.48013 110.522951 
L 67.516364 108.457377 
L 67.588831 110.522951 
L 67.733766 114.654098 
L 67.77 114.654098 
L 67.896818 112.588525 
L 68.023636 112.588525 
L 68.150455 108.457377 
L 68.186688 110.522951 
L 68.259156 108.457377 
L 68.549026 108.457377 
L 68.675844 106.391803 
L 68.820779 106.391803 
L 68.947597 104.32623 
L 69.146883 104.32623 
L 69.291818 108.457377 
L 69.346169 106.391803 
L 69.382403 110.522951 
L 69.509221 112.588525 
L 69.545455 112.588525 
L 69.654156 114.654098 
L 69.69039 112.588525 
L 69.762857 114.654098 
L 69.799091 114.654098 
L 69.925909 112.588525 
L 69.962143 112.588525 
L 70.107078 116.719672 
L 70.125195 116.719672 
L 70.27013 112.588525 
L 70.396948 116.719672 
L 70.523766 114.654098 
L 70.686818 114.654098 
L 70.741169 116.719672 
L 70.795519 114.654098 
L 70.813636 114.654098 
L 70.940455 118.785246 
L 71.08539 114.654098 
L 71.103506 114.654098 
L 71.230325 116.719672 
L 71.393377 116.719672 
L 71.520195 118.785246 
L 71.647013 118.785246 
L 71.773831 120.85082 
L 71.810065 120.85082 
L 71.936883 122.916393 
L 71.955 122.916393 
L 71.991234 124.981967 
L 72.063701 122.916393 
L 72.172403 122.916393 
L 72.317338 127.047541 
L 72.353571 127.047541 
L 72.444156 124.981967 
L 72.462273 127.047541 
L 73.078247 127.047541 
L 73.205065 124.981967 
L 73.277532 124.981967 
L 73.331883 127.047541 
L 73.386234 124.981967 
L 73.422468 124.981967 
L 73.549286 127.047541 
L 73.748571 127.047541 
L 73.893506 131.178689 
L 74.020325 131.178689 
L 74.147143 133.244262 
L 74.16526 133.244262 
L 74.292078 131.178689 
L 74.364545 131.178689 
L 74.382662 133.244262 
L 74.473247 131.178689 
L 74.563831 131.178689 
L 74.708766 135.309836 
L 74.926169 135.309836 
L 75.071104 131.178689 
L 75.342857 131.178689 
L 75.469675 133.244262 
L 75.61461 133.244262 
L 75.741429 135.309836 
L 75.813896 135.309836 
L 75.958831 131.178689 
L 75.976948 131.178689 
L 76.103766 133.244262 
L 76.538571 133.244262 
L 76.66539 135.309836 
L 76.95526 135.309836 
L 77.027727 137.37541 
L 77.063961 135.309836 
L 77.535 135.309836 
L 77.661818 137.37541 
L 77.788636 135.309836 
L 77.915455 137.37541 
L 78.006039 137.37541 
L 78.132857 139.440984 
L 78.549545 139.440984 
L 78.694481 143.572131 
L 79.437273 143.572131 
L 79.582208 147.703279 
L 79.872078 147.703279 
L 80.017013 143.572131 
L 80.325 143.572131 
L 80.451818 145.637705 
L 80.596753 145.637705 
L 80.651104 143.572131 
L 80.705455 145.637705 
L 80.741688 145.637705 
L 80.868506 143.572131 
L 81.828701 143.572131 
L 81.955519 141.506557 
L 82.191039 141.506557 
L 82.335974 137.37541 
L 82.354091 137.37541 
L 82.480909 135.309836 
L 83.042532 135.309836 
L 83.169351 133.244262 
L 83.332403 133.244262 
L 83.477338 129.113115 
L 83.495455 129.113115 
L 83.64039 133.244262 
L 84.22013 133.244262 
L 84.346948 135.309836 
L 84.365065 135.309836 
L 84.437532 137.37541 
L 84.473766 135.309836 
L 84.763636 135.309836 
L 84.890455 133.244262 
L 84.908571 133.244262 
L 85.03539 135.309836 
L 85.343377 135.309836 
L 85.452078 133.244262 
L 85.578896 135.309836 
L 85.669481 135.309836 
L 85.796299 133.244262 
L 85.814416 133.244262 
L 85.959351 137.37541 
L 85.977468 137.37541 
L 86.104286 139.440984 
L 86.665909 139.440984 
L 86.792727 141.506557 
L 86.955779 141.506557 
L 87.100714 145.637705 
L 88.060909 145.637705 
L 88.187727 147.703279 
L 88.242078 147.703279 
L 88.368896 145.637705 
L 88.387013 145.637705 
L 88.513831 147.703279 
L 88.695 147.703279 
L 88.821818 145.637705 
L 88.930519 145.637705 
L 88.966753 143.572131 
L 89.039221 145.637705 
L 89.292857 145.637705 
L 89.419675 147.703279 
L 89.600844 147.703279 
L 89.727662 145.637705 
L 89.908831 145.637705 
L 90.035649 143.572131 
L 90.289286 143.572131 
L 90.416104 141.506557 
L 91.068312 141.506557 
L 91.19513 139.440984 
L 91.865455 139.440984 
L 91.992273 141.506557 
L 92.318377 141.506557 
L 92.445195 143.572131 
L 92.553896 143.572131 
L 92.680714 145.637705 
L 93.224221 145.637705 
L 93.332922 147.703279 
L 93.45974 145.637705 
L 93.532208 145.637705 
L 93.659026 147.703279 
L 93.912662 147.703279 
L 94.039481 149.768852 
L 94.691688 149.768852 
L 94.818506 151.834426 
L 95.38013 151.834426 
L 95.506948 149.768852 
L 96.956299 149.768852 
L 97.010649 151.834426 
L 97.065 149.768852 
L 97.391104 149.768852 
L 97.536039 145.637705 
L 98.296948 145.637705 
L 98.423766 143.572131 
L 98.623052 143.572131 
L 98.74987 141.506557 
L 99.003506 141.506557 
L 99.130325 143.572131 
L 99.619481 143.572131 
L 99.746299 141.506557 
L 100.289805 141.506557 
L 100.416623 139.440984 
L 100.634026 139.440984 
L 100.760844 141.506557 
L 100.851429 141.506557 
L 100.978247 139.440984 
L 101.014481 139.440984 
L 101.159416 143.572131 
L 101.213766 143.572131 
L 101.340584 141.506557 
L 101.920325 141.506557 
L 102.047143 143.572131 
L 102.228312 143.572131 
L 102.246429 141.506557 
L 102.337013 143.572131 
L 102.536299 143.572131 
L 102.663117 141.506557 
L 103.242857 141.506557 
L 103.369675 143.572131 
L 103.913182 143.572131 
L 103.985649 145.637705 
L 104.021883 143.572131 
L 104.402338 143.572131 
L 104.474805 141.506557 
L 104.511039 143.572131 
L 104.837143 143.572131 
L 104.963961 145.637705 
L 105.561818 145.637705 
L 105.688636 143.572131 
L 105.851688 143.572131 
L 105.978506 145.637705 
L 106.159675 145.637705 
L 106.286494 147.703279 
L 107.609026 147.703279 
L 107.735844 149.768852 
L 108.025714 149.768852 
L 108.152532 151.834426 
L 109.185195 151.834426 
L 109.312013 153.9 
L 111.232403 153.9 
L 111.359221 151.834426 
L 112.246948 151.834426 
L 112.373766 149.768852 
L 113.261494 149.768852 
L 113.388312 147.703279 
L 114.38474 147.703279 
L 114.511558 145.637705 
L 114.855779 145.637705 
L 114.982597 147.703279 
L 115.870325 147.703279 
L 115.997143 149.768852 
L 116.01526 149.768852 
L 116.142078 147.703279 
L 116.88487 147.703279 
L 117.011688 149.768852 
L 117.899416 149.768852 
L 118.008117 147.703279 
L 118.134935 149.768852 
L 118.642208 149.768852 
L 118.769026 147.703279 
L 118.968312 147.703279 
L 119.09513 145.637705 
L 119.638636 145.637705 
L 119.765455 147.703279 
L 120.290844 147.703279 
L 120.417662 145.637705 
L 121.522792 145.637705 
L 121.64961 147.703279 
L 122.265584 147.703279 
L 122.392403 149.768852 
L 122.501104 149.768852 
L 122.591688 147.703279 
L 122.609805 149.768852 
L 123.914221 149.768852 
L 124.041039 151.834426 
L 126.052013 151.834426 
L 126.124481 149.768852 
L 126.160714 151.834426 
L 129.67539 151.834426 
L 129.802208 153.9 
L 131.016039 153.9 
L 131.142857 151.834426 
L 131.94 151.834426 
L 132.066818 149.768852 
L 134.639416 149.768852 
L 134.675649 151.834426 
L 134.748117 149.768852 
L 135.563377 149.768852 
L 135.59961 151.834426 
L 135.672078 149.768852 
L 138.299026 149.768852 
L 138.425844 151.834426 
L 139.222987 151.834426 
L 139.349805 153.9 
L 139.49474 153.9 
L 139.621558 151.834426 
L 140.110714 151.834426 
L 140.237532 149.768852 
L 141.505714 149.768852 
L 141.632532 147.703279 
L 142.049221 147.703279 
L 142.176039 145.637705 
L 143.118117 145.637705 
L 143.244935 147.703279 
L 143.734091 147.703279 
L 143.860909 149.768852 
L 145.092857 149.768852 
L 145.129091 147.703279 
L 145.201558 149.768852 
L 145.31026 149.768852 
L 145.437078 147.703279 
L 145.672597 147.703279 
L 145.799416 149.768852 
L 148.716234 149.768852 
L 148.843052 151.834426 
L 148.933636 151.834426 
L 149.060455 153.9 
L 149.132922 153.9 
L 149.25974 151.834426 
L 149.54961 151.834426 
L 149.676429 149.768852 
L 149.857597 149.768852 
L 149.984416 147.703279 
L 150.618506 147.703279 
L 150.745325 145.637705 
L 151.270714 145.637705 
L 151.397532 143.572131 
L 152.756299 143.572131 
L 152.883117 145.637705 
L 153.172987 145.637705 
L 153.299805 147.703279 
L 153.480974 147.703279 
L 153.607792 149.768852 
L 153.698377 149.768852 
L 153.825195 147.703279 
L 154.241883 147.703279 
L 154.368701 149.768852 
L 154.894091 149.768852 
L 155.020909 151.834426 
L 157.321753 151.834426 
L 157.448571 153.9 
L 165.872922 153.9 
L 165.99974 151.834426 
L 166.778766 151.834426 
L 166.905584 149.768852 
L 169.496299 149.768852 
L 169.623117 151.834426 
L 170.021688 151.834426 
L 170.148506 149.768852 
L 170.402143 149.768852 
L 170.528961 151.834426 
L 172.866039 151.834426 
L 172.992857 149.768852 
L 173.300844 149.768852 
L 173.427662 147.703279 
L 173.645065 147.703279 
L 173.771883 149.768852 
L 176.489416 149.768852 
L 176.616234 151.834426 
L 176.924221 151.834426 
L 177.051039 153.9 
L 178.119935 153.9 
L 178.246753 151.834426 
L 178.898961 151.834426 
L 179.025779 149.768852 
L 179.261299 149.768852 
L 179.388117 147.703279 
L 180.312078 147.703279 
L 180.438896 145.637705 
L 181.743312 145.637705 
L 181.87013 147.703279 
L 182.522338 147.703279 
L 182.649156 149.768852 
L 182.884675 149.768852 
L 183.011494 151.834426 
L 183.047727 151.834426 
L 183.174545 149.768852 
L 183.337597 149.768852 
L 183.464416 147.703279 
L 183.935455 147.703279 
L 184.062273 149.768852 
L 185.294221 149.768852 
L 185.421039 147.703279 
L 186.073247 147.703279 
L 186.200065 145.637705 
L 186.236299 145.637705 
L 186.363117 143.572131 
L 186.399351 143.572131 
L 186.526169 141.506557 
L 186.671104 141.506557 
L 186.797922 143.572131 
L 186.960974 143.572131 
L 187.087792 145.637705 
L 188.917597 145.637705 
L 189.044416 147.703279 
L 189.696623 147.703279 
L 189.823442 149.768852 
L 189.859675 149.768852 
L 189.986494 151.834426 
L 190.022727 151.834426 
L 190.149545 153.9 
L 190.276364 153.9 
L 190.403182 151.834426 
L 191.816299 151.834426 
L 191.961234 147.703279 
L 193.89974 147.703279 
L 194.026558 149.768852 
L 194.316429 149.768852 
L 194.443247 147.703279 
L 195.439675 147.703279 
L 195.58461 151.834426 
L 195.693312 151.834426 
L 195.82013 149.768852 
L 196.128117 149.768852 
L 196.254935 147.703279 
L 197.160779 147.703279 
L 197.287597 145.637705 
L 197.722403 145.637705 
L 197.849221 143.572131 
L 197.939805 143.572131 
L 198.03039 145.637705 
L 198.048506 143.572131 
L 198.465195 143.572131 
L 198.592013 141.506557 
L 199.316688 141.506557 
L 199.443506 143.572131 
L 199.751494 143.572131 
L 199.878312 145.637705 
L 200.530519 145.637705 
L 200.657338 143.572131 
L 200.784156 143.572131 
L 200.802273 145.637705 
L 200.892857 143.572131 
L 201.345779 143.572131 
L 201.454481 145.637705 
L 201.581299 143.572131 
L 202.088571 143.572131 
L 202.161039 145.637705 
L 202.197273 143.572131 
L 204.153896 143.572131 
L 204.280714 145.637705 
L 204.425649 145.637705 
L 204.552468 147.703279 
L 204.624935 147.703279 
L 204.751753 145.637705 
L 205.077857 145.637705 
L 205.095974 147.703279 
L 205.186558 145.637705 
L 205.277143 145.637705 
L 205.29526 147.703279 
L 205.367727 143.572131 
L 205.784416 143.572131 
L 205.911234 145.637705 
L 208.248312 145.637705 
L 208.37513 147.703279 
L 208.719351 147.703279 
L 208.846169 149.768852 
L 208.918636 149.768852 
L 209.063571 153.9 
L 210.965844 153.9 
L 211.092662 151.834426 
L 211.708636 151.834426 
L 211.835455 149.768852 
L 212.813766 149.768852 
L 212.958701 145.637705 
L 213.538442 145.637705 
L 213.66526 143.572131 
L 213.900779 143.572131 
L 214.045714 139.440984 
L 214.589221 139.440984 
L 214.716039 141.506557 
L 215.332013 141.506557 
L 215.458831 143.572131 
L 215.694351 143.572131 
L 215.821169 141.506557 
L 216.437143 141.506557 
L 216.582078 145.637705 
L 217.161818 145.637705 
L 217.288636 147.703279 
L 217.524156 147.703279 
L 217.669091 151.834426 
L 217.922727 151.834426 
L 217.922727 151.834426 
" style="fill:none;stroke:#0000ff;stroke-linecap:square;stroke-width:1.5;"/>
   </g>
   <g id="line2d_12">
    <path clip-path="url(#pf4eab0f1f1)" d="M 40.377273 67.145902 
L 40.44974 67.145902 
L 40.558442 65.080328 
L 40.721494 71.277049 
L 40.73961 71.277049 
L 40.757727 73.342623 
L 40.793961 69.211475 
L 40.830195 69.211475 
L 40.848312 69.211475 
L 41.011364 63.014754 
L 41.101948 63.014754 
L 41.228766 60.94918 
L 41.301234 63.014754 
L 41.337468 60.94918 
L 41.373701 60.94918 
L 41.536753 54.752459 
L 41.591104 54.752459 
L 41.754156 63.014754 
L 41.84474 60.94918 
L 41.862857 63.014754 
L 41.971558 63.014754 
L 42.062143 60.94918 
L 42.08026 63.014754 
L 42.116494 63.014754 
L 42.261429 67.145902 
L 42.406364 63.014754 
L 42.551299 67.145902 
L 42.641883 67.145902 
L 42.768701 69.211475 
L 42.823052 69.211475 
L 43.004221 60.94918 
L 43.040455 60.94918 
L 43.112922 63.014754 
L 43.149156 60.94918 
L 43.167273 60.94918 
L 43.221623 63.014754 
L 43.275974 60.94918 
L 43.348442 60.94918 
L 43.402792 56.818033 
L 43.47526 58.883607 
L 43.52961 58.883607 
L 43.602078 56.818033 
L 43.638312 58.883607 
L 43.710779 58.883607 
L 43.801364 56.818033 
L 43.819481 58.883607 
L 43.837597 58.883607 
L 43.982532 54.752459 
L 44.000649 54.752459 
L 44.145584 50.621311 
L 44.163701 50.621311 
L 44.236169 52.686885 
L 44.272403 50.621311 
L 44.34487 46.490164 
L 44.381104 48.555738 
L 44.544156 54.752459 
L 44.616623 52.686885 
L 44.652857 54.752459 
L 44.725325 54.752459 
L 44.888377 60.94918 
L 45.051429 60.94918 
L 45.214481 67.145902 
L 45.359416 63.014754 
L 45.377532 63.014754 
L 45.522468 67.145902 
L 45.594935 67.145902 
L 45.667403 69.211475 
L 45.685519 67.145902 
L 45.812338 63.014754 
L 45.993506 71.277049 
L 46.174675 71.277049 
L 46.337727 65.080328 
L 46.500779 71.277049 
L 46.537013 71.277049 
L 46.700065 77.47377 
L 46.790649 77.47377 
L 46.826883 75.408197 
L 46.863117 79.539344 
L 46.899351 77.47377 
L 46.971818 77.47377 
L 47.098636 81.604918 
L 47.152987 79.539344 
L 47.207338 81.604918 
L 47.261688 81.604918 
L 47.334156 77.47377 
L 47.388506 79.539344 
L 47.406623 79.539344 
L 47.460974 77.47377 
L 47.515325 79.539344 
L 47.533442 79.539344 
L 47.551558 77.47377 
L 47.587792 81.604918 
L 47.605909 81.604918 
L 47.750844 87.801639 
L 47.859545 83.670492 
L 47.877662 85.736066 
L 47.895779 85.736066 
L 47.913896 87.801639 
L 47.95013 83.670492 
L 48.004481 85.736066 
L 48.076948 85.736066 
L 48.095065 83.670492 
L 48.149416 87.801639 
L 48.167532 85.736066 
L 48.312468 89.867213 
L 48.348701 89.867213 
L 48.493636 85.736066 
L 48.52987 87.801639 
L 48.584221 83.670492 
L 48.711039 81.604918 
L 48.837857 81.604918 
L 48.946558 83.670492 
L 49.10961 77.47377 
L 49.218312 77.47377 
L 49.290779 75.408197 
L 49.308896 77.47377 
L 49.381364 81.604918 
L 49.435714 79.539344 
L 49.580649 79.539344 
L 49.616883 77.47377 
L 49.689351 79.539344 
L 49.761818 79.539344 
L 49.942987 87.801639 
L 50.069805 87.801639 
L 50.196623 81.604918 
L 50.21474 83.670492 
L 50.250974 83.670492 
L 50.395909 87.801639 
L 50.468377 87.801639 
L 50.595195 85.736066 
L 50.722013 85.736066 
L 50.776364 87.801639 
L 50.830714 85.736066 
L 50.866948 85.736066 
L 50.939416 83.670492 
L 50.975649 85.736066 
L 51.03 85.736066 
L 51.102468 87.801639 
L 51.138701 85.736066 
L 51.156818 85.736066 
L 51.283636 87.801639 
L 51.374221 87.801639 
L 51.464805 93.998361 
L 51.501039 89.867213 
L 51.537273 89.867213 
L 51.60974 91.932787 
L 51.645974 89.867213 
L 51.700325 89.867213 
L 51.736558 91.932787 
L 51.809026 89.867213 
L 51.84526 89.867213 
L 51.972078 87.801639 
L 52.044545 89.867213 
L 52.080779 87.801639 
L 52.153247 85.736066 
L 52.171364 87.801639 
L 52.334416 93.998361 
L 52.406883 93.998361 
L 52.479351 91.932787 
L 52.515584 93.998361 
L 52.569935 93.998361 
L 52.732987 100.195082 
L 52.896039 93.998361 
L 53.00474 93.998361 
L 53.040974 96.063934 
L 53.113442 93.998361 
L 53.204026 93.998361 
L 53.312727 96.063934 
L 53.439545 93.998361 
L 53.493896 93.998361 
L 53.620714 91.932787 
L 53.693182 91.932787 
L 53.856234 98.129508 
L 54.001169 98.129508 
L 54.037403 93.998361 
L 54.127987 96.063934 
L 54.182338 96.063934 
L 54.200455 93.998361 
L 54.291039 96.063934 
L 54.327273 96.063934 
L 54.39974 93.998361 
L 54.435974 96.063934 
L 54.490325 96.063934 
L 54.63526 100.195082 
L 54.762078 100.195082 
L 54.888896 98.129508 
L 54.92513 98.129508 
L 55.051948 100.195082 
L 55.088182 100.195082 
L 55.251234 106.391803 
L 55.359935 106.391803 
L 55.486753 110.522951 
L 55.613571 106.391803 
L 55.776623 112.588525 
L 55.812857 112.588525 
L 55.830974 114.654098 
L 55.921558 112.588525 
L 55.975909 112.588525 
L 56.03026 110.522951 
L 56.08461 112.588525 
L 56.175195 112.588525 
L 56.302013 110.522951 
L 56.356364 110.522951 
L 56.519416 116.719672 
L 56.664351 116.719672 
L 56.700584 118.785246 
L 56.773052 116.719672 
L 56.791169 116.719672 
L 56.917987 114.654098 
L 56.936104 114.654098 
L 57.062922 116.719672 
L 57.117273 114.654098 
L 57.171623 116.719672 
L 57.207857 116.719672 
L 57.334675 114.654098 
L 57.352792 114.654098 
L 57.497727 110.522951 
L 57.570195 110.522951 
L 57.624545 104.32623 
L 57.71513 106.391803 
L 57.841948 108.457377 
L 57.950649 108.457377 
L 57.968766 110.522951 
L 58.023117 106.391803 
L 58.041234 106.391803 
L 58.168052 104.32623 
L 58.186169 104.32623 
L 58.331104 100.195082 
L 58.349221 100.195082 
L 58.421688 104.32623 
L 58.476039 102.260656 
L 58.802143 102.260656 
L 58.82026 104.32623 
L 58.910844 102.260656 
L 59.11013 102.260656 
L 59.182597 104.32623 
L 59.218831 102.260656 
L 59.273182 102.260656 
L 59.436234 96.063934 
L 59.454351 96.063934 
L 59.508701 98.129508 
L 59.563052 96.063934 
L 59.599286 96.063934 
L 59.726104 98.129508 
L 59.798571 98.129508 
L 59.92539 100.195082 
L 60.015974 100.195082 
L 60.034091 98.129508 
L 60.124675 100.195082 
L 60.323961 100.195082 
L 60.468896 104.32623 
L 60.559481 104.32623 
L 60.686299 100.195082 
L 60.813117 102.260656 
L 60.831234 100.195082 
L 60.921818 102.260656 
L 60.976169 102.260656 
L 61.048636 106.391803 
L 61.102987 104.32623 
L 61.157338 104.32623 
L 61.193571 102.260656 
L 61.229805 106.391803 
L 61.284156 108.457377 
L 61.338506 106.391803 
L 61.392857 106.391803 
L 61.429091 104.32623 
L 61.501558 106.391803 
L 61.628377 106.391803 
L 61.755195 108.457377 
L 61.809545 108.457377 
L 61.936364 110.522951 
L 62.008831 110.522951 
L 62.045065 108.457377 
L 62.117532 110.522951 
L 62.280584 110.522951 
L 62.407403 108.457377 
L 62.443636 108.457377 
L 62.570455 110.522951 
L 62.588571 110.522951 
L 62.679156 106.391803 
L 62.71539 108.457377 
L 62.787857 108.457377 
L 62.969026 116.719672 
L 63.023377 116.719672 
L 63.132078 112.588525 
L 63.150195 114.654098 
L 63.204545 114.654098 
L 63.331364 112.588525 
L 63.349481 112.588525 
L 63.494416 108.457377 
L 63.566883 108.457377 
L 63.639351 104.32623 
L 63.693701 106.391803 
L 63.711818 106.391803 
L 63.838636 104.32623 
L 64.16474 104.32623 
L 64.182857 102.260656 
L 64.273442 104.32623 
L 64.40026 106.391803 
L 64.527078 106.391803 
L 64.653896 104.32623 
L 64.672013 104.32623 
L 64.816948 108.457377 
L 64.907532 106.391803 
L 64.925649 108.457377 
L 65.016234 108.457377 
L 65.143052 110.522951 
L 65.215519 110.522951 
L 65.360455 114.654098 
L 65.469156 114.654098 
L 65.595974 116.719672 
L 65.722792 114.654098 
L 65.831494 114.654098 
L 65.903961 112.588525 
L 65.940195 114.654098 
L 66.067013 114.654098 
L 66.211948 110.522951 
L 66.356883 114.654098 
L 66.465584 114.654098 
L 66.483701 116.719672 
L 66.574286 114.654098 
L 66.646753 114.654098 
L 66.773571 116.719672 
L 66.827922 116.719672 
L 66.90039 118.785246 
L 66.936623 116.719672 
L 66.972857 116.719672 
L 67.117792 120.85082 
L 67.208377 120.85082 
L 67.353312 124.981967 
L 67.606948 124.981967 
L 67.733766 122.916393 
L 67.788117 122.916393 
L 67.860584 124.981967 
L 67.896818 122.916393 
L 68.05987 122.916393 
L 68.186688 124.981967 
L 68.259156 124.981967 
L 68.385974 122.916393 
L 68.440325 122.916393 
L 68.58526 127.047541 
L 68.784545 127.047541 
L 68.929481 122.916393 
L 69.219351 122.916393 
L 69.309935 127.047541 
L 69.346169 124.981967 
L 69.654156 124.981967 
L 69.69039 122.916393 
L 69.762857 124.981967 
L 70.107078 124.981967 
L 70.233896 127.047541 
L 70.252013 127.047541 
L 70.288247 124.981967 
L 70.360714 127.047541 
L 70.523766 127.047541 
L 70.650584 129.113115 
L 70.813636 129.113115 
L 70.940455 131.178689 
L 71.031039 131.178689 
L 71.194091 124.981967 
L 71.212208 124.981967 
L 71.230325 122.916393 
L 71.320909 124.981967 
L 71.483961 124.981967 
L 71.610779 127.047541 
L 71.719481 127.047541 
L 71.846299 129.113115 
L 71.882532 129.113115 
L 72.009351 131.178689 
L 72.353571 131.178689 
L 72.444156 129.113115 
L 72.462273 131.178689 
L 72.915195 131.178689 
L 72.933312 129.113115 
L 73.023896 131.178689 
L 73.277532 131.178689 
L 73.422468 135.309836 
L 73.730455 135.309836 
L 73.857273 133.244262 
L 73.87539 133.244262 
L 73.911623 135.309836 
L 73.984091 133.244262 
L 74.382662 133.244262 
L 74.509481 131.178689 
L 74.654416 131.178689 
L 74.817468 137.37541 
L 74.835584 137.37541 
L 74.926169 139.440984 
L 74.944286 137.37541 
L 75.216039 137.37541 
L 75.342857 135.309836 
L 75.795779 135.309836 
L 75.940714 131.178689 
L 76.049416 131.178689 
L 76.176234 133.244262 
L 76.212468 133.244262 
L 76.339286 131.178689 
L 76.538571 131.178689 
L 76.66539 133.244262 
L 76.774091 133.244262 
L 76.900909 131.178689 
L 77.027727 131.178689 
L 77.154545 129.113115 
L 77.353831 129.113115 
L 77.480649 131.178689 
L 77.535 131.178689 
L 77.661818 133.244262 
L 77.788636 131.178689 
L 78.223442 131.178689 
L 78.368377 127.047541 
L 78.549545 127.047541 
L 78.676364 129.113115 
L 78.694481 129.113115 
L 78.839416 124.981967 
L 78.966234 127.047541 
L 79.419156 127.047541 
L 79.491623 131.178689 
L 79.545974 129.113115 
L 79.600325 129.113115 
L 79.727143 131.178689 
L 79.781494 131.178689 
L 79.944545 124.981967 
L 80.180065 124.981967 
L 80.306883 122.916393 
L 80.325 122.916393 
L 80.469935 127.047541 
L 80.596753 127.047541 
L 80.651104 124.981967 
L 80.705455 127.047541 
L 81.067792 127.047541 
L 81.19461 124.981967 
L 81.285195 124.981967 
L 81.412013 127.047541 
L 81.629416 127.047541 
L 81.756234 129.113115 
L 81.828701 129.113115 
L 81.846818 127.047541 
L 81.883052 131.178689 
L 81.919286 131.178689 
L 82.317857 131.178689 
L 82.444675 133.244262 
L 82.643961 133.244262 
L 82.770779 131.178689 
L 83.115 131.178689 
L 83.241818 133.244262 
L 83.314286 133.244262 
L 83.441104 131.178689 
L 83.459221 131.178689 
L 83.622273 137.37541 
L 83.803442 137.37541 
L 83.93026 139.440984 
L 84.057078 137.37541 
L 84.22013 137.37541 
L 84.346948 139.440984 
L 84.691169 139.440984 
L 84.817987 141.506557 
L 85.452078 141.506557 
L 85.578896 143.572131 
L 85.977468 143.572131 
L 86.104286 145.637705 
L 86.267338 145.637705 
L 86.394156 147.703279 
L 86.937662 147.703279 
L 87.082597 151.834426 
L 87.553636 151.834426 
L 87.626104 153.9 
L 87.662338 151.834426 
L 88.40513 151.834426 
L 88.531948 149.768852 
L 88.695 149.768852 
L 88.821818 147.703279 
L 89.600844 147.703279 
L 89.727662 145.637705 
L 89.908831 145.637705 
L 90.035649 143.572131 
L 90.253052 143.572131 
L 90.37987 141.506557 
L 90.397987 141.506557 
L 90.524805 139.440984 
L 90.796558 139.440984 
L 90.923377 137.37541 
L 91.249481 137.37541 
L 91.321948 139.440984 
L 91.358182 137.37541 
L 91.448766 137.37541 
L 91.593701 133.244262 
L 92.028506 133.244262 
L 92.155325 135.309836 
L 92.318377 135.309836 
L 92.445195 137.37541 
L 92.807532 137.37541 
L 92.934351 135.309836 
L 93.224221 135.309836 
L 93.351039 137.37541 
L 93.387273 137.37541 
L 93.514091 135.309836 
L 93.532208 135.309836 
L 93.659026 137.37541 
L 93.876429 137.37541 
L 94.003247 139.440984 
L 94.021364 139.440984 
L 94.148182 141.506557 
L 94.419935 141.506557 
L 94.546753 143.572131 
L 94.945325 143.572131 
L 95.09026 147.703279 
L 95.198961 147.703279 
L 95.325779 149.768852 
L 96.430909 149.768852 
L 96.557727 151.834426 
L 97.010649 151.834426 
L 97.137468 153.9 
L 97.481688 153.9 
L 97.608506 151.834426 
L 98.441883 151.834426 
L 98.568701 149.768852 
L 100.289805 149.768852 
L 100.416623 147.703279 
L 101.105065 147.703279 
L 101.231883 149.768852 
L 102.06526 149.768852 
L 102.192078 151.834426 
L 102.536299 151.834426 
L 102.663117 149.768852 
L 103.260974 149.768852 
L 103.387792 147.703279 
L 103.913182 147.703279 
L 104.04 149.768852 
L 105.561818 149.768852 
L 105.688636 147.703279 
L 106.159675 147.703279 
L 106.286494 149.768852 
L 106.884351 149.768852 
L 107.011169 151.834426 
L 109.185195 151.834426 
L 109.312013 153.9 
L 115.363052 153.9 
L 115.48987 151.834426 
L 116.395714 151.834426 
L 116.522532 149.768852 
L 118.134935 149.768852 
L 118.261753 147.703279 
L 118.986429 147.703279 
L 119.113247 149.768852 
L 119.928506 149.768852 
L 120.019091 147.703279 
L 120.037208 149.768852 
L 121.758312 149.768852 
L 121.88513 151.834426 
L 123.551883 151.834426 
L 123.678701 153.9 
L 126.432468 153.9 
L 126.559286 151.834426 
L 127.338312 151.834426 
L 127.46513 149.768852 
L 130.055844 149.768852 
L 130.182662 151.834426 
L 130.961688 151.834426 
L 131.088506 153.9 
L 131.758831 153.9 
L 131.885649 151.834426 
L 135.382208 151.834426 
L 135.509026 153.9 
L 135.672078 153.9 
L 135.798896 151.834426 
L 139.295455 151.834426 
L 139.422273 153.9 
L 139.49474 153.9 
L 139.621558 151.834426 
L 141.505714 151.834426 
L 141.632532 149.768852 
L 143.118117 149.768852 
L 143.244935 151.834426 
L 144.368182 151.834426 
L 144.495 149.768852 
L 144.549351 149.768852 
L 144.676169 147.703279 
L 145.092857 147.703279 
L 145.129091 145.637705 
L 145.201558 147.703279 
L 147.991558 147.703279 
L 148.118377 149.768852 
L 148.172727 149.768852 
L 148.299545 151.834426 
L 148.716234 151.834426 
L 148.843052 153.9 
L 150.075 153.9 
L 150.201818 151.834426 
L 150.437338 151.834426 
L 150.564156 149.768852 
L 153.698377 149.768852 
L 153.825195 151.834426 
L 154.060714 151.834426 
L 154.187532 153.9 
L 156.343442 153.9 
L 156.488377 149.768852 
L 159.966818 149.768852 
L 160.111753 153.9 
L 170.18474 153.9 
L 170.311558 151.834426 
L 171.742792 151.834426 
L 171.86961 149.768852 
L 172.866039 149.768852 
L 172.992857 147.703279 
L 173.228377 147.703279 
L 173.355195 145.637705 
L 173.808117 145.637705 
L 173.934935 147.703279 
L 173.971169 147.703279 
L 174.097987 145.637705 
L 175.366169 145.637705 
L 175.492987 147.703279 
L 176.416948 147.703279 
L 176.489416 145.637705 
L 176.525649 147.703279 
L 176.851753 147.703279 
L 176.978571 149.768852 
L 177.594545 149.768852 
L 177.721364 151.834426 
L 178.337338 151.834426 
L 178.464156 149.768852 
L 178.935195 149.768852 
L 179.08013 145.637705 
L 180.040325 145.637705 
L 180.167143 147.703279 
L 180.529481 147.703279 
L 180.656299 145.637705 
L 181.960714 145.637705 
L 182.087532 147.703279 
L 182.232468 147.703279 
L 182.359286 145.637705 
L 182.558571 145.637705 
L 182.703506 149.768852 
L 183.337597 149.768852 
L 183.464416 147.703279 
L 183.518766 147.703279 
L 183.645584 145.637705 
L 184.152857 145.637705 
L 184.279675 147.703279 
L 184.315909 147.703279 
L 184.442727 145.637705 
L 185.855844 145.637705 
L 185.982662 147.703279 
L 186.960974 147.703279 
L 187.087792 149.768852 
L 187.142143 149.768852 
L 187.268961 151.834426 
L 187.939286 151.834426 
L 188.066104 153.9 
L 188.573377 153.9 
L 188.700195 151.834426 
L 190.185779 151.834426 
L 190.312597 149.768852 
L 191.834416 149.768852 
L 191.961234 147.703279 
L 192.196753 147.703279 
L 192.323571 149.768852 
L 192.667792 149.768852 
L 192.79461 147.703279 
L 193.428701 147.703279 
L 193.555519 145.637705 
L 193.809156 145.637705 
L 193.935974 147.703279 
L 195.457792 147.703279 
L 195.58461 149.768852 
L 195.892597 149.768852 
L 196.019416 147.703279 
L 196.291169 147.703279 
L 196.417987 149.768852 
L 197.052078 149.768852 
L 197.160779 151.834426 
L 197.287597 149.768852 
L 197.341948 149.768852 
L 197.468766 147.703279 
L 198.03039 147.703279 
L 198.157208 145.637705 
L 198.682597 145.637705 
L 198.809416 143.572131 
L 199.044935 143.572131 
L 199.171753 141.506557 
L 199.497857 141.506557 
L 199.515974 139.440984 
L 199.606558 141.506557 
L 199.679026 141.506557 
L 199.805844 139.440984 
L 200.276883 139.440984 
L 200.403701 137.37541 
L 200.766039 137.37541 
L 200.784156 135.309836 
L 200.87474 137.37541 
L 200.965325 137.37541 
L 201.092143 139.440984 
L 201.200844 139.440984 
L 201.327662 137.37541 
L 201.472597 137.37541 
L 201.599416 135.309836 
L 201.653766 135.309836 
L 201.780584 137.37541 
L 202.305974 137.37541 
L 202.432792 139.440984 
L 202.668312 139.440984 
L 202.79513 141.506557 
L 203.121234 141.506557 
L 203.248052 143.572131 
L 203.302403 143.572131 
L 203.429221 145.637705 
L 203.90026 145.637705 
L 204.027078 147.703279 
L 204.389416 147.703279 
L 204.516234 149.768852 
L 205.820649 149.768852 
L 205.947468 147.703279 
L 207.016364 147.703279 
L 207.143182 145.637705 
L 208.447597 145.637705 
L 208.574416 147.703279 
L 208.665 147.703279 
L 208.719351 145.637705 
L 208.773701 147.703279 
L 209.444026 147.703279 
L 209.570844 149.768852 
L 210.603506 149.768852 
L 210.63974 147.703279 
L 210.712208 149.768852 
L 210.839026 149.768852 
L 210.965844 147.703279 
L 212.288377 147.703279 
L 212.306494 149.768852 
L 212.397078 147.703279 
L 214.226883 147.703279 
L 214.353701 149.768852 
L 214.444286 149.768852 
L 214.462403 147.703279 
L 214.552987 149.768852 
L 215.92987 149.768852 
L 216.056688 151.834426 
L 216.364675 151.834426 
L 216.491494 149.768852 
L 216.618312 149.768852 
L 216.74513 147.703279 
L 216.871948 147.703279 
L 216.998766 145.637705 
L 217.922727 145.637705 
L 217.922727 145.637705 
" style="fill:none;stroke:#008000;stroke-linecap:square;stroke-width:1.5;"/>
   </g>
   <g id="patch_3">
    <path d="M 31.5 160.2 
L 31.5 21.6 
" style="fill:none;stroke:#000000;stroke-linecap:square;stroke-linejoin:miter;stroke-width:0.8;"/>
   </g>
   <g id="patch_4">
    <path d="M 226.8 160.2 
L 226.8 21.6 
" style="fill:none;stroke:#000000;stroke-linecap:square;stroke-linejoin:miter;stroke-width:0.8;"/>
   </g>
   <g id="patch_5">
    <path d="M 31.5 160.2 
L 226.8 160.2 
" style="fill:none;stroke:#000000;stroke-linecap:square;stroke-linejoin:miter;stroke-width:0.8;"/>
   </g>
   <g id="patch_6">
    <path d="M 31.5 21.6 
L 226.8 21.6 
" style="fill:none;stroke:#000000;stroke-linecap:square;stroke-linejoin:miter;stroke-width:0.8;"/>
   </g>
   <g id="legend_1">
    <g id="patch_7">
     <path d="M 144.665625 59.234375 
L 219.8 59.234375 
Q 221.8 59.234375 221.8 57.234375 
L 221.8 28.6 
Q 221.8 26.6 219.8 26.6 
L 144.665625 26.6 
Q 142.665625 26.6 142.665625 28.6 
L 142.665625 57.234375 
Q 142.665625 59.234375 144.665625 59.234375 
z
" style="fill:#ffffff;opacity:0.8;stroke:#cccccc;stroke-linejoin:miter;"/>
    </g>
    <g id="patch_8">
     <path d="M 146.665625 38.198437 
L 166.665625 38.198437 
L 166.665625 31.198437 
L 146.665625 31.198437 
z
" style="fill:#0000ff;stroke:#0000ff;stroke-linejoin:miter;"/>
    </g>
    <g id="text_13">
     <text style="font-family:DejaVu Sans;font-size:10px;font-stretch:normal;font-style:normal;font-weight:normal;text-anchor:start;" transform="rotate(-0, 174.665625, 38.198437)" x="174.665625" y="38.198437">sarl</text>
    </g>
    <g id="patch_9">
     <path d="M 146.665625 52.876562 
L 166.665625 52.876562 
L 166.665625 45.876562 
L 146.665625 45.876562 
z
" style="fill:#008000;stroke:#008000;stroke-linejoin:miter;"/>
    </g>
    <g id="text_14">
     <text style="font-family:DejaVu Sans;font-size:10px;font-stretch:normal;font-style:normal;font-weight:normal;text-anchor:start;" transform="rotate(-0, 174.665625, 52.876562)" x="174.665625" y="52.876562">sarl_pref</text>
    </g>
   </g>
  </g>
 </g>
 <defs>
  <clipPath id="pf4eab0f1f1">
   <rect height="138.6" width="195.3" x="31.5" y="21.6"/>
  </clipPath>
 </defs>
</svg>
