<?xml version="1.0" encoding="utf-8" standalone="no"?>
<!DOCTYPE svg PUBLIC "-//W3C//DTD SVG 1.1//EN"
  "http://www.w3.org/Graphics/SVG/1.1/DTD/svg11.dtd">
<!-- Created with matplotlib (https://matplotlib.org/) -->
<svg height="180pt" version="1.1" viewBox="0 0 252 180" width="252pt" xmlns="http://www.w3.org/2000/svg" xmlns:xlink="http://www.w3.org/1999/xlink">
 <metadata>
  <rdf:RDF xmlns:cc="http://creativecommons.org/ns#" xmlns:dc="http://purl.org/dc/elements/1.1/" xmlns:rdf="http://www.w3.org/1999/02/22-rdf-syntax-ns#">
   <cc:Work>
    <dc:type rdf:resource="http://purl.org/dc/dcmitype/StillImage"/>
    <dc:date>2021-09-05T23:07:02.922303</dc:date>
    <dc:format>image/svg+xml</dc:format>
    <dc:creator>
     <cc:Agent>
      <dc:title>Matplotlib v3.3.4, https://matplotlib.org/</dc:title>
     </cc:Agent>
    </dc:creator>
   </cc:Work>
  </rdf:RDF>
 </metadata>
 <defs>
  <style type="text/css">*{stroke-linecap:butt;stroke-linejoin:round;}</style>
 </defs>
 <g id="figure_1">
  <g id="patch_1">
   <path d="M 0 180 
L 252 180 
L 252 0 
L 0 0 
z
" style="fill:#ffffff;"/>
  </g>
  <g id="axes_1">
   <g id="patch_2">
    <path d="M 31.5 160.2 
L 226.8 160.2 
L 226.8 21.6 
L 31.5 21.6 
z
" style="fill:#ffffff;"/>
   </g>
   <g id="PolyCollection_1">
    <path clip-path="url(#pbf1039ccfd)" d="M 40.377273 91.666102 
L 40.377273 91.666102 
L 42.135149 94.507908 
L 43.893024 82.241828 
L 45.6509 72.885806 
L 47.408776 66.190362 
L 49.166652 59.423691 
L 50.924527 51.42733 
L 52.682403 49.877059 
L 54.440279 41.916085 
L 56.198155 47.885552 
L 57.956031 37.099604 
L 59.713906 42.35046 
L 61.471782 35.998219 
L 63.229658 27.9 
L 64.987534 29.294693 
L 66.74541 39.656124 
L 68.503285 34.43653 
L 70.261161 37.849454 
L 72.019037 47.93776 
L 73.776913 53.423259 
L 75.534788 54.742557 
L 77.292664 55.526891 
L 79.05054 62.31764 
L 80.808416 56.513642 
L 82.566292 45.09662 
L 84.324167 47.183314 
L 86.082043 50.506717 
L 87.839919 45.543416 
L 89.597795 36.840898 
L 91.355671 42.42133 
L 93.113546 41.609549 
L 94.871422 40.961298 
L 96.629298 46.679698 
L 98.387174 40.920403 
L 100.14505 48.898477 
L 101.902925 45.007238 
L 103.660801 47.920087 
L 105.418677 49.521534 
L 107.176553 55.127097 
L 108.934428 58.569638 
L 110.692304 51.429006 
L 112.45018 43.9971 
L 114.208056 40.483822 
L 115.965932 39.93227 
L 117.723807 46.751767 
L 119.481683 43.168935 
L 121.239559 44.577621 
L 122.997435 43.506981 
L 124.755311 42.605208 
L 126.513186 56.215855 
L 128.271062 59.635061 
L 130.028938 56.027031 
L 131.786814 88.007828 
L 133.544689 108.056969 
L 135.302565 124.411754 
L 137.060441 133.178881 
L 138.818317 141.933692 
L 140.576193 147.526434 
L 142.334068 148.613925 
L 144.091944 150.373326 
L 145.84982 149.313776 
L 147.607696 151.722993 
L 149.365572 153.216355 
L 151.123447 153.432876 
L 152.881323 153.286031 
L 154.639199 153.800022 
L 156.397075 153.617056 
L 158.15495 153.740981 
L 159.912826 153.768547 
L 161.670702 153.720926 
L 163.428578 153.870645 
L 165.186454 153.9 
L 165.186454 153.9 
L 165.186454 153.9 
L 163.428578 153.870645 
L 161.670702 153.720926 
L 159.912826 153.768547 
L 158.15495 153.740981 
L 156.397075 153.617056 
L 154.639199 153.800022 
L 152.881323 153.286031 
L 151.123447 153.432876 
L 149.365572 153.216355 
L 147.607696 151.722993 
L 145.84982 149.313776 
L 144.091944 150.373326 
L 142.334068 148.613925 
L 140.576193 147.526434 
L 138.818317 141.933692 
L 137.060441 133.178881 
L 135.302565 124.411754 
L 133.544689 108.056969 
L 131.786814 88.007828 
L 130.028938 56.027031 
L 128.271062 59.635061 
L 126.513186 56.215855 
L 124.755311 42.605208 
L 122.997435 43.506981 
L 121.239559 44.577621 
L 119.481683 43.168935 
L 117.723807 46.751767 
L 115.965932 39.93227 
L 114.208056 40.483822 
L 112.45018 43.9971 
L 110.692304 51.429006 
L 108.934428 58.569638 
L 107.176553 55.127097 
L 105.418677 49.521534 
L 103.660801 47.920087 
L 101.902925 45.007238 
L 100.14505 48.898477 
L 98.387174 40.920403 
L 96.629298 46.679698 
L 94.871422 40.961298 
L 93.113546 41.609549 
L 91.355671 42.42133 
L 89.597795 36.840898 
L 87.839919 45.543416 
L 86.082043 50.506717 
L 84.324167 47.183314 
L 82.566292 45.09662 
L 80.808416 56.513642 
L 79.05054 62.31764 
L 77.292664 55.526891 
L 75.534788 54.742557 
L 73.776913 53.423259 
L 72.019037 47.93776 
L 70.261161 37.849454 
L 68.503285 34.43653 
L 66.74541 39.656124 
L 64.987534 29.294693 
L 63.229658 27.9 
L 61.471782 35.998219 
L 59.713906 42.35046 
L 57.956031 37.099604 
L 56.198155 47.885552 
L 54.440279 41.916085 
L 52.682403 49.877059 
L 50.924527 51.42733 
L 49.166652 59.423691 
L 47.408776 66.190362 
L 45.6509 72.885806 
L 43.893024 82.241828 
L 42.135149 94.507908 
L 40.377273 91.666102 
z
" style="fill:#0000ff;fill-opacity:0.5;"/>
   </g>
   <g id="PolyCollection_2">
    <path clip-path="url(#pbf1039ccfd)" d="M 40.377273 92.918142 
L 40.377273 92.918142 
L 42.135149 79.686947 
L 43.893024 74.448753 
L 45.6509 60.669738 
L 47.408776 51.083976 
L 49.166652 50.018208 
L 50.924527 48.141933 
L 52.682403 45.831324 
L 54.440279 40.589555 
L 56.198155 43.211306 
L 57.956031 61.087036 
L 59.713906 62.747581 
L 61.471782 57.6316 
L 63.229658 55.222305 
L 64.987534 49.487592 
L 66.74541 57.225265 
L 68.503285 57.044277 
L 70.261161 58.748874 
L 72.019037 48.425166 
L 73.776913 57.972884 
L 75.534788 57.786143 
L 77.292664 44.425948 
L 79.05054 36.356225 
L 80.808416 46.971287 
L 82.566292 46.553783 
L 84.324167 55.904845 
L 86.082043 53.234614 
L 87.839919 47.384335 
L 89.597795 52.626301 
L 91.355671 42.17516 
L 93.113546 39.785929 
L 94.871422 40.175971 
L 96.629298 40.801958 
L 98.387174 41.736717 
L 100.14505 46.172845 
L 101.902925 45.047907 
L 103.660801 47.795252 
L 105.418677 51.313862 
L 107.176553 58.11533 
L 108.934428 61.868102 
L 110.692304 52.781855 
L 112.45018 56.595958 
L 114.208056 63.89959 
L 115.965932 59.355209 
L 117.723807 49.599066 
L 119.481683 67.30466 
L 121.239559 66.999014 
L 122.997435 65.828519 
L 124.755311 62.160557 
L 126.513186 57.995075 
L 128.271062 46.100953 
L 130.028938 50.678745 
L 131.786814 43.858426 
L 133.544689 50.564857 
L 135.302565 34.833021 
L 137.060441 38.590739 
L 138.818317 39.927827 
L 140.576193 39.610254 
L 142.334068 80.780669 
L 144.091944 104.313955 
L 145.84982 121.216829 
L 147.607696 131.135807 
L 149.365572 138.683674 
L 151.123447 142.57665 
L 152.881323 148.223456 
L 154.639199 149.555379 
L 156.397075 150.407601 
L 158.15495 148.58498 
L 159.912826 150.81991 
L 161.670702 151.365748 
L 163.428578 151.853088 
L 165.186454 150.620885 
L 166.944329 150.932796 
L 168.702205 151.694442 
L 170.460081 151.797545 
L 172.217957 153.440061 
L 173.975833 153.731583 
L 175.733708 151.896212 
L 177.491584 151.238788 
L 179.24946 151.010776 
L 181.007336 150.885432 
L 182.765212 151.854874 
L 184.523087 151.712208 
L 186.280963 150.354815 
L 188.038839 151.327746 
L 189.796715 151.693648 
L 191.55459 151.686251 
L 193.312466 152.806024 
L 195.070342 151.973361 
L 196.828218 153.468355 
L 198.586094 153.682071 
L 200.343969 153.896567 
L 200.343969 153.896567 
L 200.343969 153.896567 
L 198.586094 153.682071 
L 196.828218 153.468355 
L 195.070342 151.973361 
L 193.312466 152.806024 
L 191.55459 151.686251 
L 189.796715 151.693648 
L 188.038839 151.327746 
L 186.280963 150.354815 
L 184.523087 151.712208 
L 182.765212 151.854874 
L 181.007336 150.885432 
L 179.24946 151.010776 
L 177.491584 151.238788 
L 175.733708 151.896212 
L 173.975833 153.731583 
L 172.217957 153.440061 
L 170.460081 151.797545 
L 168.702205 151.694442 
L 166.944329 150.932796 
L 165.186454 150.620885 
L 163.428578 151.853088 
L 161.670702 151.365748 
L 159.912826 150.81991 
L 158.15495 148.58498 
L 156.397075 150.407601 
L 154.639199 149.555379 
L 152.881323 148.223456 
L 151.123447 142.57665 
L 149.365572 138.683674 
L 147.607696 131.135807 
L 145.84982 121.216829 
L 144.091944 104.313955 
L 142.334068 80.780669 
L 140.576193 39.610254 
L 138.818317 39.927827 
L 137.060441 38.590739 
L 135.302565 34.833021 
L 133.544689 50.564857 
L 131.786814 43.858426 
L 130.028938 50.678745 
L 128.271062 46.100953 
L 126.513186 57.995075 
L 124.755311 62.160557 
L 122.997435 65.828519 
L 121.239559 66.999014 
L 119.481683 67.30466 
L 117.723807 49.599066 
L 115.965932 59.355209 
L 114.208056 63.89959 
L 112.45018 56.595958 
L 110.692304 52.781855 
L 108.934428 61.868102 
L 107.176553 58.11533 
L 105.418677 51.313862 
L 103.660801 47.795252 
L 101.902925 45.047907 
L 100.14505 46.172845 
L 98.387174 41.736717 
L 96.629298 40.801958 
L 94.871422 40.175971 
L 93.113546 39.785929 
L 91.355671 42.17516 
L 89.597795 52.626301 
L 87.839919 47.384335 
L 86.082043 53.234614 
L 84.324167 55.904845 
L 82.566292 46.553783 
L 80.808416 46.971287 
L 79.05054 36.356225 
L 77.292664 44.425948 
L 75.534788 57.786143 
L 73.776913 57.972884 
L 72.019037 48.425166 
L 70.261161 58.748874 
L 68.503285 57.044277 
L 66.74541 57.225265 
L 64.987534 49.487592 
L 63.229658 55.222305 
L 61.471782 57.6316 
L 59.713906 62.747581 
L 57.956031 61.087036 
L 56.198155 43.211306 
L 54.440279 40.589555 
L 52.682403 45.831324 
L 50.924527 48.141933 
L 49.166652 50.018208 
L 47.408776 51.083976 
L 45.6509 60.669738 
L 43.893024 74.448753 
L 42.135149 79.686947 
L 40.377273 92.918142 
z
" style="fill:#008000;fill-opacity:0.5;"/>
   </g>
   <g id="PolyCollection_3">
    <path clip-path="url(#pbf1039ccfd)" d="M 40.377273 111.475611 
L 40.377273 111.475611 
L 42.135149 97.935852 
L 43.893024 106.994908 
L 45.6509 96.713867 
L 47.408776 96.876184 
L 49.166652 103.231341 
L 50.924527 97.628857 
L 52.682403 94.522048 
L 54.440279 95.064219 
L 56.198155 96.991366 
L 57.956031 98.069173 
L 59.713906 102.205958 
L 61.471782 111.332779 
L 63.229658 107.763307 
L 64.987534 106.74161 
L 66.74541 103.405404 
L 68.503285 97.544472 
L 70.261161 99.055928 
L 72.019037 100.177496 
L 73.776913 99.586317 
L 75.534788 98.405296 
L 77.292664 83.078894 
L 79.05054 84.571069 
L 80.808416 97.107971 
L 82.566292 92.949476 
L 84.324167 95.703064 
L 86.082043 90.790216 
L 87.839919 88.560147 
L 89.597795 87.540709 
L 91.355671 86.918565 
L 93.113546 78.792189 
L 94.871422 71.881028 
L 96.629298 85.191491 
L 98.387174 88.27304 
L 100.14505 93.394068 
L 101.902925 93.048405 
L 103.660801 86.133247 
L 105.418677 87.302656 
L 107.176553 93.623135 
L 108.934428 98.475723 
L 110.692304 88.159509 
L 112.45018 96.957122 
L 114.208056 100.870425 
L 115.965932 97.176798 
L 117.723807 101.461391 
L 119.481683 96.659104 
L 121.239559 103.043727 
L 122.997435 99.618124 
L 124.755311 109.613407 
L 126.513186 96.833457 
L 128.271062 108.927415 
L 130.028938 104.344517 
L 131.786814 104.88223 
L 133.544689 99.689284 
L 135.302565 95.128848 
L 137.060441 104.634853 
L 138.818317 113.734608 
L 140.576193 117.8138 
L 142.334068 112.705802 
L 144.091944 111.539247 
L 145.84982 113.150411 
L 147.607696 106.273308 
L 149.365572 94.555026 
L 151.123447 100.684615 
L 152.881323 102.511285 
L 154.639199 105.259859 
L 156.397075 107.494041 
L 158.15495 113.566498 
L 159.912826 103.371638 
L 161.670702 105.924498 
L 163.428578 102.245146 
L 165.186454 113.365136 
L 166.944329 118.554765 
L 168.702205 117.077816 
L 170.460081 111.773648 
L 172.217957 121.479421 
L 173.975833 123.001817 
L 175.733708 132.731342 
L 177.491584 137.254007 
L 179.24946 141.753557 
L 181.007336 146.146131 
L 182.765212 148.11342 
L 184.523087 148.98039 
L 186.280963 149.501723 
L 188.038839 151.564668 
L 189.796715 152.768156 
L 191.55459 149.440935 
L 193.312466 151.613166 
L 195.070342 151.765776 
L 196.828218 151.348047 
L 198.586094 152.479922 
L 200.343969 151.627242 
L 202.101845 150.623822 
L 203.859721 150.290999 
L 205.617597 152.229905 
L 207.375473 153.399112 
L 209.133348 153.893062 
L 210.891224 153.675471 
L 212.6491 153.30224 
L 214.406976 152.937672 
L 216.164851 153.880455 
L 217.922727 153.899422 
L 217.922727 153.899422 
L 217.922727 153.899422 
L 216.164851 153.880455 
L 214.406976 152.937672 
L 212.6491 153.30224 
L 210.891224 153.675471 
L 209.133348 153.893062 
L 207.375473 153.399112 
L 205.617597 152.229905 
L 203.859721 150.290999 
L 202.101845 150.623822 
L 200.343969 151.627242 
L 198.586094 152.479922 
L 196.828218 151.348047 
L 195.070342 151.765776 
L 193.312466 151.613166 
L 191.55459 149.440935 
L 189.796715 152.768156 
L 188.038839 151.564668 
L 186.280963 149.501723 
L 184.523087 148.98039 
L 182.765212 148.11342 
L 181.007336 146.146131 
L 179.24946 141.753557 
L 177.491584 137.254007 
L 175.733708 132.731342 
L 173.975833 123.001817 
L 172.217957 121.479421 
L 170.460081 111.773648 
L 168.702205 117.077816 
L 166.944329 118.554765 
L 165.186454 113.365136 
L 163.428578 102.245146 
L 161.670702 105.924498 
L 159.912826 103.371638 
L 158.15495 113.566498 
L 156.397075 107.494041 
L 154.639199 105.259859 
L 152.881323 102.511285 
L 151.123447 100.684615 
L 149.365572 94.555026 
L 147.607696 106.273308 
L 145.84982 113.150411 
L 144.091944 111.539247 
L 142.334068 112.705802 
L 140.576193 117.8138 
L 138.818317 113.734608 
L 137.060441 104.634853 
L 135.302565 95.128848 
L 133.544689 99.689284 
L 131.786814 104.88223 
L 130.028938 104.344517 
L 128.271062 108.927415 
L 126.513186 96.833457 
L 124.755311 109.613407 
L 122.997435 99.618124 
L 121.239559 103.043727 
L 119.481683 96.659104 
L 117.723807 101.461391 
L 115.965932 97.176798 
L 114.208056 100.870425 
L 112.45018 96.957122 
L 110.692304 88.159509 
L 108.934428 98.475723 
L 107.176553 93.623135 
L 105.418677 87.302656 
L 103.660801 86.133247 
L 101.902925 93.048405 
L 100.14505 93.394068 
L 98.387174 88.27304 
L 96.629298 85.191491 
L 94.871422 71.881028 
L 93.113546 78.792189 
L 91.355671 86.918565 
L 89.597795 87.540709 
L 87.839919 88.560147 
L 86.082043 90.790216 
L 84.324167 95.703064 
L 82.566292 92.949476 
L 80.808416 97.107971 
L 79.05054 84.571069 
L 77.292664 83.078894 
L 75.534788 98.405296 
L 73.776913 99.586317 
L 72.019037 100.177496 
L 70.261161 99.055928 
L 68.503285 97.544472 
L 66.74541 103.405404 
L 64.987534 106.74161 
L 63.229658 107.763307 
L 61.471782 111.332779 
L 59.713906 102.205958 
L 57.956031 98.069173 
L 56.198155 96.991366 
L 54.440279 95.064219 
L 52.682403 94.522048 
L 50.924527 97.628857 
L 49.166652 103.231341 
L 47.408776 96.876184 
L 45.6509 96.713867 
L 43.893024 106.994908 
L 42.135149 97.935852 
L 40.377273 111.475611 
z
" style="fill:#ff0000;fill-opacity:0.5;"/>
   </g>
   <g id="matplotlib.axis_1">
    <g id="xtick_1">
     <g id="line2d_1">
      <defs>
       <path d="M 0 0 
L 0 3.5 
" id="mc6ee066c03" style="stroke:#000000;stroke-width:0.8;"/>
      </defs>
      <g>
       <use style="stroke:#000000;stroke-width:0.8;" x="40.377273" xlink:href="#mc6ee066c03" y="160.2"/>
      </g>
     </g>
     <g id="text_1">
      <text style="font-family:Latin Modern Math;font-size:10px;font-stretch:normal;font-style:normal;font-weight:normal;text-anchor:middle;" transform="rotate(-0, 40.377273, 174.140625)" x="40.377273" y="174.140625">0</text>
     </g>
    </g>
    <g id="xtick_2">
     <g id="line2d_2">
      <g>
       <use style="stroke:#000000;stroke-width:0.8;" x="75.534788" xlink:href="#mc6ee066c03" y="160.2"/>
      </g>
     </g>
     <g id="text_2">
      <text style="font-family:Latin Modern Math;font-size:10px;font-stretch:normal;font-style:normal;font-weight:normal;text-anchor:middle;" transform="rotate(-0, 75.534788, 174.140625)" x="75.534788" y="174.140625">20</text>
     </g>
    </g>
    <g id="xtick_3">
     <g id="line2d_3">
      <g>
       <use style="stroke:#000000;stroke-width:0.8;" x="110.692304" xlink:href="#mc6ee066c03" y="160.2"/>
      </g>
     </g>
     <g id="text_3">
      <text style="font-family:Latin Modern Math;font-size:10px;font-stretch:normal;font-style:normal;font-weight:normal;text-anchor:middle;" transform="rotate(-0, 110.692304, 174.140625)" x="110.692304" y="174.140625">40</text>
     </g>
    </g>
    <g id="xtick_4">
     <g id="line2d_4">
      <g>
       <use style="stroke:#000000;stroke-width:0.8;" x="145.84982" xlink:href="#mc6ee066c03" y="160.2"/>
      </g>
     </g>
     <g id="text_4">
      <text style="font-family:Latin Modern Math;font-size:10px;font-stretch:normal;font-style:normal;font-weight:normal;text-anchor:middle;" transform="rotate(-0, 145.84982, 174.140625)" x="145.84982" y="174.140625">60</text>
     </g>
    </g>
    <g id="xtick_5">
     <g id="line2d_5">
      <g>
       <use style="stroke:#000000;stroke-width:0.8;" x="181.007336" xlink:href="#mc6ee066c03" y="160.2"/>
      </g>
     </g>
     <g id="text_5">
      <text style="font-family:Latin Modern Math;font-size:10px;font-stretch:normal;font-style:normal;font-weight:normal;text-anchor:middle;" transform="rotate(-0, 181.007336, 174.140625)" x="181.007336" y="174.140625">80</text>
     </g>
    </g>
    <g id="xtick_6">
     <g id="line2d_6">
      <g>
       <use style="stroke:#000000;stroke-width:0.8;" x="216.164851" xlink:href="#mc6ee066c03" y="160.2"/>
      </g>
     </g>
     <g id="text_6">
      <text style="font-family:Latin Modern Math;font-size:10px;font-stretch:normal;font-style:normal;font-weight:normal;text-anchor:middle;" transform="rotate(-0, 216.164851, 174.140625)" x="216.164851" y="174.140625">100</text>
     </g>
    </g>
    <g id="text_7">
     <text style="font-family:Latin Modern Math;font-size:10px;font-stretch:normal;font-style:normal;font-weight:normal;text-anchor:middle;" transform="rotate(-0, 129.15, 187.021875)" x="129.15" y="187.021875">episodes</text>
    </g>
   </g>
   <g id="matplotlib.axis_2">
    <g id="ytick_1">
     <g id="line2d_7">
      <defs>
       <path d="M 0 0 
L -3.5 0 
" id="m944b3817ed" style="stroke:#000000;stroke-width:0.8;"/>
      </defs>
      <g>
       <use style="stroke:#000000;stroke-width:0.8;" x="31.5" xlink:href="#m944b3817ed" y="153.900414"/>
      </g>
     </g>
     <g id="text_8">
      <text style="font-family:Latin Modern Math;font-size:10px;font-stretch:normal;font-style:normal;font-weight:normal;text-anchor:end;" transform="rotate(-0, 24.5, 157.370727)" x="24.5" y="157.370727">0</text>
     </g>
    </g>
    <g id="ytick_2">
     <g id="line2d_8">
      <g>
       <use style="stroke:#000000;stroke-width:0.8;" x="31.5" xlink:href="#m944b3817ed" y="125.328777"/>
      </g>
     </g>
     <g id="text_9">
      <text style="font-family:Latin Modern Math;font-size:10px;font-stretch:normal;font-style:normal;font-weight:normal;text-anchor:end;" transform="rotate(-0, 24.5, 128.79909)" x="24.5" y="128.79909">10</text>
     </g>
    </g>
    <g id="ytick_3">
     <g id="line2d_9">
      <g>
       <use style="stroke:#000000;stroke-width:0.8;" x="31.5" xlink:href="#m944b3817ed" y="96.75714"/>
      </g>
     </g>
     <g id="text_10">
      <text style="font-family:Latin Modern Math;font-size:10px;font-stretch:normal;font-style:normal;font-weight:normal;text-anchor:end;" transform="rotate(-0, 24.5, 100.227452)" x="24.5" y="100.227452">20</text>
     </g>
    </g>
    <g id="ytick_4">
     <g id="line2d_10">
      <g>
       <use style="stroke:#000000;stroke-width:0.8;" x="31.5" xlink:href="#m944b3817ed" y="68.185503"/>
      </g>
     </g>
     <g id="text_11">
      <text style="font-family:Latin Modern Math;font-size:10px;font-stretch:normal;font-style:normal;font-weight:normal;text-anchor:end;" transform="rotate(-0, 24.5, 71.655815)" x="24.5" y="71.655815">30</text>
     </g>
    </g>
    <g id="ytick_5">
     <g id="line2d_11">
      <g>
       <use style="stroke:#000000;stroke-width:0.8;" x="31.5" xlink:href="#m944b3817ed" y="39.613866"/>
      </g>
     </g>
     <g id="text_12">
      <text style="font-family:Latin Modern Math;font-size:10px;font-stretch:normal;font-style:normal;font-weight:normal;text-anchor:end;" transform="rotate(-0, 24.5, 43.084178)" x="24.5" y="43.084178">40</text>
     </g>
    </g>
    <g id="text_13">
     <text style="font-family:Latin Modern Math;font-size:10px;font-stretch:normal;font-style:normal;font-weight:normal;text-anchor:middle;" transform="rotate(-90, 8.559375, 90.9)" x="8.559375" y="90.9">kl</text>
    </g>
   </g>
   <g id="line2d_12">
    <path clip-path="url(#pbf1039ccfd)" d="M 40.377273 91.666102 
L 42.135149 94.507908 
L 43.893024 82.241828 
L 45.6509 72.885806 
L 47.408776 66.190362 
L 49.166652 59.423691 
L 50.924527 51.42733 
L 52.682403 49.877059 
L 54.440279 41.916085 
L 56.198155 47.885552 
L 57.956031 37.099604 
L 59.713906 42.35046 
L 61.471782 35.998219 
L 63.229658 27.9 
L 64.987534 29.294693 
L 66.74541 39.656124 
L 68.503285 34.43653 
L 70.261161 37.849454 
L 72.019037 47.93776 
L 73.776913 53.423259 
L 75.534788 54.742557 
L 77.292664 55.526891 
L 79.05054 62.31764 
L 80.808416 56.513642 
L 82.566292 45.09662 
L 84.324167 47.183314 
L 86.082043 50.506717 
L 87.839919 45.543416 
L 89.597795 36.840898 
L 91.355671 42.42133 
L 93.113546 41.609549 
L 94.871422 40.961298 
L 96.629298 46.679698 
L 98.387174 40.920403 
L 100.14505 48.898477 
L 101.902925 45.007238 
L 103.660801 47.920087 
L 105.418677 49.521534 
L 107.176553 55.127097 
L 108.934428 58.569638 
L 110.692304 51.429006 
L 112.45018 43.9971 
L 114.208056 40.483822 
L 115.965932 39.93227 
L 117.723807 46.751767 
L 119.481683 43.168935 
L 121.239559 44.577621 
L 122.997435 43.506981 
L 124.755311 42.605208 
L 126.513186 56.215855 
L 128.271062 59.635061 
L 130.028938 56.027031 
L 131.786814 88.007828 
L 133.544689 108.056969 
L 135.302565 124.411754 
L 137.060441 133.178881 
L 138.818317 141.933692 
L 140.576193 147.526434 
L 142.334068 148.613925 
L 144.091944 150.373326 
L 145.84982 149.313776 
L 147.607696 151.722993 
L 149.365572 153.216355 
L 151.123447 153.432876 
L 152.881323 153.286031 
L 154.639199 153.800022 
L 156.397075 153.617056 
L 158.15495 153.740981 
L 159.912826 153.768547 
L 161.670702 153.720926 
L 163.428578 153.870645 
L 165.186454 153.9 
" style="fill:none;stroke:#0000ff;stroke-linecap:square;stroke-width:1.5;"/>
   </g>
   <g id="line2d_13">
    <path clip-path="url(#pbf1039ccfd)" d="M 40.377273 92.918142 
L 42.135149 79.686947 
L 43.893024 74.448753 
L 45.6509 60.669738 
L 47.408776 51.083976 
L 49.166652 50.018208 
L 50.924527 48.141933 
L 52.682403 45.831324 
L 54.440279 40.589555 
L 56.198155 43.211306 
L 57.956031 61.087036 
L 59.713906 62.747581 
L 61.471782 57.6316 
L 63.229658 55.222305 
L 64.987534 49.487592 
L 66.74541 57.225265 
L 68.503285 57.044277 
L 70.261161 58.748874 
L 72.019037 48.425166 
L 73.776913 57.972884 
L 75.534788 57.786143 
L 77.292664 44.425948 
L 79.05054 36.356225 
L 80.808416 46.971287 
L 82.566292 46.553783 
L 84.324167 55.904845 
L 86.082043 53.234614 
L 87.839919 47.384335 
L 89.597795 52.626301 
L 91.355671 42.17516 
L 93.113546 39.785929 
L 94.871422 40.175971 
L 96.629298 40.801958 
L 98.387174 41.736717 
L 100.14505 46.172845 
L 101.902925 45.047907 
L 103.660801 47.795252 
L 105.418677 51.313862 
L 107.176553 58.11533 
L 108.934428 61.868102 
L 110.692304 52.781855 
L 112.45018 56.595958 
L 114.208056 63.89959 
L 115.965932 59.355209 
L 117.723807 49.599066 
L 119.481683 67.30466 
L 121.239559 66.999014 
L 122.997435 65.828519 
L 124.755311 62.160557 
L 126.513186 57.995075 
L 128.271062 46.100953 
L 130.028938 50.678745 
L 131.786814 43.858426 
L 133.544689 50.564857 
L 135.302565 34.833021 
L 137.060441 38.590739 
L 138.818317 39.927827 
L 140.576193 39.610254 
L 142.334068 80.780669 
L 144.091944 104.313955 
L 145.84982 121.216829 
L 147.607696 131.135807 
L 149.365572 138.683674 
L 151.123447 142.57665 
L 152.881323 148.223456 
L 154.639199 149.555379 
L 156.397075 150.407601 
L 158.15495 148.58498 
L 159.912826 150.81991 
L 161.670702 151.365748 
L 163.428578 151.853088 
L 165.186454 150.620885 
L 166.944329 150.932796 
L 168.702205 151.694442 
L 170.460081 151.797545 
L 172.217957 153.440061 
L 173.975833 153.731583 
L 175.733708 151.896212 
L 177.491584 151.238788 
L 179.24946 151.010776 
L 181.007336 150.885432 
L 182.765212 151.854874 
L 184.523087 151.712208 
L 186.280963 150.354815 
L 188.038839 151.327746 
L 189.796715 151.693648 
L 191.55459 151.686251 
L 193.312466 152.806024 
L 195.070342 151.973361 
L 196.828218 153.468355 
L 198.586094 153.682071 
L 200.343969 153.896567 
" style="fill:none;stroke:#008000;stroke-linecap:square;stroke-width:1.5;"/>
   </g>
   <g id="line2d_14">
    <path clip-path="url(#pbf1039ccfd)" d="M 40.377273 111.475611 
L 42.135149 97.935852 
L 43.893024 106.994908 
L 45.6509 96.713867 
L 47.408776 96.876184 
L 49.166652 103.231341 
L 50.924527 97.628857 
L 52.682403 94.522048 
L 54.440279 95.064219 
L 56.198155 96.991366 
L 57.956031 98.069173 
L 59.713906 102.205958 
L 61.471782 111.332779 
L 63.229658 107.763307 
L 64.987534 106.74161 
L 66.74541 103.405404 
L 68.503285 97.544472 
L 70.261161 99.055928 
L 72.019037 100.177496 
L 73.776913 99.586317 
L 75.534788 98.405296 
L 77.292664 83.078894 
L 79.05054 84.571069 
L 80.808416 97.107971 
L 82.566292 92.949476 
L 84.324167 95.703064 
L 86.082043 90.790216 
L 87.839919 88.560147 
L 89.597795 87.540709 
L 91.355671 86.918565 
L 93.113546 78.792189 
L 94.871422 71.881028 
L 96.629298 85.191491 
L 98.387174 88.27304 
L 100.14505 93.394068 
L 101.902925 93.048405 
L 103.660801 86.133247 
L 105.418677 87.302656 
L 107.176553 93.623135 
L 108.934428 98.475723 
L 110.692304 88.159509 
L 112.45018 96.957122 
L 114.208056 100.870425 
L 115.965932 97.176798 
L 117.723807 101.461391 
L 119.481683 96.659104 
L 121.239559 103.043727 
L 122.997435 99.618124 
L 124.755311 109.613407 
L 126.513186 96.833457 
L 128.271062 108.927415 
L 130.028938 104.344517 
L 131.786814 104.88223 
L 133.544689 99.689284 
L 135.302565 95.128848 
L 137.060441 104.634853 
L 138.818317 113.734608 
L 140.576193 117.8138 
L 142.334068 112.705802 
L 144.091944 111.539247 
L 145.84982 113.150411 
L 147.607696 106.273308 
L 149.365572 94.555026 
L 151.123447 100.684615 
L 152.881323 102.511285 
L 154.639199 105.259859 
L 156.397075 107.494041 
L 158.15495 113.566498 
L 159.912826 103.371638 
L 161.670702 105.924498 
L 163.428578 102.245146 
L 165.186454 113.365136 
L 166.944329 118.554765 
L 168.702205 117.077816 
L 170.460081 111.773648 
L 172.217957 121.479421 
L 173.975833 123.001817 
L 175.733708 132.731342 
L 177.491584 137.254007 
L 179.24946 141.753557 
L 181.007336 146.146131 
L 182.765212 148.11342 
L 184.523087 148.98039 
L 186.280963 149.501723 
L 188.038839 151.564668 
L 189.796715 152.768156 
L 191.55459 149.440935 
L 193.312466 151.613166 
L 195.070342 151.765776 
L 196.828218 151.348047 
L 198.586094 152.479922 
L 200.343969 151.627242 
L 202.101845 150.623822 
L 203.859721 150.290999 
L 205.617597 152.229905 
L 207.375473 153.399112 
L 209.133348 153.893062 
L 210.891224 153.675471 
L 212.6491 153.30224 
L 214.406976 152.937672 
L 216.164851 153.880455 
L 217.922727 153.899422 
" style="fill:none;stroke:#ff0000;stroke-linecap:square;stroke-width:1.5;"/>
   </g>
   <g id="patch_3">
    <path d="M 31.5 160.2 
L 31.5 21.6 
" style="fill:none;stroke:#000000;stroke-linecap:square;stroke-linejoin:miter;stroke-width:0.8;"/>
   </g>
   <g id="patch_4">
    <path d="M 226.8 160.2 
L 226.8 21.6 
" style="fill:none;stroke:#000000;stroke-linecap:square;stroke-linejoin:miter;stroke-width:0.8;"/>
   </g>
   <g id="patch_5">
    <path d="M 31.5 160.2 
L 226.8 160.2 
" style="fill:none;stroke:#000000;stroke-linecap:square;stroke-linejoin:miter;stroke-width:0.8;"/>
   </g>
   <g id="patch_6">
    <path d="M 31.5 21.6 
L 226.8 21.6 
" style="fill:none;stroke:#000000;stroke-linecap:square;stroke-linejoin:miter;stroke-width:0.8;"/>
   </g>
   <g id="legend_1">
    <g id="patch_7">
     <path d="M 38.5 155.2 
L 121.68125 155.2 
Q 123.68125 155.2 123.68125 153.2 
L 123.68125 112.378125 
Q 123.68125 110.378125 121.68125 110.378125 
L 38.5 110.378125 
Q 36.5 110.378125 36.5 112.378125 
L 36.5 153.2 
Q 36.5 155.2 38.5 155.2 
z
" style="fill:#ffffff;opacity:0.8;stroke:#cccccc;stroke-linejoin:miter;"/>
    </g>
    <g id="patch_8">
     <path d="M 40.5 121.378125 
L 60.5 121.378125 
L 60.5 114.378125 
L 40.5 114.378125 
z
" style="fill:#0000ff;stroke:#0000ff;stroke-linejoin:miter;"/>
    </g>
    <g id="text_14">
     <text style="font-family:Latin Modern Math;font-size:10px;font-stretch:normal;font-style:normal;font-weight:normal;text-anchor:start;" transform="rotate(-0, 68.5, 121.378125)" x="68.5" y="121.378125">oracles_10_0</text>
    </g>
    <g id="patch_9">
     <path d="M 40.5 135.31875 
L 60.5 135.31875 
L 60.5 128.31875 
L 40.5 128.31875 
z
" style="fill:#008000;stroke:#008000;stroke-linejoin:miter;"/>
    </g>
    <g id="text_15">
     <text style="font-family:Latin Modern Math;font-size:10px;font-stretch:normal;font-style:normal;font-weight:normal;text-anchor:start;" transform="rotate(-0, 68.5, 135.31875)" x="68.5" y="135.31875">oracles_9_1</text>
    </g>
    <g id="patch_10">
     <path d="M 40.5 149.259375 
L 60.5 149.259375 
L 60.5 142.259375 
L 40.5 142.259375 
z
" style="fill:#ff0000;stroke:#ff0000;stroke-linejoin:miter;"/>
    </g>
    <g id="text_16">
     <text style="font-family:Latin Modern Math;font-size:10px;font-stretch:normal;font-style:normal;font-weight:normal;text-anchor:start;" transform="rotate(-0, 68.5, 149.259375)" x="68.5" y="149.259375">oracles_7_3</text>
    </g>
   </g>
  </g>
 </g>
 <defs>
  <clipPath id="pbf1039ccfd">
   <rect height="138.6" width="195.3" x="31.5" y="21.6"/>
  </clipPath>
 </defs>
</svg>
